{
.appVersion = "3337";
.formatVersion = 3;
DisplayStrings = (
"Zalando Beta v.3
 
A B C D E F G H I J K L M N O P Q R S T U V W X Y Z Å Ä Ö
 
a b c d e f g h i j k l m n o p q r s t u v w x y z å ä ö 

Numbers
0123456789
/zero.tf/one.tf/two.tf/three.tf/four.tf/five.tf/six.tf/seven.tf/eight.tf/nine.tf 

H⁰¹²³⁴⁵⁶⁷⁸⁹H₀₁₂₃₄₅₆₇₈₉
/zero.numr/one.numr/two.numr/three.numr/four.numr/five.numr/six.numr/seven.numr/eight.numr/nine.numr/zero.dnom/one.dnom/two.dnom/three.dnom/four.dnom/five.dnom/six.dnom/seven.dnom/eight.dnom/nine.dnom 
⁄  ½ ⅓ ⅔ ¼ ¾   /one.numr ⁄/eight.dnom       
 
Punctuation & Symbols
. , : ; … ! ¡ ? ¿ @ [] () {} // /backslash  - – — _ · • *   # & ¶ § © ® ™ ° | ¦ † ‡       

Quotation
‚ „ “ ” ‘ ’ «» ‹› \" '

Currency
¤   ₿ ¢ $ €       £  ¥

Math
+ − × ÷ = ≠ ≈ ~ ¬ > < ≥ ≤ ± ^ ° ∅ ∞ ∫ ∏ ∑ √ ∂   % ‰ Δ Π Ω        ∆
 
Arrows
↑↗→↘↓↙←↖  
    

Marks
̇̈̊/dieresiscomb.case/ringcomb.case ̀́̋̂̌̆̃̄̒
̶̵̸̧̨̦/slashlongcomb.case ̷/caroncomb.alt 

"
);
axes = (
{
name = Weight;
tag = wght;
},
{
name = Width;
tag = wdth;
},
{
name = Italic;
tag = ital;
}
);
classes = (
{
automatic = 1;
code = "A Aacute Abreve Acircumflex Adieresis Agrave Amacron Aogonek Aring Atilde AE B C Cacute Ccaron Ccedilla Ccircumflex Cdotaccent D Dcaron Dcroat Eth E Eacute Ecaron Ecircumflex Edieresis Edotaccent Egrave Emacron Eogonek F G Gbreve Gcircumflex Gcommaaccent Gdotaccent H Hbar I Iacute Ibreve Icircumflex Idieresis Idotaccent Igrave Imacron Iogonek Itilde J Jcircumflex K Kcommaaccent L Lacute Lcaron Lcommaaccent Ldot Lslash M N Nacute Ncaron Ncommaaccent Ntilde Eng O Oacute Obreve Ocircumflex Odieresis Ograve Ohungarumlaut Omacron Oslash Otilde OE P Thorn Q R Racute Rcaron Rcommaaccent S Sacute Scaron Scedilla Scircumflex Scommaaccent Germandbls T Tbar Tcaron Tcedilla Tcommaaccent U Uacute Ubreve Ucircumflex Udieresis Ugrave Uhungarumlaut Umacron Uogonek Uring V W Wacute Wcircumflex Wdieresis Wgrave X Y Yacute Ycircumflex Ydieresis Ygrave Z Zacute Zcaron Zdotaccent";
name = Uppercase;
}
);

glyphs = (
{
glyphname = A;
kernLeft = A;
kernRight = A;
lastChange = "2024-12-06 10:39:41 +0000";
layers = (
{
anchors = (
{
name = bottom;
pos = (188,0);
},
{
name = ogonek;
pos = (405,0);
},
{
name = top;
pos = (314,714);
}
);
layerId = "3A742E95-6392-47DA-98D0-C770A5889573";
shapes = (
{
closed = 1;
nodes = (
(29,0,l),
(315,668,l),
(298,668,l),
(347,0,l),
(405,0,l),
(349,714,l),
(279,714,l),
(-29,0,l)
);
},
{
closed = 1;
nodes = (
(357,205,l),
(365,253,l),
(97,253,l),
(89,205,l)
);
}
);
width = 466;
},
{
anchors = (
{
name = bottom;
pos = (303,0);
},
{
name = ogonek;
pos = (619,0);
},
{
name = top;
pos = (420,714);
}
);
layerId = "DA512DF4-6FCD-4164-96D6-05DE8967F50A";
shapes = (
{
closed = 1;
nodes = (
(68,0,l),
(435,680,l),
(401,680,l),
(524,0,l),
(619,0,l),
(480,714,l),
(365,714,l),
(-31,0,l)
);
},
{
closed = 1;
nodes = (
(526,187,l),
(539,265,l),
(155,265,l),
(142,187,l)
);
}
);
width = 678;
},
{
anchors = (
{
name = bottom;
pos = (197,0);
},
{
name = ogonek;
pos = (427,0);
},
{
name = top;
pos = (323,714);
}
);
background = {
shapes = (
{
closed = 1;
nodes = (
(379,191,l),
(379,258,l),
(106,258,l),
(106,191,l)
);
}
);
};
layerId = "0A603DC7-0F9F-4E29-AC1C-80B527B5555F";
shapes = (
{
closed = 1;
nodes = (
(52,0,l),
(328,663,l),
(304,663,l),
(343,0,l),
(427,0,l),
(372,714,l),
(276,714,l),
(-32,0,l)
);
},
{
closed = 1;
nodes = (
(365,191,l),
(376,258,l),
(106,258,l),
(95,191,l)
);
}
);
width = 485;
},
{
anchors = (
{
name = bottom;
pos = (281,0);
},
{
name = ogonek;
pos = (593,0);
},
{
name = top;
pos = (411,714);
}
);
layerId = "38E57698-3E0D-47EE-AD12-065B63128021";
shapes = (
{
closed = 1;
nodes = (
(38,0,l),
(431,708,l),
(395,708,l),
(531,0,l),
(593,0,l),
(451,714,l),
(372,714,l),
(-27,0,l)
);
},
{
closed = 1;
nodes = (
(502,203,l),
(511,256,l),
(137,256,l),
(128,203,l)
);
}
);
width = 656;
},
{
anchors = (
{
name = bottom;
pos = (368,0);
},
{
name = ogonek;
pos = (776,0);
},
{
name = top;
pos = (494,714);
}
);
guides = (
{
angle = 62.9135;
pos = (6,0);
}
);
layerId = "7B4F6316-DEA5-4C61-853A-FCC6E55FB2E9";
shapes = (
{
closed = 1;
nodes = (
(37,0,l),
(511,693,l),
(475,693,l),
(704,0,l),
(776,0,l),
(537,714,l),
(452,714,l),
(-39,0,l)
);
},
{
closed = 1;
nodes = (
(653,196,l),
(663,253,l),
(158,253,l),
(148,196,l)
);
}
);
width = 827;
},
{
anchors = (
{
name = bottom;
pos = (383,0);
},
{
name = ogonek;
pos = (803,0);
},
{
name = top;
pos = (508,714);
}
);
layerId = "FF0E7F91-EBB7-4227-9826-320229507C52";
shapes = (
{
closed = 1;
nodes = (
(69,0,l),
(524,674,l),
(483,674,l),
(701,0,l),
(803,0,l),
(567,714,l),
(448,714,l),
(-39,0,l)
);
},
{
closed = 1;
nodes = (
(662,183,l),
(675,262,l),
(173,262,l),
(159,183,l)
);
}
);
width = 855;
},
{
anchors = (
{
name = bottom;
pos = (242,0);
},
{
name = ogonek;
pos = (529,0);
},
{
name = top;
pos = (366,714);
}
);
layerId = "5974A488-68BA-4ECA-A629-BBB8F5E8E8D7";
shapes = (
{
closed = 1;
nodes = (
(150,0,l),
(390,641,l),
(333,641,l),
(335,0,l),
(529,0,l),
(476,714,l),
(267,714,l),
(-39,0,l)
);
},
{
closed = 1;
nodes = (
(406,126,l),
(430,266,l),
(149,266,l),
(125,126,l)
);
}
);
width = 581;
},
{
anchors = (
{
name = bottom;
pos = (324,0);
},
{
name = ogonek;
pos = (694,0);
},
{
name = top;
pos = (453,714);
}
);
layerId = "406F15BE-EF31-460D-8EE8-85AD72A74E98";
shapes = (
{
closed = 1;
nodes = (
(158,0,l),
(434,564,l),
(417,564,l),
(487,0,l),
(694,0,l),
(570,714,l),
(336,714,l),
(-34,0,l)
);
},
{
closed = 1;
nodes = (
(517,132,l),
(534,276,l),
(223,276,l),
(198,132,l)
);
}
);
width = 750;
},
{
anchors = (
{
name = bottom;
pos = (443,0);
},
{
name = ogonek;
pos = (914,0);
},
{
name = top;
pos = (564,714);
}
);
layerId = "974B3D67-9F33-42CE-B7A8-3E18495C5B4F";
shapes = (
{
closed = 1;
nodes = (
(204,0,l),
(578,597,l),
(519,597,l),
(688,0,l),
(914,0,l),
(695,714,l),
(434,714,l),
(-37,0,l)
);
},
{
closed = 1;
nodes = (
(699,138,l),
(728,298,l),
(236,298,l),
(206,138,l)
);
}
);
width = 967;
}
);
unicode = 65;
},
{
glyphname = Aring;
kernLeft = A;
kernRight = A;
lastChange = "2024-12-06 10:52:06 +0000";
layers = (
{
guides = (
{
pos = (334,870);
}
);
layerId = "3A742E95-6392-47DA-98D0-C770A5889573";
shapes = (
{
closed = 1;
nodes = (
(29,0,l),
(310,658,l),
(298,660,l),
(347,0,l),
(405,0,l),
(352,681,l),
(386,694,o),
(410,728,o),
(410,773,cs),
(410,831,o),
(370,870,o),
(318,870,cs),
(266,870,o),
(226,831,o),
(226,773,cs),
(226,736,o),
(243,706,o),
(269,689,c),
(-29,0,l)
);
},
{
closed = 1;
nodes = (
(357,205,l),
(365,253,l),
(97,253,l),
(89,205,l)
);
},
{
closed = 1;
nodes = (
(287,711,o),
(268,735,o),
(268,773,cs),
(268,810,o),
(287,833,o),
(318,833,cs),
(348,833,o),
(368,810,o),
(368,773,cs),
(368,735,o),
(348,711,o),
(318,711,cs)
);
}
);
width = 466;
},
{
guides = (
{
pos = (338,881);
}
);
layerId = "DA512DF4-6FCD-4164-96D6-05DE8967F50A";
shapes = (
{
closed = 1;
nodes = (
(68,0,l),
(428,667,l),
(403,671,l),
(524,0,l),
(619,0,l),
(487,679,l),
(519,697,o),
(541,730,o),
(541,772,cs),
(541,838,o),
(488,881,o),
(429,881,cs),
(371,881,o),
(317,838,o),
(317,772,cs),
(317,739,o),
(331,711,o),
(353,692,c),
(-31,0,l)
);
},
{
closed = 1;
nodes = (
(526,187,l),
(539,265,l),
(155,265,l),
(142,187,l)
);
},
{
closed = 1;
nodes = (
(395,714,o),
(371,742,o),
(371,772,cs),
(371,803,o),
(395,831,o),
(429,831,cs),
(461,831,o),
(487,803,o),
(487,772,cs),
(487,742,o),
(461,714,o),
(429,714,cs)
);
}
);
width = 678;
},
{
layerId = "0A603DC7-0F9F-4E29-AC1C-80B527B5555F";
shapes = (
{
closed = 1;
nodes = (
(51,0,l),
(321,647,l),
(305,650,l),
(344,0,l),
(427,0,l),
(374,683,l),
(405,699,o),
(426,732,o),
(426,775,cs),
(426,837,o),
(383,878,o),
(328,878,cs),
(272,878,o),
(229,837,o),
(229,775,cs),
(229,739,o),
(244,710,o),
(267,692,c),
(-32,0,l)
);
},
{
closed = 1;
nodes = (
(365,190,l),
(376,255,l),
(106,255,l),
(95,190,l)
);
},
{
closed = 1;
nodes = (
(297,713,o),
(278,737,o),
(278,775,cs),
(278,813,o),
(297,836,o),
(328,836,cs),
(358,836,o),
(378,813,o),
(378,775,cs),
(378,737,o),
(358,713,o),
(328,713,cs)
);
}
);
width = 485;
},
{
guides = (
{
pos = (323,870);
}
);
layerId = "38E57698-3E0D-47EE-AD12-065B63128021";
shapes = (
{
closed = 1;
nodes = (
(38,0,l),
(418,684,l),
(399,687,l),
(531,0,l),
(593,0,l),
(457,684,l),
(491,699,o),
(515,732,o),
(515,773,cs),
(515,830,o),
(469,870,o),
(416,870,cs),
(363,870,o),
(316,830,o),
(316,773,cs),
(316,738,o),
(334,709,o),
(360,692,c),
(-27,0,l)
);
},
{
closed = 1;
nodes = (
(502,203,l),
(511,256,l),
(137,256,l),
(128,203,l)
);
},
{
closed = 1;
nodes = (
(385,716,o),
(360,737,o),
(360,772,cs),
(360,805,o),
(385,829,o),
(416,829,cs),
(445,829,o),
(471,805,o),
(471,772,cs),
(471,737,o),
(445,716,o),
(416,716,cs)
);
}
);
width = 656;
},
{
layerId = "7B4F6316-DEA5-4C61-853A-FCC6E55FB2E9";
shapes = (
{
closed = 1;
nodes = (
(37,0,l),
(504,683,l),
(477,687,l),
(704,0,l),
(776,0,l),
(548,681,l),
(586,696,o),
(611,730,o),
(611,773,cs),
(611,833,o),
(564,874,o),
(499,874,cs),
(434,874,o),
(386,833,o),
(386,773,cs),
(386,736,o),
(405,706,o),
(434,688,c),
(-39,0,l)
);
},
{
closed = 1;
nodes = (
(653,196,l),
(663,253,l),
(158,253,l),
(148,196,l)
);
},
{
closed = 1;
nodes = (
(461,714,o),
(435,735,o),
(435,772,cs),
(435,808,o),
(461,832,o),
(499,832,cs),
(537,832,o),
(562,808,o),
(562,772,cs),
(562,735,o),
(537,714,o),
(499,714,cs)
);
}
);
width = 827;
},
{
guides = (
{
pos = (413,885);
}
);
layerId = "FF0E7F91-EBB7-4227-9826-320229507C52";
shapes = (
{
closed = 1;
nodes = (
(69,0,l),
(520,669,l),
(483,675,l),
(701,0,l),
(803,0,l),
(579,679,l),
(614,697,o),
(636,731,o),
(636,774,cs),
(636,840,o),
(584,885,o),
(514,885,cs),
(444,885,o),
(392,840,o),
(392,774,cs),
(392,739,o),
(407,710,o),
(432,690,c),
(-39,0,l)
);
},
{
closed = 1;
nodes = (
(662,185,l),
(675,262,l),
(173,262,l),
(159,185,l)
);
},
{
closed = 1;
nodes = (
(478,716,o),
(451,738,o),
(451,774,cs),
(451,810,o),
(478,834,o),
(514,834,cs),
(551,834,o),
(577,810,o),
(577,774,cs),
(577,738,o),
(551,716,o),
(514,716,cs)
);
}
);
width = 855;
},
{
layerId = "5974A488-68BA-4ECA-A629-BBB8F5E8E8D7";
shapes = (
{
closed = 1;
nodes = (
(150,0,l),
(363,570,l),
(333,575,l),
(335,0,l),
(529,0,l),
(475,704,l),
(491,724,o),
(500,752,o),
(500,785,cs),
(500,865,o),
(445,911,o),
(374,911,cs),
(305,911,o),
(250,865,o),
(250,785,cs),
(250,756,o),
(257,732,o),
(269,713,c),
(-39,0,l)
);
},
{
closed = 1;
nodes = (
(406,126,l),
(430,266,l),
(149,266,l),
(125,126,l)
);
},
{
closed = 1;
nodes = (
(345,723,o),
(324,744,o),
(324,785,cs),
(324,825,o),
(345,847,o),
(374,847,cs),
(404,847,o),
(424,825,o),
(424,785,cs),
(424,744,o),
(404,723,o),
(374,723,cs)
);
}
);
width = 581;
},
{
layerId = "406F15BE-EF31-460D-8EE8-85AD72A74E98";
shapes = (
{
closed = 1;
nodes = (
(158,0,l),
(457,604,l),
(408,613,l),
(487,0,l),
(694,0,l),
(566,714,l),
(578,734,o),
(586,758,o),
(586,785,cs),
(586,860,o),
(523,911,o),
(452,911,cs),
(383,911,o),
(320,860,o),
(320,785,cs),
(320,758,o),
(328,734,o),
(340,714,c),
(-34,0,l)
);
},
{
closed = 1;
nodes = (
(517,132,l),
(534,276,l),
(223,276,l),
(198,132,l)
);
},
{
closed = 1;
nodes = (
(422,725,o),
(394,750,o),
(394,785,cs),
(394,820,o),
(422,842,o),
(452,842,cs),
(486,842,o),
(510,820,o),
(510,785,cs),
(510,750,o),
(486,725,o),
(452,725,cs)
);
}
);
width = 750;
},
{
layerId = "974B3D67-9F33-42CE-B7A8-3E18495C5B4F";
shapes = (
{
closed = 1;
nodes = (
(204,0,l),
(591,593,l),
(511,605,l),
(688,0,l),
(914,0,l),
(683,714,l),
(702,736,o),
(713,766,o),
(713,800,cs),
(713,877,o),
(651,931,o),
(568,931,cs),
(484,931,o),
(422,877,o),
(422,800,cs),
(422,766,o),
(433,736,o),
(453,714,c),
(-37,0,l)
);
},
{
closed = 1;
nodes = (
(699,138,l),
(728,298,l),
(236,298,l),
(206,138,l)
);
},
{
closed = 1;
nodes = (
(532,743,o),
(506,764,o),
(506,800,cs),
(506,833,o),
(532,856,o),
(568,856,cs),
(603,856,o),
(629,833,o),
(629,800,cs),
(629,764,o),
(603,743,o),
(568,743,cs)
);
}
);
width = 967;
}
);
metricLeft = A;
metricRight = A;
unicode = 197;
},
{
glyphname = AE;
kernRight = E;
lastChange = "2024-12-06 10:39:41 +0000";
layers = (
{
layerId = "3A742E95-6392-47DA-98D0-C770A5889573";
shapes = (
{
closed = 1;
nodes = (
(23,0,l),
(438,682,l),
(426,684,l),
(306,0,l),
(632,0,l),
(640,48,l),
(372,48,l),
(426,356,l),
(658,356,l),
(666,402,l),
(435,402,l),
(481,666,l),
(749,666,l),
(758,714,l),
(398,714,l),
(-39,0,l)
);
},
{
closed = 1;
nodes = (
(377,204,l),
(385,252,l),
(141,252,l),
(128,204,l)
);
}
);
width = 722;
},
{
layerId = "DA512DF4-6FCD-4164-96D6-05DE8967F50A";
shapes = (
{
closed = 1;
nodes = (
(65,0,l),
(550,661,l),
(530,666,l),
(412,0,l),
(893,0,l),
(906,79,l),
(519,79,l),
(565,336,l),
(919,336,l),
(932,412,l),
(578,412,l),
(618,635,l),
(1005,635,l),
(1018,714,l),
(487,714,l),
(-41,0,l)
);
},
{
closed = 1;
nodes = (
(463,187,l),
(478,265,l),
(224,265,l),
(169,187,l)
);
}
);
width = 994;
},
{
layerId = "0A603DC7-0F9F-4E29-AC1C-80B527B5555F";
shapes = (
{
closed = 1;
nodes = (
(46,0,l),
(445,666,l),
(430,668,l),
(313,0,l),
(655,0,l),
(666,68,l),
(408,68,l),
(457,343,l),
(678,343,l),
(690,407,l),
(468,407,l),
(510,646,l),
(769,646,l),
(781,714,l),
(391,714,l),
(-42,0,l)
);
},
{
closed = 1;
nodes = (
(386,190,l),
(398,257,l),
(144,257,l),
(124,190,l)
);
}
);
width = 738;
},
{
layerId = "38E57698-3E0D-47EE-AD12-065B63128021";
shapes = (
{
closed = 1;
nodes = (
(33,0,l),
(527,689,l),
(510,691,l),
(389,0,l),
(844,0,l),
(853,53,l),
(459,53,l),
(512,356,l),
(872,356,l),
(881,406,l),
(521,406,l),
(566,661,l),
(960,661,l),
(969,714,l),
(479,714,l),
(-37,0,l)
);
},
{
closed = 1;
nodes = (
(437,203,l),
(446,256,l),
(187,256,l),
(152,203,l)
);
}
);
width = 953;
},
{
background = {
shapes = (
{
closed = 1;
nodes = (
(1181,0,l),
(1181,57,l),
(626,57,l),
(626,340,l),
(1140,340,l),
(1140,396,l),
(626,396,l),
(626,657,l),
(1181,657,l),
(1181,714,l),
(557,714,l),
(557,0,l)
);
}
);
};
layerId = "7B4F6316-DEA5-4C61-853A-FCC6E55FB2E9";
shapes = (
{
closed = 1;
nodes = (
(36,0,l),
(650,672,l),
(630,676,l),
(512,0,l),
(1136,0,l),
(1145,57,l),
(591,57,l),
(641,340,l),
(1155,340,l),
(1165,396,l),
(651,396,l),
(697,657,l),
(1252,657,l),
(1262,714,l),
(607,714,l),
(-49,0,l)
);
},
{
closed = 1;
nodes = (
(577,194,l),
(588,251,l),
(205,251,l),
(182,194,l)
);
}
);
width = 1245;
},
{
layerId = "FF0E7F91-EBB7-4227-9826-320229507C52";
shapes = (
{
closed = 1;
nodes = (
(73,0,l),
(679,662,l),
(650,669,l),
(533,0,l),
(1177,0,l),
(1190,79,l),
(646,79,l),
(690,327,l),
(1193,327,l),
(1208,404,l),
(703,404,l),
(744,635,l),
(1288,635,l),
(1303,714,l),
(611,714,l),
(-49,0,l)
);
},
{
closed = 1;
nodes = (
(606,182,l),
(619,260,l),
(233,260,l),
(198,182,l)
);
}
);
width = 1280;
},
{
layerId = "5974A488-68BA-4ECA-A629-BBB8F5E8E8D7";
shapes = (
{
closed = 1;
nodes = (
(151,0,l),
(482,597,l),
(453,601,l),
(347,0,l),
(760,0,l),
(786,153,l),
(569,153,l),
(591,281,l),
(770,281,l),
(797,431,l),
(618,431,l),
(641,561,l),
(858,561,l),
(886,714,l),
(367,714,l),
(-49,0,l)
);
},
{
closed = 1;
nodes = (
(430,127,l),
(457,279,l),
(160,279,l),
(113,127,l)
);
}
);
width = 831;
},
{
layerId = "406F15BE-EF31-460D-8EE8-85AD72A74E98";
shapes = (
{
closed = 1;
nodes = (
(178,0,l),
(627,609,l),
(592,621,l),
(482,0,l),
(1021,0,l),
(1048,159,l),
(710,159,l),
(731,279,l),
(1031,279,l),
(1059,433,l),
(758,433,l),
(780,555,l),
(1118,555,l),
(1146,714,l),
(489,714,l),
(-44,0,l)
);
},
{
closed = 1;
nodes = (
(601,132,l),
(626,276,l),
(272,276,l),
(184,132,l)
);
}
);
width = 1105;
},
{
layerId = "974B3D67-9F33-42CE-B7A8-3E18495C5B4F";
shapes = (
{
closed = 1;
nodes = (
(226,0,l),
(804,619,l),
(732,638,l),
(620,0,l),
(1345,0,l),
(1373,167,l),
(871,167,l),
(890,278,l),
(1353,278,l),
(1382,437,l),
(919,437,l),
(937,547,l),
(1439,547,l),
(1470,714,l),
(630,714,l),
(-47,0,l)
);
},
{
closed = 1;
nodes = (
(721,132,l),
(750,300,l),
(344,300,l),
(265,132,l)
);
}
);
width = 1431;
}
);
metricLeft = "=A-10";
metricRight = E;
unicode = 198;
},
{
glyphname = B;
kernLeft = H;
lastChange = "2024-12-06 10:39:41 +0000";
layers = (
{
layerId = "3A742E95-6392-47DA-98D0-C770A5889573";
shapes = (
{
closed = 1;
nodes = (
(201,0,ls),
(341,0,o),
(441,91,o),
(441,224,cs),
(441,306,o),
(394,367,o),
(312,376,c),
(419,396,o),
(470,487,o),
(470,568,cs),
(470,659,o),
(417,714,o),
(321,714,cs),
(163,714,l),
(37,0,l)
);
},
{
closed = 1;
nodes = (
(156,349,l),
(263,349,ls),
(342,349,o),
(381,294,o),
(381,223,cs),
(381,125,o),
(311,48,o),
(196,48,cs),
(103,48,l)
);
},
{
closed = 1;
nodes = (
(212,666,l),
(304,666,ls),
(379,666,o),
(411,622,o),
(411,564,cs),
(411,485,o),
(352,397,o),
(255,397,cs),
(165,397,l)
);
}
);
width = 491;
},
{
layerId = "DA512DF4-6FCD-4164-96D6-05DE8967F50A";
shapes = (
{
closed = 1;
nodes = (
(351,0,ls),
(496,0,o),
(611,86,o),
(611,220,cs),
(611,304,o),
(555,362,o),
(466,374,c),
(560,393,o),
(635,459,o),
(635,557,cs),
(635,653,o),
(560,714,o),
(461,714,cs),
(165,714,l),
(40,0,l)
);
},
{
closed = 1;
nodes = (
(192,332,l),
(394,332,ls),
(472,332,o),
(517,292,o),
(517,224,cs),
(517,134,o),
(441,79,o),
(339,79,cs),
(148,79,l)
);
},
{
closed = 1;
nodes = (
(246,635,l),
(437,635,ls),
(509,635,o),
(542,606,o),
(542,545,cs),
(542,476,o),
(474,408,o),
(386,408,cs),
(207,408,l)
);
}
);
width = 671;
},
{
layerId = "0A603DC7-0F9F-4E29-AC1C-80B527B5555F";
shapes = (
{
closed = 1;
nodes = (
(212,0,ls),
(354,0,o),
(456,92,o),
(456,224,cs),
(456,303,o),
(411,365,o),
(324,376,c),
(433,396,o),
(486,483,o),
(486,566,cs),
(486,659,o),
(429,714,o),
(328,714,cs),
(155,714,l),
(29,0,l)
);
},
{
closed = 1;
nodes = (
(173,340,l),
(267,340,ls),
(335,340,o),
(371,291,o),
(371,227,cs),
(371,139,o),
(310,67,o),
(206,67,cs),
(125,67,l)
);
},
{
closed = 1;
nodes = (
(227,647,l),
(308,647,ls),
(373,647,o),
(401,609,o),
(401,556,cs),
(401,481,o),
(346,407,o),
(262,407,cs),
(186,407,l)
);
}
);
width = 501;
},
{
layerId = "38E57698-3E0D-47EE-AD12-065B63128021";
shapes = (
{
closed = 1;
nodes = (
(332,0,ls),
(484,0,o),
(595,89,o),
(595,218,cs),
(595,316,o),
(528,364,o),
(466,373,c),
(563,404,o),
(615,477,o),
(615,560,cs),
(615,647,o),
(552,714,o),
(436,714,cs),
(171,714,l),
(46,0,l)
);
},
{
closed = 1;
nodes = (
(168,347,l),
(384,347,ls),
(476,347,o),
(530,297,o),
(530,221,cs),
(530,124,o),
(443,53,o),
(323,53,cs),
(116,53,l)
);
},
{
closed = 1;
nodes = (
(223,661,l),
(422,661,ls),
(511,661,o),
(552,619,o),
(552,555,cs),
(552,466,o),
(489,399,o),
(384,399,cs),
(178,399,l)
);
}
);
width = 670;
},
{
background = {
shapes = (
{
closed = 1;
nodes = (
(491,0,ls),
(646,0,o),
(739,84,o),
(759,196,cs),
(778,305,o),
(704,368,o),
(606,376,c),
(712,392,o),
(767,458,o),
(781,542,cs),
(801,651,o),
(726,714,o),
(612,714,cs),
(163,714,l),
(38,0,l)
);
},
{
closed = 1;
nodes = (
(167,345,l),
(548,345,ls),
(647,345,o),
(704,295,o),
(687,203,cs),
(671,114,o),
(589,57,o),
(489,57,cs),
(116,57,l)
);
},
{
closed = 1;
nodes = (
(222,657,l),
(584,657,ls),
(687,657,o),
(724,611,o),
(712,539,cs),
(698,461,o),
(635,402,o),
(548,402,cs),
(177,402,l)
);
}
);
};
guides = (
{
angle = 260;
pos = (114,56);
}
);
layerId = "7B4F6316-DEA5-4C61-853A-FCC6E55FB2E9";
shapes = (
{
closed = 1;
nodes = (
(497,0,ls),
(649,0,o),
(761,89,o),
(761,218,cs),
(761,314,o),
(694,362,o),
(629,374,c),
(731,401,o),
(783,475,o),
(783,561,cs),
(783,649,o),
(717,714,o),
(601,714,cs),
(163,714,l),
(38,0,l)
);
},
{
closed = 1;
nodes = (
(167,345,l),
(549,345,ls),
(642,345,o),
(687,297,o),
(687,221,cs),
(687,124,o),
(608,57,o),
(489,57,cs),
(116,57,l)
);
},
{
closed = 1;
nodes = (
(222,657,l),
(588,657,ls),
(676,657,o),
(714,617,o),
(714,554,cs),
(714,466,o),
(654,402,o),
(549,402,cs),
(177,402,l)
);
}
);
width = 824;
},
{
layerId = "FF0E7F91-EBB7-4227-9826-320229507C52";
shapes = (
{
closed = 1;
nodes = (
(513,0,ls),
(668,0,o),
(781,87,o),
(781,217,cs),
(781,308,o),
(718,360,o),
(647,373,c),
(749,397,o),
(805,470,o),
(805,558,cs),
(805,650,o),
(736,714,o),
(619,714,cs),
(158,714,l),
(33,0,l)
);
},
{
closed = 1;
nodes = (
(191,334,l),
(557,334,ls),
(637,334,o),
(677,291,o),
(677,224,cs),
(677,136,o),
(604,80,o),
(502,80,cs),
(145,80,l)
);
},
{
closed = 1;
nodes = (
(244,634,l),
(593,634,ls),
(672,634,o),
(706,599,o),
(706,543,cs),
(706,465,o),
(652,409,o),
(557,409,cs),
(204,409,l)
);
}
);
width = 839;
},
{
layerId = "5974A488-68BA-4ECA-A629-BBB8F5E8E8D7";
shapes = (
{
closed = 1;
nodes = (
(254,0,ls),
(403,0,o),
(516,93,o),
(516,223,cs),
(516,291,o),
(477,357,o),
(371,376,c),
(486,397,o),
(543,468,o),
(543,555,cs),
(543,657,o),
(468,714,o),
(352,714,cs),
(118,714,l),
(-8,0,l)
);
},
{
closed = 1;
nodes = (
(239,300,l),
(277,300,ls),
(302,300,o),
(323,280,o),
(323,244,cs),
(323,199,o),
(300,146,o),
(244,146,cs),
(212,146,l)
);
},
{
closed = 1;
nodes = (
(287,568,l),
(320,568,ls),
(341,568,o),
(354,551,o),
(354,522,cs),
(354,466,o),
(317,440,o),
(288,440,cs),
(264,440,l)
);
}
);
width = 537;
},
{
layerId = "406F15BE-EF31-460D-8EE8-85AD72A74E98";
shapes = (
{
closed = 1;
nodes = (
(367,0,ls),
(536,0,o),
(653,85,o),
(653,216,cs),
(653,288,o),
(607,351,o),
(514,367,c),
(607,388,o),
(684,452,o),
(684,559,cs),
(684,657,o),
(608,714,o),
(486,714,cs),
(135,714,l),
(9,0,l)
);
},
{
closed = 1;
nodes = (
(261,292,l),
(403,292,ls),
(432,292,o),
(452,268,o),
(452,236,cs),
(452,185,o),
(411,154,o),
(369,154,cs),
(237,154,l)
);
},
{
closed = 1;
nodes = (
(308,560,l),
(435,560,ls),
(468,560,o),
(481,532,o),
(481,509,cs),
(481,471,o),
(455,435,o),
(404,435,cs),
(286,435,l)
);
}
);
width = 694;
},
{
layerId = "974B3D67-9F33-42CE-B7A8-3E18495C5B4F";
shapes = (
{
closed = 1;
nodes = (
(577,0,ls),
(744,0,o),
(863,80,o),
(863,213,cs),
(863,285,o),
(817,350,o),
(714,369,c),
(817,383,o),
(893,448,o),
(893,548,cs),
(893,656,o),
(816,714,o),
(696,714,cs),
(138,714,l),
(12,0,l)
);
},
{
closed = 1;
nodes = (
(284,288,l),
(587,288,ls),
(617,288,o),
(637,268,o),
(637,235,cs),
(637,183,o),
(589,165,o),
(555,165,cs),
(263,165,l)
);
},
{
closed = 1;
nodes = (
(330,549,l),
(614,549,ls),
(652,549,o),
(670,523,o),
(670,499,cs),
(670,461,o),
(643,437,o),
(592,437,cs),
(311,437,l)
);
}
);
width = 901;
}
);
metricLeft = H;
unicode = 66;
},
{
glyphname = C;
kernLeft = O;
kernRight = C;
lastChange = "2024-12-06 10:39:41 +0000";
layers = (
{
anchors = (
{
name = bottom;
pos = (219,0);
},
{
name = top;
pos = (343,714);
}
);
guides = (
{
pos = (439,202);
},
{
pos = (427,515);
}
);
layerId = "3A742E95-6392-47DA-98D0-C770A5889573";
shapes = (
{
closed = 1;
nodes = (
(358,-12,o),
(432,89,o),
(460,202,c),
(398,202,l),
(380,130,o),
(321,38,o),
(235,38,cs),
(145,38,o),
(110,116,o),
(110,234,cs),
(110,363,o),
(161,676,o),
(342,676,cs),
(432,676,o),
(454,584,o),
(454,515,c),
(514,515,l),
(518,625,o),
(472,726,o),
(343,726,cs),
(113,726,o),
(49,390,o),
(49,232,cs),
(49,86,o),
(105,-12,o),
(229,-12,cs)
);
}
);
width = 513;
},
{
anchors = (
{
name = bottom;
pos = (346,0);
},
{
name = top;
pos = (453,714);
}
);
layerId = "DA512DF4-6FCD-4164-96D6-05DE8967F50A";
shapes = (
{
closed = 1;
nodes = (
(512,-13,o),
(634,65,o),
(687,214,c),
(589,214,l),
(552,135,o),
(484,67,o),
(368,67,cs),
(236,67,o),
(167,180,o),
(167,309,cs),
(167,498,o),
(273,647,o),
(440,647,cs),
(547,647,o),
(600,578,o),
(618,504,c),
(715,504,l),
(702,619,o),
(611,727,o),
(445,727,cs),
(222,727,o),
(69,534,o),
(69,308,cs),
(69,117,o),
(187,-13,o),
(367,-13,cs)
);
}
);
width = 747;
},
{
anchors = (
{
name = bottom;
pos = (228,0);
},
{
name = top;
pos = (350,714);
}
);
guides = (
{
angle = 180;
pos = (399,507);
},
{
angle = 180;
pos = (356,210);
},
{
pos = (276,658);
},
{
pos = (276,56);
}
);
layerId = "0A603DC7-0F9F-4E29-AC1C-80B527B5555F";
shapes = (
{
closed = 1;
nodes = (
(370,-12,o),
(450,86,o),
(480,210,c),
(392,210,l),
(375,140,o),
(322,56,o),
(244,56,cs),
(166,56,o),
(135,124,o),
(135,232,cs),
(135,348,o),
(181,658,o),
(347,658,cs),
(429,658,o),
(446,571,o),
(446,507,c),
(531,507,l),
(536,627,o),
(481,726,o),
(350,726,cs),
(112,726,o),
(48,394,o),
(48,234,cs),
(48,83,o),
(111,-12,o),
(237,-12,cs)
);
}
);
width = 528;
},
{
anchors = (
{
name = bottom;
pos = (331,0);
},
{
name = top;
pos = (434,714);
}
);
guides = (
{
pos = (566,502);
},
{
pos = (571,202);
}
);
layerId = "38E57698-3E0D-47EE-AD12-065B63128021";
shapes = (
{
closed = 1;
nodes = (
(492,-12,o),
(594,60,o),
(649,206,c),
(586,206,l),
(552,128,o),
(478,42,o),
(354,42,cs),
(218,42,o),
(134,149,o),
(134,311,cs),
(134,508,o),
(257,672,o),
(422,672,cs),
(537,672,o),
(604,594,o),
(620,512,c),
(684,512,l),
(667,640,o),
(561,726,o),
(427,726,cs),
(211,726,o),
(71,534,o),
(71,307,cs),
(71,117,o),
(177,-12,o),
(349,-12,cs)
);
}
);
width = 712;
},
{
anchors = (
{
name = bottom;
pos = (447,0);
},
{
name = top;
pos = (539,714);
}
);
background = {
shapes = (
{
closed = 1;
nodes = (
(740,-14,o),
(929,159,o),
(929,400,cs),
(929,596,o),
(762,728,o),
(525,728,cs),
(251,728,o),
(63,555,o),
(63,316,cs),
(63,119,o),
(224,-14,o),
(460,-14,cs)
);
},
{
closed = 1;
nodes = (
(269,44,o),
(137,151,o),
(137,320,cs),
(137,528,o),
(302,670,o),
(521,670,cs),
(717,670,o),
(856,564,o),
(856,397,cs),
(856,184,o),
(684,44,o),
(464,44,cs)
);
}
);
};
guides = (
{
pos = (801,472);
},
{
pos = (795,228);
}
);
layerId = "7B4F6316-DEA5-4C61-853A-FCC6E55FB2E9";
shapes = (
{
closed = 1;
nodes = (
(670,-14,o),
(819,79,o),
(876,221,c),
(799,221,l),
(747,118,o),
(621,44,o),
(464,44,cs),
(269,44,o),
(137,151,o),
(137,320,cs),
(137,528,o),
(302,670,o),
(521,670,cs),
(698,670,o),
(819,596,o),
(839,493,c),
(917,493,l),
(898,631,o),
(743,728,o),
(525,728,cs),
(251,728,o),
(63,555,o),
(63,316,cs),
(63,119,o),
(224,-14,o),
(460,-14,cs)
);
}
);
width = 928;
},
{
anchors = (
{
name = bottom;
pos = (445,0);
},
{
name = top;
pos = (544,714);
}
);
layerId = "FF0E7F91-EBB7-4227-9826-320229507C52";
shapes = (
{
closed = 1;
nodes = (
(677,-14,o),
(831,80,o),
(888,228,c),
(779,228,l),
(731,134,o),
(614,66,o),
(467,66,cs),
(286,66,o),
(161,164,o),
(161,323,cs),
(161,516,o),
(315,648,o),
(521,648,cs),
(689,648,o),
(799,578,o),
(818,486,c),
(926,486,l),
(908,624,o),
(758,728,o),
(529,728,cs),
(253,728,o),
(57,562,o),
(57,318,cs),
(57,119,o),
(219,-14,o),
(461,-14,cs)
);
}
);
width = 933;
},
{
anchors = (
{
name = bottom;
pos = (245,0);
},
{
name = top;
pos = (359,714);
}
);
layerId = "5974A488-68BA-4ECA-A629-BBB8F5E8E8D7";
shapes = (
{
closed = 1;
nodes = (
(400,-13,o),
(505,74,o),
(545,239,c),
(348,239,l),
(332,184,o),
(307,140,o),
(265,140,cs),
(238,140,o),
(220,156,o),
(220,224,cs),
(220,283,o),
(248,574,o),
(350,574,cs),
(395,574,o),
(392,517,o),
(389,480,c),
(586,480,l),
(596,637,o),
(500,727,o),
(362,727,cs),
(87,727,o),
(25,414,o),
(25,245,cs),
(25,69,o),
(114,-13,o),
(251,-13,cs)
);
}
);
width = 563;
},
{
anchors = (
{
name = bottom;
pos = (341,0);
},
{
name = top;
pos = (458,714);
}
);
layerId = "406F15BE-EF31-460D-8EE8-85AD72A74E98";
shapes = (
{
closed = 1;
nodes = (
(528,-13,o),
(674,67,o),
(731,253,c),
(522,253,l),
(488,170,o),
(431,148,o),
(381,148,cs),
(309,148,o),
(251,201,o),
(251,310,cs),
(251,441,o),
(314,566,o),
(437,566,cs),
(496,566,o),
(538,531,o),
(548,465,c),
(757,465,l),
(754,614,o),
(629,727,o),
(449,727,cs),
(204,727,o),
(49,534,o),
(49,304,cs),
(49,104,o),
(180,-13,o),
(371,-13,cs)
);
}
);
width = 765;
},
{
anchors = (
{
name = bottom;
pos = (442,0);
},
{
name = top;
pos = (567,714);
}
);
layerId = "974B3D67-9F33-42CE-B7A8-3E18495C5B4F";
shapes = (
{
closed = 1;
nodes = (
(711,-14,o),
(888,84,o),
(942,261,c),
(706,261,l),
(671,195,o),
(590,153,o),
(487,153,cs),
(357,153,o),
(269,217,o),
(269,336,cs),
(269,467,o),
(373,561,o),
(529,561,cs),
(654,561,o),
(721,506,o),
(735,453,c),
(970,453,l),
(953,595,o),
(824,728,o),
(552,728,cs),
(266,728,o),
(39,590,o),
(39,325,cs),
(39,120,o),
(205,-14,o),
(472,-14,cs)
);
}
);
width = 961;
}
);
metricLeft = O;
metricRight = O;
unicode = 67;
},
{
glyphname = D;
kernLeft = H;
kernRight = O;
lastChange = "2024-12-06 10:39:41 +0000";
layers = (
{
anchors = (
{
name = bottom;
pos = (289,0);
},
{
name = center;
pos = (170,363);
},
{
name = top;
pos = (331,714);
}
);
layerId = "3A742E95-6392-47DA-98D0-C770A5889573";
shapes = (
{
closed = 1;
nodes = (
(177,0,ls),
(427,0,o),
(506,273,o),
(506,451,cs),
(506,610,o),
(441,714,o),
(300,714,cs),
(163,714,l),
(37,0,l)
);
},
{
closed = 1;
nodes = (
(212,666,l),
(291,666,ls),
(398,666,o),
(446,587,o),
(446,453,cs),
(446,304,o),
(382,48,o),
(179,48,cs),
(103,48,l)
);
}
);
width = 525;
},
{
anchors = (
{
name = bottom;
pos = (306,0);
},
{
name = center;
pos = (204,357);
},
{
name = top;
pos = (393,714);
}
);
layerId = "DA512DF4-6FCD-4164-96D6-05DE8967F50A";
shapes = (
{
closed = 1;
nodes = (
(290,0,ls),
(527,0,o),
(690,196,o),
(690,420,cs),
(690,591,o),
(587,714,o),
(408,714,cs),
(165,714,l),
(40,0,l)
);
},
{
closed = 1;
nodes = (
(246,635,l),
(395,635,ls),
(521,635,o),
(592,551,o),
(592,419,cs),
(592,253,o),
(484,79,o),
(290,79,cs),
(148,79,l)
);
}
);
width = 720;
},
{
anchors = (
{
name = bottom;
pos = (293,0);
},
{
name = center;
pos = (169,363);
},
{
name = top;
pos = (333,714);
}
);
background = {
shapes = (
{
closed = 1;
nodes = (
(242,0,ls),
(420,0,o),
(506,144,o),
(506,357,cs),
(506,570,o),
(420,714,o),
(242,714,cs),
(84,714,l),
(84,0,l)
);
},
{
closed = 1;
nodes = (
(168,647,l),
(237,647,ls),
(358,647,o),
(418,541,o),
(418,357,cs),
(418,174,o),
(358,67,o),
(237,67,cs),
(168,67,l)
);
}
);
};
layerId = "0A603DC7-0F9F-4E29-AC1C-80B527B5555F";
shapes = (
{
closed = 1;
nodes = (
(187,0,ls),
(435,0,o),
(521,261,o),
(521,447,cs),
(521,609,o),
(452,714,o),
(308,714,cs),
(155,714,l),
(29,0,l)
);
},
{
closed = 1;
nodes = (
(227,647,l),
(296,647,ls),
(391,647,o),
(435,575,o),
(435,451,cs),
(435,309,o),
(376,67,o),
(191,67,cs),
(125,67,l)
);
}
);
width = 537;
},
{
anchors = (
{
name = bottom;
pos = (276,0);
},
{
name = center;
pos = (193,357);
},
{
name = top;
pos = (398,714);
}
);
layerId = "38E57698-3E0D-47EE-AD12-065B63128021";
shapes = (
{
closed = 1;
nodes = (
(277,0,ls),
(520,0,o),
(667,204,o),
(667,412,cs),
(667,591,o),
(570,714,o),
(401,714,cs),
(171,714,l),
(46,0,l)
);
},
{
closed = 1;
nodes = (
(223,661,l),
(389,661,ls),
(531,661,o),
(604,557,o),
(604,412,cs),
(604,234,o),
(486,53,o),
(275,53,cs),
(116,53,l)
);
}
);
width = 701;
},
{
anchors = (
{
name = bottom;
pos = (473,0);
},
{
name = center;
pos = (243,357);
},
{
name = top;
pos = (505,714);
}
);
layerId = "7B4F6316-DEA5-4C61-853A-FCC6E55FB2E9";
shapes = (
{
closed = 1;
nodes = (
(499,0,ls),
(743,0,o),
(894,204,o),
(894,412,cs),
(894,590,o),
(791,714,o),
(621,714,cs),
(163,714,l),
(37,0,l)
);
},
{
closed = 1;
nodes = (
(222,657,l),
(606,657,ls),
(746,657,o),
(820,557,o),
(820,413,cs),
(820,236,o),
(699,57,o),
(492,57,cs),
(116,57,l)
);
}
);
width = 919;
},
{
anchors = (
{
name = bottom;
pos = (459,0);
},
{
name = center;
pos = (243,357);
},
{
name = top;
pos = (510,714);
}
);
layerId = "FF0E7F91-EBB7-4227-9826-320229507C52";
shapes = (
{
closed = 1;
nodes = (
(500,0,ls),
(751,0,o),
(907,197,o),
(907,409,cs),
(907,592,o),
(795,714,o),
(621,714,cs),
(158,714,l),
(32,0,l)
);
},
{
closed = 1;
nodes = (
(244,634,l),
(600,634,ls),
(727,634,o),
(803,546,o),
(803,407,cs),
(803,238,o),
(682,80,o),
(493,80,cs),
(145,80,l)
);
}
);
width = 927;
},
{
anchors = (
{
name = bottom;
pos = (304,0);
},
{
name = center;
pos = (161,363);
},
{
name = top;
pos = (334,714);
}
);
layerId = "5974A488-68BA-4ECA-A629-BBB8F5E8E8D7";
shapes = (
{
closed = 1;
nodes = (
(227,0,ls),
(465,0,o),
(583,210,o),
(583,432,cs),
(583,604,o),
(494,714,o),
(339,714,cs),
(118,714,l),
(-8,0,l)
);
},
{
closed = 1;
nodes = (
(285,561,l),
(310,561,ls),
(355,561,o),
(384,522,o),
(384,444,cs),
(384,332,o),
(344,153,o),
(236,153,cs),
(213,153,l)
);
}
);
width = 577;
},
{
anchors = (
{
name = bottom;
pos = (277,0);
},
{
name = center;
pos = (207,357);
},
{
name = top;
pos = (404,714);
}
);
layerId = "406F15BE-EF31-460D-8EE8-85AD72A74E98";
shapes = (
{
closed = 1;
nodes = (
(323,0,ls),
(572,0,o),
(739,185,o),
(739,406,cs),
(739,598,o),
(610,714,o),
(438,714,cs),
(135,714,l),
(9,0,l)
);
},
{
closed = 1;
nodes = (
(307,555,l),
(405,555,ls),
(464,555,o),
(534,521,o),
(534,401,cs),
(534,275,o),
(456,159,o),
(324,159,cs),
(238,159,l)
);
}
);
width = 752;
},
{
anchors = (
{
name = bottom;
pos = (399,0);
},
{
name = center;
pos = (244,357);
},
{
name = top;
pos = (532,714);
}
);
layerId = "974B3D67-9F33-42CE-B7A8-3E18495C5B4F";
shapes = (
{
closed = 1;
nodes = (
(507,0,ls),
(783,0,o),
(963,168,o),
(963,397,cs),
(963,599,o),
(814,714,o),
(621,714,cs),
(138,714,l),
(12,0,l)
);
},
{
closed = 1;
nodes = (
(329,547,l),
(574,547,ls),
(651,547,o),
(735,502,o),
(735,383,cs),
(735,245,o),
(617,167,o),
(497,167,cs),
(263,167,l)
);
}
);
width = 965;
}
);
metricLeft = H;
metricRight = O;
unicode = 68;
},
{
glyphname = E;
kernLeft = H;
kernRight = E;
lastChange = "2024-12-06 10:39:41 +0000";
layers = (
{
anchors = (
{
name = bottom;
pos = (200,0);
},
{
name = ogonek;
pos = (363,0);
},
{
name = top;
pos = (326,714);
},
{
name = topleft;
pos = (95,714);
}
);
layerId = "3A742E95-6392-47DA-98D0-C770A5889573";
shapes = (
{
closed = 1;
nodes = (
(363,0,l),
(372,48,l),
(104,48,l),
(157,356,l),
(389,356,l),
(397,403,l),
(166,403,l),
(212,666,l),
(480,666,l),
(489,714,l),
(163,714,l),
(37,0,l)
);
}
);
width = 454;
},
{
anchors = (
{
name = bottom;
pos = (280,0);
},
{
name = ogonek;
pos = (520,0);
},
{
name = top;
pos = (406,714);
},
{
name = topleft;
pos = (110,714);
}
);
layerId = "DA512DF4-6FCD-4164-96D6-05DE8967F50A";
shapes = (
{
closed = 1;
nodes = (
(520,0,l),
(533,79,l),
(148,79,l),
(193,336,l),
(546,336,l),
(560,412,l),
(207,412,l),
(246,635,l),
(632,635,l),
(647,714,l),
(165,714,l),
(40,0,l)
);
}
);
width = 622;
},
{
anchors = (
{
name = bottom;
pos = (201,0);
},
{
name = ogonek;
pos = (372,0);
},
{
name = top;
pos = (327,714);
},
{
name = topleft;
pos = (97,714);
}
);
background = {
shapes = (
{
closed = 1;
nodes = (
(419,0,l),
(419,67,l),
(158,67,l),
(158,343,l),
(382,343,l),
(382,407,l),
(158,407,l),
(158,647,l),
(419,647,l),
(419,714,l),
(74,714,l),
(74,0,l)
);
}
);
};
layerId = "0A603DC7-0F9F-4E29-AC1C-80B527B5555F";
shapes = (
{
closed = 1;
nodes = (
(372,0,l),
(384,67,l),
(126,67,l),
(174,343,l),
(395,343,l),
(407,407,l),
(185,407,l),
(227,647,l),
(485,647,l),
(498,714,l),
(155,714,l),
(29,0,l)
);
}
);
width = 456;
},
{
anchors = (
{
name = bottom;
pos = (272,0);
},
{
name = ogonek;
pos = (500,0);
},
{
name = top;
pos = (399,714);
},
{
name = topleft;
pos = (118,714);
}
);
layerId = "38E57698-3E0D-47EE-AD12-065B63128021";
shapes = (
{
closed = 1;
nodes = (
(500,0,l),
(509,53,l),
(115,53,l),
(169,356,l),
(529,356,l),
(538,406,l),
(178,406,l),
(223,661,l),
(617,661,l),
(626,714,l),
(171,714,l),
(45,0,l)
);
}
);
width = 610;
},
{
anchors = (
{
name = bottom;
pos = (349,0);
},
{
name = ogonek;
pos = (661,0);
},
{
name = top;
pos = (475,714);
},
{
name = topleft;
pos = (101,714);
}
);
layerId = "7B4F6316-DEA5-4C61-853A-FCC6E55FB2E9";
shapes = (
{
closed = 1;
nodes = (
(661,0,l),
(671,57,l),
(116,57,l),
(166,340,l),
(680,340,l),
(691,396,l),
(176,396,l),
(222,657,l),
(777,657,l),
(787,714,l),
(163,714,l),
(37,0,l)
);
}
);
width = 770;
},
{
anchors = (
{
name = bottom;
pos = (354,0);
},
{
name = ogonek;
pos = (675,0);
},
{
name = top;
pos = (480,714);
},
{
name = topleft;
pos = (102,714);
}
);
background = {
shapes = (
{
closed = 1;
nodes = (
(718,0,l),
(718,80,l),
(175,80,l),
(175,327,l),
(677,327,l),
(677,405,l),
(175,405,l),
(175,634,l),
(718,634,l),
(718,714,l),
(75,714,l),
(75,0,l)
);
}
);
};
layerId = "FF0E7F91-EBB7-4227-9826-320229507C52";
shapes = (
{
closed = 1;
nodes = (
(675,0,l),
(690,80,l),
(145,80,l),
(189,327,l),
(694,327,l),
(707,405,l),
(203,405,l),
(244,634,l),
(788,634,l),
(802,714,l),
(158,714,l),
(32,0,l)
);
}
);
width = 780;
},
{
anchors = (
{
name = bottom;
pos = (198,0);
},
{
name = ogonek;
pos = (404,0);
},
{
name = top;
pos = (324,714);
},
{
name = topleft;
pos = (103,714);
}
);
layerId = "5974A488-68BA-4ECA-A629-BBB8F5E8E8D7";
shapes = (
{
closed = 1;
nodes = (
(404,0,l),
(431,153,l),
(214,153,l),
(237,281,l),
(416,281,l),
(442,431,l),
(263,431,l),
(285,561,l),
(503,561,l),
(530,714,l),
(118,714,l),
(-8,0,l)
);
}
);
width = 475;
},
{
anchors = (
{
name = bottom;
pos = (279,0);
},
{
name = ogonek;
pos = (548,0);
},
{
name = top;
pos = (405,714);
},
{
name = topleft;
pos = (74,714);
}
);
layerId = "406F15BE-EF31-460D-8EE8-85AD72A74E98";
shapes = (
{
closed = 1;
nodes = (
(548,0,l),
(575,159,l),
(238,159,l),
(258,279,l),
(559,279,l),
(587,433,l),
(287,433,l),
(308,555,l),
(647,555,l),
(674,714,l),
(136,714,l),
(9,0,l)
);
}
);
width = 633;
},
{
anchors = (
{
name = bottom;
pos = (374,0);
},
{
name = ogonek;
pos = (736,0);
},
{
name = top;
pos = (501,714);
},
{
name = topleft;
pos = (104,714);
}
);
layerId = "974B3D67-9F33-42CE-B7A8-3E18495C5B4F";
shapes = (
{
closed = 1;
nodes = (
(736,0,l),
(766,167,l),
(264,167,l),
(283,278,l),
(747,278,l),
(774,437,l),
(311,437,l),
(330,547,l),
(832,547,l),
(863,714,l),
(139,714,l),
(12,0,l)
);
}
);
width = 823;
}
);
metricLeft = H;
unicode = 69;
},
{
glyphname = F;
kernLeft = H;
kernRight = F;
lastChange = "2025-01-20 20:54:38 +0000";
layers = (
{
layerId = "3A742E95-6392-47DA-98D0-C770A5889573";
shapes = (
{
closed = 1;
nodes = (
(95,0,l),
(158,357,l),
(392,357,l),
(400,403,l),
(166,403,l),
(212,666,l),
(474,666,l),
(483,714,l),
(163,714,l),
(37,0,l)
);
}
);
width = 435;
},
{
layerId = "DA512DF4-6FCD-4164-96D6-05DE8967F50A";
shapes = (
{
closed = 1;
nodes = (
(134,0,l),
(193,334,l),
(548,334,l),
(562,410,l),
(207,410,l),
(246,635,l),
(628,635,l),
(643,714,l),
(165,714,l),
(40,0,l)
);
}
);
width = 597;
},
{
background = {
shapes = (
{
closed = 1;
nodes = (
(158,0,l),
(158,340,l),
(385,340,l),
(385,405,l),
(158,405,l),
(158,647,l),
(414,647,l),
(414,714,l),
(74,714,l),
(74,0,l)
);
}
);
};
layerId = "0A603DC7-0F9F-4E29-AC1C-80B527B5555F";
shapes = (
{
closed = 1;
nodes = (
(113,0,l),
(173,340,l),
(397,340,l),
(408,405,l),
(185,405,l),
(227,647,l),
(480,647,l),
(493,714,l),
(155,714,l),
(29,0,l)
);
}
);
width = 440;
},
{
layerId = "38E57698-3E0D-47EE-AD12-065B63128021";
shapes = (
{
closed = 1;
nodes = (
(106,0,l),
(169,356,l),
(532,356,l),
(541,406,l),
(178,406,l),
(223,661,l),
(614,661,l),
(623,714,l),
(171,714,l),
(45,0,l)
);
}
);
width = 583;
},
{
layerId = "7B4F6316-DEA5-4C61-853A-FCC6E55FB2E9";
shapes = (
{
closed = 1;
nodes = (
(106,0,l),
(168,350,l),
(687,350,l),
(697,406,l),
(177,406,l),
(222,657,l),
(769,657,l),
(779,714,l),
(163,714,l),
(37,0,l)
);
}
);
width = 746;
},
{
layerId = "FF0E7F91-EBB7-4227-9826-320229507C52";
shapes = (
{
closed = 1;
nodes = (
(132,0,l),
(191,334,l),
(698,334,l),
(711,411,l),
(203,411,l),
(244,634,l),
(780,634,l),
(795,714,l),
(158,714,l),
(32,0,l)
);
}
);
width = 758;
},
{
layerId = "5974A488-68BA-4ECA-A629-BBB8F5E8E8D7";
shapes = (
{
closed = 1;
nodes = (
(187,0,l),
(235,271,l),
(412,271,l),
(439,420,l),
(261,420,l),
(285,561,l),
(503,561,l),
(531,714,l),
(118,714,l),
(-8,0,l)
);
}
);
width = 463;
},
{
layerId = "406F15BE-EF31-460D-8EE8-85AD72A74E98";
shapes = (
{
closed = 1;
nodes = (
(209,0,l),
(257,269,l),
(565,269,l),
(592,422,l),
(285,422,l),
(308,555,l),
(643,555,l),
(671,714,l),
(136,714,l),
(9,0,l)
);
}
);
width = 616;
},
{
layerId = "974B3D67-9F33-42CE-B7A8-3E18495C5B4F";
shapes = (
{
closed = 1;
nodes = (
(234,0,l),
(280,266,l),
(739,266,l),
(767,424,l),
(309,424,l),
(330,547,l),
(828,547,l),
(859,714,l),
(139,714,l),
(12,0,l)
);
}
);
width = 810;
}
);
metricLeft = H;
unicode = 70;
},
{
glyphname = G;
kernLeft = O;
kernRight = G;
lastChange = "2024-12-06 10:39:41 +0000";
layers = (
{
anchors = (
{
name = bottom;
pos = (222,0);
},
{
name = top;
pos = (343,714);
}
);
guides = (
{
pos = (401,541);
}
);
layerId = "3A742E95-6392-47DA-98D0-C770A5889573";
shapes = (
{
closed = 1;
nodes = (
(293,-12,o),
(346,30,o),
(388,120,c),
(367,0,l),
(425,0,l),
(487,356,l),
(284,356,l),
(276,308,l),
(451,308,l),
(429,332,l),
(400,158,o),
(321,38,o),
(231,38,cs),
(145,38,o),
(110,116,o),
(110,234,cs),
(110,363,o),
(161,676,o),
(342,676,cs),
(419,676,o),
(451,613,o),
(452,541,c),
(512,541,l),
(516,647,o),
(456,726,o),
(343,726,cs),
(113,726,o),
(49,390,o),
(49,232,cs),
(49,86,o),
(102,-12,o),
(224,-12,cs)
);
}
);
width = 540;
},
{
anchors = (
{
name = bottom;
pos = (352,0);
},
{
name = top;
pos = (447,714);
}
);
layerId = "DA512DF4-6FCD-4164-96D6-05DE8967F50A";
shapes = (
{
closed = 1;
nodes = (
(441,-13,o),
(530,30,o),
(583,115,c),
(562,0,l),
(652,0,l),
(715,364,l),
(409,364,l),
(396,287,l),
(651,287,l),
(619,319,l),
(590,156,o),
(477,66,o),
(365,66,cs),
(233,66,o),
(166,170,o),
(166,308,cs),
(166,498,o),
(270,647,o),
(437,647,cs),
(544,647,o),
(597,586,o),
(614,517,c),
(712,517,l),
(699,627,o),
(598,727,o),
(437,727,cs),
(215,727,o),
(69,534,o),
(69,308,cs),
(69,117,o),
(179,-13,o),
(353,-13,cs)
);
}
);
width = 769;
},
{
anchors = (
{
name = bottom;
pos = (231,0);
},
{
name = top;
pos = (350,714);
}
);
background = {
shapes = (
{
closed = 1;
nodes = (
(345,-12,o),
(393,28,o),
(419,111,c),
(419,0,l),
(501,0,l),
(501,365,l),
(283,365,l),
(283,299,l),
(465,299,l),
(418,323,l),
(419,158,o),
(368,56,o),
(283,56,cs),
(180,56,o),
(141,182,o),
(141,358,cs),
(141,534,o),
(180,658,o),
(284,658,cs),
(353,658,o),
(393,598,o),
(405,529,c),
(492,529,l),
(478,653,o),
(402,726,o),
(284,726,cs),
(128,726,o),
(53,589,o),
(53,358,cs),
(53,128,o),
(127,-12,o),
(267,-12,cs)
);
}
);
};
layerId = "0A603DC7-0F9F-4E29-AC1C-80B527B5555F";
shapes = (
{
closed = 1;
nodes = (
(292,-12,o),
(344,26,o),
(385,110,c),
(365,0,l),
(443,0,l),
(506,365,l),
(293,365,l),
(282,299,l),
(453,299,l),
(422,334,l),
(395,165,o),
(324,56,o),
(241,56,cs),
(166,56,o),
(135,124,o),
(135,232,cs),
(135,348,o),
(181,658,o),
(347,658,cs),
(417,658,o),
(444,596,o),
(445,529,c),
(530,529,l),
(534,643,o),
(468,726,o),
(350,726,cs),
(112,726,o),
(48,394,o),
(48,234,cs),
(48,83,o),
(105,-12,o),
(224,-12,cs)
);
}
);
width = 549;
},
{
anchors = (
{
name = bottom;
pos = (345,0);
},
{
name = top;
pos = (439,714);
}
);
guides = (
{
pos = (369,341);
},
{
angle = 180;
pos = (347,289);
},
{
angle = 79.3803;
pos = (546,0);
},
{
angle = 180;
pos = (577,515);
}
);
layerId = "38E57698-3E0D-47EE-AD12-065B63128021";
shapes = (
{
closed = 1;
nodes = (
(457,-12,o),
(528,43,o),
(579,113,c),
(557,0,l),
(618,0,l),
(680,348,l),
(398,348,l),
(389,295,l),
(643,295,l),
(621,320,l),
(582,128,o),
(471,42,o),
(354,42,cs),
(218,42,o),
(134,149,o),
(134,311,cs),
(134,509,o),
(258,672,o),
(426,672,cs),
(545,672,o),
(610,600,o),
(627,525,c),
(692,525,l),
(674,645,o),
(569,726,o),
(430,726,cs),
(212,726,o),
(71,536,o),
(71,307,cs),
(71,118,o),
(181,-12,o),
(345,-12,cs)
);
}
);
width = 744;
},
{
anchors = (
{
name = bottom;
pos = (437,0);
},
{
name = top;
pos = (539,714);
}
);
guides = (
{
angle = 80;
pos = (452,296);
}
);
layerId = "7B4F6316-DEA5-4C61-853A-FCC6E55FB2E9";
shapes = (
{
closed = 1;
nodes = (
(614,-14,o),
(727,69,o),
(785,162,c),
(757,0,l),
(824,0,l),
(887,359,l),
(471,359,l),
(461,302,l),
(845,302,l),
(819,321,l),
(784,161,o),
(639,43,o),
(441,44,cs),
(267,45,o),
(137,151,o),
(137,320,cs),
(137,528,o),
(300,670,o),
(521,670,cs),
(715,670,o),
(811,592,o),
(829,510,c),
(905,510,l),
(886,627,o),
(757,728,o),
(525,728,cs),
(251,728,o),
(63,555,o),
(63,316,cs),
(63,119,o),
(222,-14,o),
(437,-14,cs)
);
}
);
width = 949;
},
{
anchors = (
{
name = bottom;
pos = (439,0);
},
{
name = top;
pos = (544,714);
}
);
guides = (
{
angle = 80;
pos = (471,288);
}
);
layerId = "FF0E7F91-EBB7-4227-9826-320229507C52";
shapes = (
{
closed = 1;
nodes = (
(596,-14,o),
(707,58,o),
(769,151,c),
(743,0,l),
(838,0,l),
(904,367,l),
(485,367,l),
(471,288,l),
(835,288,l),
(799,315,l),
(763,169,o),
(629,64,o),
(450,65,cs),
(285,66,o),
(162,164,o),
(162,323,cs),
(162,517,o),
(314,649,o),
(522,649,cs),
(700,649,o),
(792,579,o),
(811,500,c),
(918,500,l),
(898,626,o),
(766,728,o),
(529,728,cs),
(253,728,o),
(58,562,o),
(58,318,cs),
(58,119,o),
(218,-14,o),
(428,-14,cs)
);
}
);
width = 958;
},
{
anchors = (
{
name = bottom;
pos = (248,0);
},
{
name = top;
pos = (359,714);
}
);
layerId = "5974A488-68BA-4ECA-A629-BBB8F5E8E8D7";
shapes = (
{
closed = 1;
nodes = (
(267,-13,o),
(314,9,o),
(350,65,c),
(336,0,l),
(499,0,l),
(568,392,l),
(312,392,l),
(289,259,l),
(440,259,l),
(379,379,l),
(348,189,o),
(314,140,o),
(265,140,cs),
(238,140,o),
(220,156,o),
(220,224,cs),
(220,283,o),
(248,574,o),
(349,574,cs),
(388,574,o),
(394,535,o),
(393,498,c),
(585,498,l),
(591,638,o),
(501,727,o),
(362,727,cs),
(88,727,o),
(25,414,o),
(25,245,cs),
(25,69,o),
(98,-13,o),
(205,-13,cs)
);
}
);
width = 578;
},
{
anchors = (
{
name = bottom;
pos = (336,0);
},
{
name = top;
pos = (464,714);
}
);
layerId = "406F15BE-EF31-460D-8EE8-85AD72A74E98";
shapes = (
{
closed = 1;
nodes = (
(405,-13,o),
(471,13,o),
(523,76,c),
(510,0,l),
(676,0,l),
(746,392,l),
(415,392,l),
(390,247,l),
(608,247,l),
(547,343,l),
(523,179,o),
(436,148,o),
(381,148,cs),
(309,148,o),
(251,201,o),
(251,310,cs),
(251,441,o),
(313,566,o),
(437,566,cs),
(486,566,o),
(521,544,o),
(538,498,c),
(753,498,l),
(742,613,o),
(646,727,o),
(451,727,cs),
(204,727,o),
(49,534,o),
(49,304,cs),
(49,104,o),
(171,-13,o),
(332,-13,cs)
);
}
);
width = 772;
},
{
anchors = (
{
name = bottom;
pos = (447,0);
},
{
name = top;
pos = (563,714);
}
);
layerId = "974B3D67-9F33-42CE-B7A8-3E18495C5B4F";
shapes = (
{
closed = 1;
nodes = (
(522,-14,o),
(622,13,o),
(703,104,c),
(685,0,l),
(894,0,l),
(964,388,l),
(538,388,l),
(514,245,l),
(797,245,l),
(735,306,l),
(688,197,o),
(594,153,o),
(486,153,cs),
(356,153,o),
(269,220,o),
(269,338,cs),
(269,471,o),
(374,561,o),
(529,561,cs),
(638,561,o),
(712,526,o),
(735,479,c),
(971,479,l),
(941,623,o),
(802,728,o),
(548,728,cs),
(262,728,o),
(39,590,o),
(39,325,cs),
(39,118,o),
(200,-14,o),
(397,-14,cs)
);
}
);
width = 996;
}
);
metricLeft = O;
unicode = 71;
},
{
glyphname = H;
kernLeft = H;
kernRight = H;
lastChange = "2024-12-06 10:39:41 +0000";
layers = (
{
anchors = (
{
name = bottom;
pos = (222,0);
},
{
name = center;
pos = (317,537);
},
{
name = top;
pos = (348,714);
},
{
name = topleft;
pos = (102,714);
}
);
layerId = "3A742E95-6392-47DA-98D0-C770A5889573";
shapes = (
{
closed = 1;
nodes = (
(95,0,l),
(156,348,l),
(412,348,l),
(351,0,l),
(409,0,l),
(535,714,l),
(477,714,l),
(422,396,l),
(166,396,l),
(221,714,l),
(163,714,l),
(37,0,l)
);
}
);
width = 536;
},
{
anchors = (
{
name = bottom;
pos = (313,0);
},
{
name = center;
pos = (409,544);
},
{
name = top;
pos = (439,714);
},
{
name = topleft;
pos = (112,714);
}
);
layerId = "DA512DF4-6FCD-4164-96D6-05DE8967F50A";
shapes = (
{
closed = 1;
nodes = (
(133,0,l),
(191,328,l),
(550,328,l),
(492,0,l),
(587,0,l),
(713,714,l),
(618,714,l),
(564,408,l),
(206,408,l),
(260,714,l),
(165,714,l),
(39,0,l)
);
}
);
width = 716;
},
{
anchors = (
{
name = bottom;
pos = (227,0);
},
{
name = center;
pos = (322,540);
},
{
name = top;
pos = (352,714);
},
{
name = topleft;
pos = (100,714);
}
);
background = {
shapes = (
{
closed = 1;
nodes = (
(168,0,l),
(168,338,l),
(397,338,l),
(397,0,l),
(480,0,l),
(480,714,l),
(397,714,l),
(397,404,l),
(168,404,l),
(168,714,l),
(84,714,l),
(84,0,l)
);
}
);
};
layerId = "0A603DC7-0F9F-4E29-AC1C-80B527B5555F";
shapes = (
{
closed = 1;
nodes = (
(113,0,l),
(172,338,l),
(401,338,l),
(341,0,l),
(425,0,l),
(551,714,l),
(467,714,l),
(413,404,l),
(185,404,l),
(239,714,l),
(155,714,l),
(29,0,l)
);
}
);
width = 544;
},
{
anchors = (
{
name = bottom;
pos = (305,0);
},
{
name = center;
pos = (401,543);
},
{
name = top;
pos = (432,714);
},
{
name = topleft;
pos = (106,714);
}
);
layerId = "38E57698-3E0D-47EE-AD12-065B63128021";
shapes = (
{
closed = 1;
nodes = (
(106,0,l),
(167,345,l),
(565,345,l),
(504,0,l),
(565,0,l),
(692,714,l),
(630,714,l),
(574,398,l),
(177,398,l),
(233,714,l),
(171,714,l),
(45,0,l)
);
}
);
width = 701;
},
{
anchors = (
{
name = bottom;
pos = (390,0);
},
{
name = center;
pos = (485,538);
},
{
name = top;
pos = (516,714);
},
{
name = topleft;
pos = (94,714);
}
);
layerId = "7B4F6316-DEA5-4C61-853A-FCC6E55FB2E9";
shapes = (
{
closed = 1;
nodes = (
(106,0,l),
(166,341,l),
(733,341,l),
(673,0,l),
(743,0,l),
(869,714,l),
(800,714,l),
(744,398,l),
(176,398,l),
(233,714,l),
(163,714,l),
(37,0,l)
);
}
);
width = 870;
},
{
anchors = (
{
name = bottom;
pos = (396,0);
},
{
name = center;
pos = (492,542);
},
{
name = top;
pos = (522,714);
},
{
name = topleft;
pos = (98,714);
}
);
layerId = "FF0E7F91-EBB7-4227-9826-320229507C52";
shapes = (
{
closed = 1;
nodes = (
(132,0,l),
(189,327,l),
(718,327,l),
(660,0,l),
(760,0,l),
(886,714,l),
(786,714,l),
(732,407,l),
(203,407,l),
(258,714,l),
(158,714,l),
(32,0,l)
);
}
);
width = 882;
},
{
anchors = (
{
name = bottom;
pos = (241,0);
},
{
name = center;
pos = (340,554);
},
{
name = top;
pos = (366,714);
},
{
name = topleft;
pos = (86,714);
}
);
layerId = "5974A488-68BA-4ECA-A629-BBB8F5E8E8D7";
shapes = (
{
closed = 1;
nodes = (
(187,0,l),
(238,291,l),
(346,291,l),
(295,0,l),
(489,0,l),
(615,714,l),
(421,714,l),
(373,444,l),
(266,444,l),
(313,714,l),
(118,714,l),
(-8,0,l)
);
}
);
width = 571;
},
{
anchors = (
{
name = bottom;
pos = (319,0);
},
{
name = center;
pos = (416,550);
},
{
name = top;
pos = (446,714);
},
{
name = topleft;
pos = (109,714);
}
);
layerId = "406F15BE-EF31-460D-8EE8-85AD72A74E98";
shapes = (
{
closed = 1;
nodes = (
(210,0,l),
(258,273,l),
(477,273,l),
(429,0,l),
(628,0,l),
(755,714,l),
(555,714,l),
(506,437,l),
(287,437,l),
(337,714,l),
(136,714,l),
(9,0,l)
);
}
);
width = 729;
},
{
anchors = (
{
name = bottom;
pos = (420,0);
},
{
name = center;
pos = (520,559);
},
{
name = top;
pos = (547,714);
},
{
name = topleft;
pos = (112,714);
}
);
layerId = "974B3D67-9F33-42CE-B7A8-3E18495C5B4F";
shapes = (
{
closed = 1;
nodes = (
(234,0,l),
(282,271,l),
(655,271,l),
(607,0,l),
(828,0,l),
(955,714,l),
(733,714,l),
(686,439,l),
(312,439,l),
(361,714,l),
(139,714,l),
(12,0,l)
);
}
);
width = 932;
}
);
unicode = 72;
},
{
glyphname = I;
kernLeft = H;
kernRight = H;
lastChange = "2024-12-06 10:39:41 +0000";
layers = (
{
anchors = (
{
name = bottom;
pos = (66,0);
},
{
name = ogonek;
pos = (95,0);
},
{
name = top;
pos = (192,714);
},
{
name = topleft;
pos = (85,714);
}
);
layerId = "3A742E95-6392-47DA-98D0-C770A5889573";
shapes = (
{
closed = 1;
nodes = (
(95,0,l),
(221,714,l),
(163,714,l),
(37,0,l)
);
}
);
width = 222;
},
{
anchors = (
{
name = bottom;
pos = (86,0);
},
{
name = ogonek;
pos = (132,0);
},
{
name = top;
pos = (212,714);
},
{
name = topleft;
pos = (100,714);
}
);
layerId = "DA512DF4-6FCD-4164-96D6-05DE8967F50A";
shapes = (
{
closed = 1;
nodes = (
(133,0,l),
(259,714,l),
(165,714,l),
(39,0,l)
);
}
);
width = 262;
},
{
anchors = (
{
name = bottom;
pos = (71,0);
},
{
name = ogonek;
pos = (113,0);
},
{
name = top;
pos = (197,714);
},
{
name = topleft;
pos = (83,714);
}
);
layerId = "0A603DC7-0F9F-4E29-AC1C-80B527B5555F";
shapes = (
{
closed = 1;
nodes = (
(113,0,l),
(239,714,l),
(155,714,l),
(29,0,l)
);
}
);
width = 232;
},
{
anchors = (
{
name = bottom;
pos = (77,0);
},
{
name = ogonek;
pos = (107,0);
},
{
name = top;
pos = (202,714);
},
{
name = topleft;
pos = (107,714);
}
);
layerId = "38E57698-3E0D-47EE-AD12-065B63128021";
shapes = (
{
closed = 1;
nodes = (
(107,0,l),
(233,714,l),
(171,714,l),
(46,0,l)
);
}
);
width = 242;
},
{
anchors = (
{
name = bottom;
pos = (71,0);
},
{
name = ogonek;
pos = (106,0);
},
{
name = top;
pos = (198,714);
},
{
name = topleft;
pos = (100,714);
}
);
layerId = "7B4F6316-DEA5-4C61-853A-FCC6E55FB2E9";
shapes = (
{
closed = 1;
nodes = (
(106,0,l),
(233,714,l),
(163,714,l),
(37,0,l)
);
}
);
width = 234;
},
{
anchors = (
{
name = bottom;
pos = (82,0);
},
{
name = ogonek;
pos = (132,0);
},
{
name = top;
pos = (208,714);
},
{
name = topleft;
pos = (97,714);
}
);
layerId = "FF0E7F91-EBB7-4227-9826-320229507C52";
shapes = (
{
closed = 1;
nodes = (
(132,0,l),
(258,714,l),
(158,714,l),
(32,0,l)
);
}
);
width = 254;
},
{
anchors = (
{
name = bottom;
pos = (90,0);
},
{
name = ogonek;
pos = (187,0);
},
{
name = top;
pos = (216,714);
},
{
name = topleft;
pos = (71,714);
}
);
layerId = "5974A488-68BA-4ECA-A629-BBB8F5E8E8D7";
shapes = (
{
closed = 1;
nodes = (
(187,0,l),
(313,714,l),
(118,714,l),
(-8,0,l)
);
}
);
width = 269;
},
{
anchors = (
{
name = bottom;
pos = (109,0);
},
{
name = ogonek;
pos = (209,0);
},
{
name = top;
pos = (235,714);
},
{
name = topleft;
pos = (71,714);
}
);
layerId = "406F15BE-EF31-460D-8EE8-85AD72A74E98";
shapes = (
{
closed = 1;
nodes = (
(209,0,l),
(335,714,l),
(135,714,l),
(9,0,l)
);
}
);
width = 309;
},
{
anchors = (
{
name = bottom;
pos = (123,0);
},
{
name = ogonek;
pos = (234,0);
},
{
name = top;
pos = (250,714);
},
{
name = topleft;
pos = (85,714);
}
);
layerId = "974B3D67-9F33-42CE-B7A8-3E18495C5B4F";
shapes = (
{
closed = 1;
nodes = (
(234,0,l),
(361,714,l),
(139,714,l),
(12,0,l)
);
}
);
width = 338;
}
);
metricLeft = H;
metricRight = H;
unicode = 73;
},
{
glyphname = J;
kernLeft = J;
kernRight = J;
lastChange = "2024-12-06 10:39:41 +0000";
layers = (
{
anchors = (
{
name = bottom;
pos = (94,0);
},
{
name = top;
pos = (286,714);
}
);
guides = (
{
angle = 80;
pos = (315,714);
},
{
angle = 80;
pos = (257,714);
}
);
layerId = "3A742E95-6392-47DA-98D0-C770A5889573";
shapes = (
{
closed = 1;
nodes = (
(39,0,ls),
(137,0,o),
(197,45,o),
(212,129,cs),
(315,714,l),
(257,714,l),
(159,160,ls),
(146,86,o),
(114,48,o),
(32,48,cs),
(-13,48,l),
(-21,0,l)
);
}
);
width = 310;
},
{
anchors = (
{
name = bottom;
pos = (203,0);
},
{
name = top;
pos = (396,714);
}
);
layerId = "DA512DF4-6FCD-4164-96D6-05DE8967F50A";
shapes = (
{
closed = 1;
nodes = (
(118,0,ls),
(236,0,o),
(327,63,o),
(349,183,cs),
(443,714,l),
(349,714,l),
(259,197,ls),
(246,122,o),
(181,80,o),
(117,80,cs),
(-3,80,l),
(-16,0,l)
);
}
);
width = 441;
},
{
anchors = (
{
name = bottom;
pos = (92,0);
},
{
name = top;
pos = (295,714);
}
);
layerId = "0A603DC7-0F9F-4E29-AC1C-80B527B5555F";
shapes = (
{
closed = 1;
nodes = (
(48,0,ls),
(153,0,o),
(219,47,o),
(236,141,cs),
(337,714,l),
(253,714,l),
(157,174,ls),
(145,103,o),
(112,67,o),
(37,67,cs),
(-12,67,l),
(-23,0,l)
);
}
);
width = 324;
},
{
anchors = (
{
name = bottom;
pos = (197,0);
},
{
name = top;
pos = (379,714);
}
);
layerId = "38E57698-3E0D-47EE-AD12-065B63128021";
shapes = (
{
closed = 1;
nodes = (
(126,0,ls),
(223,0,o),
(293,61,o),
(310,158,cs),
(408,714,l),
(347,714,l),
(254,190,ls),
(239,105,o),
(192,53,o),
(115,53,cs),
(-5,53,l),
(-14,0,l)
);
}
);
width = 410;
},
{
anchors = (
{
name = bottom;
pos = (185,0);
},
{
name = top;
pos = (461,714);
}
);
layerId = "7B4F6316-DEA5-4C61-853A-FCC6E55FB2E9";
shapes = (
{
closed = 1;
nodes = (
(196,0,ls),
(299,0,o),
(379,54,o),
(400,168,cs),
(496,714,l),
(426,714,l),
(332,179,ls),
(320,114,o),
(266,57,o),
(186,57,cs),
(-14,57,l),
(-24,0,l)
);
}
);
width = 489;
},
{
anchors = (
{
name = bottom;
pos = (195,0);
},
{
name = top;
pos = (465,714);
}
);
guides = (
{
angle = 80;
pos = (-28,0);
}
);
layerId = "FF0E7F91-EBB7-4227-9826-320229507C52";
shapes = (
{
closed = 1;
nodes = (
(198,0,ls),
(313,0,o),
(399,57,o),
(420,176,cs),
(515,714,l),
(416,714,l),
(324,198,ls),
(313,132,o),
(259,80,o),
(181,80,cs),
(-14,80,l),
(-28,0,l)
);
}
);
width = 504;
},
{
anchors = (
{
name = bottom;
pos = (86,0);
},
{
name = top;
pos = (338,714);
}
);
layerId = "5974A488-68BA-4ECA-A629-BBB8F5E8E8D7";
shapes = (
{
closed = 1;
nodes = (
(93,0,ls),
(229,0,o),
(319,57,o),
(344,195,cs),
(436,714,l),
(241,714,l),
(156,232,ls),
(146,175,o),
(108,153,o),
(62,153,cs),
(-1,153,l),
(-27,0,l)
);
}
);
width = 387;
},
{
anchors = (
{
name = bottom;
pos = (219,0);
},
{
name = top;
pos = (410,714);
}
);
layerId = "406F15BE-EF31-460D-8EE8-85AD72A74E98";
shapes = (
{
closed = 1;
nodes = (
(152,0,ls),
(309,0,o),
(397,75,o),
(420,210,cs),
(510,714,l),
(310,714,l),
(229,252,ls),
(218,199,o),
(179,163,o),
(119,163,cs),
(5,163,l),
(-23,0,l)
);
}
);
width = 481;
},
{
anchors = (
{
name = bottom;
pos = (239,0);
},
{
name = top;
pos = (483,714);
}
);
layerId = "974B3D67-9F33-42CE-B7A8-3E18495C5B4F";
shapes = (
{
closed = 1;
nodes = (
(207,0,ls),
(369,0,o),
(481,70,o),
(506,212,cs),
(594,714,l),
(372,714,l),
(295,275,ls),
(282,200,o),
(228,167,o),
(158,167,cs),
(-9,167,l),
(-38,0,l)
);
}
);
width = 565;
}
);
unicode = 74;
},
{
glyphname = K;
kernLeft = H;
kernRight = K;
lastChange = "2024-12-06 10:55:58 +0000";
layers = (
{
anchors = (
{
name = bottom;
pos = (239,0);
},
{
name = top;
pos = (320,714);
}
);
layerId = "3A742E95-6392-47DA-98D0-C770A5889573";
shapes = (
{
closed = 1;
nodes = (
(95,0,l),
(141,265,l),
(120,221,l),
(213,326,ls),
(241,359,o),
(274,356,o),
(286,318,cs),
(386,0,l),
(447,0,l),
(341,328,ls),
(330,362,o),
(322,394,o),
(271,401,c),
(539,714,l),
(466,714,l),
(139,323,l),
(151,318,l),
(221,714,l),
(163,714,l),
(37,0,l)
);
}
);
width = 506;
},
{
anchors = (
{
name = bottom;
pos = (308,0);
},
{
name = top;
pos = (425,714);
}
);
background = {
shapes = (
{
closed = 1;
nodes = (
(638,0,l),
(468,321,ls),
(445,365,o),
(423,388,o),
(381,399,c),
(730,714,l),
(612,714,l),
(160,304,l),
(147,188,l),
(273,300,ls),
(315,339,o),
(360,337,o),
(384,289,cs),
(526,0,l)
);
},
{
closed = 1;
nodes = (
(133,0,l),
(258,714,l),
(165,714,l),
(40,0,l)
);
}
);
};
layerId = "DA512DF4-6FCD-4164-96D6-05DE8967F50A";
shapes = (
{
closed = 1;
nodes = (
(133,0,l),
(177,247,l),
(141,183,l),
(279,307,ls),
(322,346,o),
(367,348,o),
(387,305,cs),
(527,0,l),
(635,0,l),
(480,322,ls),
(463,361,o),
(444,399,o),
(387,408,c),
(729,714,l),
(610,714,l),
(162,304,l),
(184,292,l),
(259,714,l),
(165,714,l),
(39,0,l)
);
}
);
width = 698;
},
{
anchors = (
{
name = bottom;
pos = (248,0);
},
{
name = top;
pos = (332,714);
}
);
layerId = "0A603DC7-0F9F-4E29-AC1C-80B527B5555F";
shapes = (
{
closed = 1;
nodes = (
(113,0,l),
(160,269,l),
(130,205,l),
(215,302,ls),
(246,337,o),
(280,333,o),
(292,294,cs),
(380,0,l),
(468,0,l),
(369,321,ls),
(358,358,o),
(348,390,o),
(298,400,c),
(568,714,l),
(463,714,l),
(155,340,l),
(172,332,l),
(239,714,l),
(155,714,l),
(29,0,l)
);
}
);
width = 524;
},
{
anchors = (
{
name = bottom;
pos = (300,0);
},
{
name = top;
pos = (413,714);
}
);
layerId = "38E57698-3E0D-47EE-AD12-065B63128021";
shapes = (
{
closed = 1;
nodes = (
(106,0,l),
(149,244,l),
(123,198,l),
(263,323,ls),
(303,359,o),
(341,362,o),
(361,319,cs),
(511,0,l),
(581,0,l),
(432,312,ls),
(415,349,o),
(395,394,o),
(338,397,c),
(689,714,l),
(610,714,l),
(138,281,l),
(154,273,l),
(232,714,l),
(171,714,l),
(45,0,l)
);
}
);
width = 650;
},
{
anchors = (
{
name = bottom;
pos = (364,0);
},
{
name = top;
pos = (460,714);
}
);
layerId = "7B4F6316-DEA5-4C61-853A-FCC6E55FB2E9";
shapes = (
{
closed = 1;
nodes = (
(106,0,l),
(144,218,l),
(114,170,l),
(330,330,ls),
(403,385,o),
(470,379,o),
(503,310,cs),
(652,0,l),
(733,0,l),
(569,326,ls),
(540,387,o),
(505,416,o),
(445,420,c),
(835,714,l),
(737,714,l),
(130,256,l),
(149,244,l),
(232,714,l),
(163,714,l),
(37,0,l)
);
}
);
width = 791;
},
{
anchors = (
{
name = bottom;
pos = (376,0);
},
{
name = top;
pos = (472,714);
}
);
layerId = "FF0E7F91-EBB7-4227-9826-320229507C52";
shapes = (
{
closed = 1;
nodes = (
(131,0,l),
(171,226,l),
(128,157,l),
(345,318,ls),
(416,372,o),
(478,368,o),
(509,300,cs),
(647,0,l),
(758,0,l),
(601,325,ls),
(574,380,o),
(534,417,o),
(476,422,c),
(861,714,l),
(730,714,l),
(148,271,l),
(175,254,l),
(257,714,l),
(158,714,l),
(32,0,l)
);
}
);
width = 813;
},
{
anchors = (
{
name = bottom;
pos = (279,0);
},
{
name = top;
pos = (378,714);
}
);
layerId = "5974A488-68BA-4ECA-A629-BBB8F5E8E8D7";
shapes = (
{
closed = 1;
nodes = (
(186,0,l),
(237,286,l),
(167,136,l),
(231,212,ls,{
name = "🧨";
}),
(262,248,o),
(302,245,o),
(313,199,cs),
(362,0,l),
(564,0,l),
(486,291,ls),
(473,341,o),
(458,375,o),
(412,398,c),
(690,714,l),
(449,714,l),
(219,414,l),
(256,398,l),
(312,714,l),
(118,714,l),
(-8,0,l)
);
}
);
width = 611;
},
{
anchors = (
{
name = bottom;
pos = (336,0);
},
{
name = top;
pos = (462,714);
}
);
layerId = "406F15BE-EF31-460D-8EE8-85AD72A74E98";
shapes = (
{
closed = 1;
nodes = (
(210,0,l),
(260,281,l),
(180,140,l),
(281,227,ls),
(314,255,o),
(356,256,o),
(376,214,cs),
(477,0,l),
(703,0,l),
(551,282,ls),
(522,336,o),
(497,373,o),
(448,397,c),
(798,714,l),
(552,714,l),
(229,392,l),
(275,368,l),
(336,714,l),
(135,714,l),
(9,0,l)
);
}
);
width = 755;
},
{
anchors = (
{
name = bottom;
pos = (425,0);
},
{
name = top;
pos = (523,714);
}
);
layerId = "974B3D67-9F33-42CE-B7A8-3E18495C5B4F";
shapes = (
{
closed = 1;
nodes = (
(234,0,l),
(280,257,l),
(185,104,l),
(383,251,ls),
(423,281,o),
(466,287,o),
(491,240,cs),
(616,0,l),
(875,0,l),
(698,300,ls),
(665,360,o),
(633,392,o),
(580,414,c),
(965,714,l),
(688,714,l),
(230,340,l),
(288,306,l),
(360,714,l),
(138,714,l),
(12,0,l)
);
}
);
width = 925;
}
);
metricLeft = H;
unicode = 75;
},
{
glyphname = L;
kernLeft = H;
kernRight = L;
lastChange = "2024-12-06 10:39:41 +0000";
layers = (
{
anchors = (
{
name = bottom;
pos = (190,0);
},
{
name = center;
pos = (148,363);
},
{
name = top;
pos = (192,714);
},
{
name = topright;
pos = (397,714);
}
);
layerId = "3A742E95-6392-47DA-98D0-C770A5889573";
shapes = (
{
closed = 1;
nodes = (
(341,0,l),
(350,48,l),
(104,48,l),
(221,714,l),
(163,714,l),
(37,0,l)
);
}
);
width = 413;
},
{
anchors = (
{
name = bottom;
pos = (279,0);
},
{
name = center;
pos = (175,357);
},
{
name = top;
pos = (212,714);
},
{
name = topright;
pos = (511,714);
}
);
layerId = "DA512DF4-6FCD-4164-96D6-05DE8967F50A";
shapes = (
{
closed = 1;
nodes = (
(477,0,l),
(493,80,l),
(148,80,l),
(260,714,l),
(165,714,l),
(39,0,l)
);
}
);
width = 546;
},
{
anchors = (
{
name = bottom;
pos = (196,0);
},
{
name = center;
pos = (153,363);
},
{
name = top;
pos = (197,714);
},
{
name = topright;
pos = (399,714);
}
);
layerId = "0A603DC7-0F9F-4E29-AC1C-80B527B5555F";
shapes = (
{
closed = 1;
nodes = (
(351,0,l),
(363,67,l),
(126,67,l),
(239,714,l),
(155,714,l),
(29,0,l)
);
}
);
width = 417;
},
{
anchors = (
{
name = bottom;
pos = (270,0);
},
{
name = center;
pos = (161,357);
},
{
name = top;
pos = (206,714);
},
{
name = topright;
pos = (497,714);
}
);
layerId = "38E57698-3E0D-47EE-AD12-065B63128021";
shapes = (
{
closed = 1;
nodes = (
(468,0,l),
(477,53,l),
(115,53,l),
(233,714,l),
(171,714,l),
(45,0,l)
);
}
);
width = 538;
},
{
anchors = (
{
name = bottom;
pos = (360,0);
},
{
name = center;
pos = (168,357);
},
{
name = top;
pos = (200,714);
},
{
name = topright;
pos = (607,714);
}
);
layerId = "7B4F6316-DEA5-4C61-853A-FCC6E55FB2E9";
shapes = (
{
closed = 1;
nodes = (
(636,0,l),
(647,57,l),
(116,57,l),
(233,714,l),
(163,714,l),
(37,0,l)
);
}
);
width = 714;
},
{
anchors = (
{
name = bottom;
pos = (364,0);
},
{
name = center;
pos = (175,357);
},
{
name = top;
pos = (210,714);
},
{
name = topright;
pos = (618,714);
}
);
layerId = "FF0E7F91-EBB7-4227-9826-320229507C52";
shapes = (
{
closed = 1;
nodes = (
(648,0,l),
(662,80,l),
(145,80,l),
(258,714,l),
(158,714,l),
(32,0,l)
);
}
);
width = 719;
},
{
anchors = (
{
name = bottom;
pos = (217,0);
},
{
name = center;
pos = (170,363);
},
{
name = top;
pos = (216,714);
},
{
name = topright;
pos = (401,714);
}
);
layerId = "5974A488-68BA-4ECA-A629-BBB8F5E8E8D7";
shapes = (
{
closed = 1;
nodes = (
(389,0,l),
(416,153,l),
(214,153,l),
(313,714,l),
(118,714,l),
(-8,0,l)
);
}
);
width = 448;
},
{
anchors = (
{
name = bottom;
pos = (271,0);
},
{
name = center;
pos = (194,357);
},
{
name = top;
pos = (236,714);
},
{
name = topright;
pos = (531,714);
}
);
layerId = "406F15BE-EF31-460D-8EE8-85AD72A74E98";
shapes = (
{
closed = 1;
nodes = (
(495,0,l),
(523,163,l),
(239,163,l),
(337,714,l),
(136,714,l),
(9,0,l)
);
}
);
width = 560;
},
{
anchors = (
{
name = bottom;
pos = (379,0);
},
{
name = center;
pos = (205,357);
},
{
name = top;
pos = (250,714);
},
{
name = topright;
pos = (663,714);
}
);
layerId = "974B3D67-9F33-42CE-B7A8-3E18495C5B4F";
shapes = (
{
closed = 1;
nodes = (
(695,0,l),
(725,167,l),
(264,167,l),
(361,714,l),
(139,714,l),
(12,0,l)
);
}
);
width = 761;
}
);
metricLeft = H;
unicode = 76;
},
{
glyphname = M;
kernLeft = H;
kernRight = H;
lastChange = "2024-12-06 10:39:41 +0000";
layers = (
{
guides = (
{
angle = 260;
pos = (37,0);
},
{
angle = 260;
pos = (92,0);
},
{
angle = 260;
pos = (492,0);
},
{
angle = 260;
pos = (549,0);
}
);
layerId = "3A742E95-6392-47DA-98D0-C770A5889573";
shapes = (
{
closed = 1;
nodes = (
(92,0,l),
(212,683,l),
(196,670,l),
(257,0,l),
(326,0,l),
(624,666,l),
(612,680,l),
(492,0,l),
(549,0,l),
(675,714,l),
(587,714,l),
(287,30,l),
(310,30,l),
(252,714,l),
(163,714,l),
(37,0,l)
);
}
);
width = 676;
},
{
layerId = "DA512DF4-6FCD-4164-96D6-05DE8967F50A";
shapes = (
{
closed = 1;
nodes = (
(123,0,l),
(238,648,l),
(226,628,l),
(346,0,l),
(443,0,l),
(785,629,l),
(768,632,l),
(658,0,l),
(753,0,l),
(878,714,l),
(742,714,l),
(390,50,l),
(420,50,l),
(302,714,l),
(165,714,l),
(40,0,l)
);
}
);
width = 882;
},
{
layerId = "0A603DC7-0F9F-4E29-AC1C-80B527B5555F";
shapes = (
{
closed = 1;
nodes = (
(107,0,l),
(222,656,l),
(207,645,l),
(259,0,l),
(348,0,l),
(632,644,l),
(617,656,l),
(501,0,l),
(583,0,l),
(709,714,l),
(584,714,l),
(305,68,l),
(329,69,l),
(279,714,l),
(155,714,l),
(29,0,l)
);
}
);
width = 702;
},
{
guides = (
{
angle = 80;
pos = (45,0);
}
);
layerId = "38E57698-3E0D-47EE-AD12-065B63128021";
shapes = (
{
closed = 1;
nodes = (
(103,0,l),
(220,667,l),
(212,669,l),
(342,0,l),
(411,0,l),
(776,669,l),
(766,667,l),
(649,0,l),
(710,0,l),
(835,714,l),
(741,714,l),
(371,27,l),
(393,27,l),
(268,714,l),
(171,714,l),
(46,0,l)
);
}
);
width = 845;
},
{
layerId = "7B4F6316-DEA5-4C61-853A-FCC6E55FB2E9";
shapes = (
{
closed = 1;
nodes = (
(103,0,l),
(220,670,l),
(199,668,l),
(399,0,l),
(466,0,l),
(903,668,l),
(881,670,l),
(764,0,l),
(834,0,l),
(960,714,l),
(858,714,l),
(414,29,l),
(460,29,l),
(258,714,l),
(163,714,l),
(38,0,l)
);
}
);
width = 961;
},
{
layerId = "FF0E7F91-EBB7-4227-9826-320229507C52";
shapes = (
{
closed = 1;
nodes = (
(124,0,l),
(239,653,l),
(213,650,l),
(400,0,l),
(489,0,l),
(906,650,l),
(880,653,l),
(765,0,l),
(864,0,l),
(989,714,l),
(849,714,l),
(429,51,l),
(482,51,l),
(297,714,l),
(158,714,l),
(33,0,l)
);
}
);
width = 986;
},
{
guides = (
{
angle = 80.0042;
pos = (215,270);
},
{
angle = 260.099;
pos = (583,275);
}
);
layerId = "5974A488-68BA-4ECA-A629-BBB8F5E8E8D7";
shapes = (
{
closed = 1;
nodes = (
(167,0,l),
(263,542,l),
(250,542,l),
(265,0,l),
(436,0,l),
(660,553,l),
(632,553,l),
(535,0,l),
(724,0,l),
(850,714,l),
(566,714,l),
(388,223,l),
(412,224,l),
(402,714,l),
(118,714,l),
(-8,0,l)
);
}
);
width = 806;
},
{
layerId = "406F15BE-EF31-460D-8EE8-85AD72A74E98";
shapes = (
{
closed = 1;
nodes = (
(188,0,l),
(279,525,l),
(250,520,l),
(313,0,l),
(457,0,l),
(724,554,l),
(682,558,l),
(584,0,l),
(783,0,l),
(909,714,l),
(650,714,l),
(400,181,l),
(457,182,l),
(401,714,l),
(135,714,l),
(9,0,l)
);
}
);
width = 883;
},
{
layerId = "974B3D67-9F33-42CE-B7A8-3E18495C5B4F";
shapes = (
{
closed = 1;
nodes = (
(212,0,l),
(314,580,l),
(269,573,l),
(401,0,l),
(582,0,l),
(915,573,l),
(872,580,l),
(771,0,l),
(985,0,l),
(1111,714,l),
(812,714,l),
(491,143,l),
(571,143,l),
(455,714,l),
(138,714,l),
(12,0,l)
);
}
);
width = 1088;
}
);
metricLeft = H;
metricRight = H;
unicode = 77;
},
{
glyphname = N;
kernLeft = H;
kernRight = H;
lastChange = "2024-12-06 10:39:41 +0000";
layers = (
{
anchors = (
{
name = bottom;
pos = (231,0);
},
{
name = top;
pos = (357,714);
}
);
layerId = "3A742E95-6392-47DA-98D0-C770A5889573";
shapes = (
{
closed = 1;
nodes = (
(91,0,l),
(208,663,l),
(193,662,l),
(350,0,l),
(426,0,l),
(552,714,l),
(498,714,l),
(381,51,l),
(395,53,l),
(238,714,l),
(163,714,l),
(37,0,l)
);
}
);
width = 553;
},
{
anchors = (
{
name = bottom;
pos = (320,0);
},
{
name = top;
pos = (447,714);
}
);
layerId = "DA512DF4-6FCD-4164-96D6-05DE8967F50A";
shapes = (
{
closed = 1;
nodes = (
(126,0,l),
(238,625,l),
(222,623,l),
(489,0,l),
(604,0,l),
(730,714,l),
(643,714,l),
(534,94,l),
(548,96,l),
(282,714,l),
(165,714,l),
(39,0,l)
);
}
);
width = 733;
},
{
anchors = (
{
name = bottom;
pos = (237,0);
},
{
name = top;
pos = (363,714);
}
);
layerId = "0A603DC7-0F9F-4E29-AC1C-80B527B5555F";
shapes = (
{
closed = 1;
nodes = (
(107,0,l),
(219,632,l),
(189,627,l),
(348,0,l),
(445,0,l),
(571,714,l),
(494,714,l),
(383,82,l),
(410,88,l),
(252,714,l),
(155,714,l),
(29,0,l)
);
}
);
width = 564;
},
{
anchors = (
{
name = bottom;
pos = (310,0);
},
{
name = top;
pos = (436,714);
}
);
guides = (
{
angle = 260;
pos = (406,558);
}
);
layerId = "38E57698-3E0D-47EE-AD12-065B63128021";
shapes = (
{
closed = 1;
nodes = (
(103,0,l),
(221,673,l),
(204,664,l),
(498,0,l),
(575,0,l),
(701,714,l),
(644,714,l),
(525,41,l),
(540,54,l),
(249,714,l),
(171,714,l),
(46,0,l)
);
}
);
width = 710;
},
{
anchors = (
{
name = bottom;
pos = (391,0);
},
{
name = top;
pos = (516,714);
}
);
guides = (
{
angle = 80;
pos = (37,0);
},
{
angle = 80;
pos = (728,0);
},
{
angle = 80;
pos = (383,0);
}
);
layerId = "7B4F6316-DEA5-4C61-853A-FCC6E55FB2E9";
shapes = (
{
closed = 1;
nodes = (
(103,0,l),
(220,669,l),
(204,659,l),
(657,0,l),
(743,0,l),
(868,714,l),
(803,714,l),
(684,44,l),
(701,56,l),
(249,714,l),
(163,714,l),
(38,0,l)
);
}
);
width = 870;
},
{
anchors = (
{
name = bottom;
pos = (398,0);
},
{
name = top;
pos = (523,714);
}
);
layerId = "FF0E7F91-EBB7-4227-9826-320229507C52";
shapes = (
{
closed = 1;
nodes = (
(124,0,l),
(237,641,l),
(217,629,l),
(644,0,l),
(761,0,l),
(886,714,l),
(796,714,l),
(681,70,l),
(703,83,l),
(275,714,l),
(158,714,l),
(33,0,l)
);
}
);
width = 883;
},
{
anchors = (
{
name = bottom;
pos = (258,0);
},
{
name = top;
pos = (383,714);
}
);
layerId = "5974A488-68BA-4ECA-A629-BBB8F5E8E8D7";
shapes = (
{
closed = 1;
nodes = (
(164,0,l),
(251,499,l),
(207,474,l),
(327,0,l),
(522,0,l),
(648,714,l),
(476,714,l),
(387,215,l),
(435,238,l),
(313,714,l),
(118,714,l),
(-8,0,l)
);
}
);
width = 604;
},
{
anchors = (
{
name = bottom;
pos = (330,0);
},
{
name = top;
pos = (455,714);
}
);
layerId = "406F15BE-EF31-460D-8EE8-85AD72A74E98";
shapes = (
{
closed = 1;
nodes = (
(188,0,l),
(267,456,l),
(251,453,l),
(458,0,l),
(650,0,l),
(775,714,l),
(597,714,l),
(516,258,l),
(543,253,l),
(328,714,l),
(135,714,l),
(9,0,l)
);
}
);
width = 750;
},
{
anchors = (
{
name = bottom;
pos = (424,0);
},
{
name = top;
pos = (551,714);
}
);
layerId = "974B3D67-9F33-42CE-B7A8-3E18495C5B4F";
shapes = (
{
closed = 1;
nodes = (
(212,0,l),
(304,523,l),
(272,505,l),
(590,0,l),
(837,0,l),
(963,714,l),
(763,714,l),
(669,181,l),
(712,194,l),
(385,714,l),
(138,714,l),
(12,0,l)
);
}
);
width = 940;
}
);
metricLeft = H;
metricRight = H;
unicode = 78;
},
{
glyphname = Eng;
kernLeft = H;
kernRight = H;
lastChange = "2024-12-06 10:39:41 +0000";
layers = (
{
layerId = "3A742E95-6392-47DA-98D0-C770A5889573";
shapes = (
{
closed = 1;
nodes = (
(242,-190,ls),
(339,-190,o),
(400,-146,o),
(416,-54,cs),
(552,714,l),
(498,714,l),
(395,133,l),
(237,714,l),
(163,714,l),
(37,0,l),
(92,0,l),
(202,628,l),
(372,2,l),
(369,-14,ls),
(353,-105,o),
(319,-142,o),
(237,-142,cs),
(201,-142,l),
(192,-190,l)
);
}
);
width = 553;
},
{
layerId = "DA512DF4-6FCD-4164-96D6-05DE8967F50A";
shapes = (
{
closed = 1;
nodes = (
(371,-190,ls),
(490,-190,o),
(581,-130,o),
(603,-7,cs),
(730,714,l),
(643,714,l),
(548,175,l),
(282,714,l),
(165,714,l),
(39,0,l),
(125,0,l),
(233,603,l),
(520,17,l),
(518,7,ls),
(501,-78,o),
(438,-111,o),
(371,-111,cs),
(296,-111,l),
(283,-190,l)
);
}
);
width = 734;
},
{
layerId = "0A603DC7-0F9F-4E29-AC1C-80B527B5555F";
shapes = (
{
closed = 1;
nodes = (
(244,-190,ls),
(350,-190,o),
(416,-143,o),
(434,-41,cs),
(568,714,l),
(494,714,l),
(399,182,l),
(251,714,l),
(155,714,l),
(29,0,l),
(105,0,l),
(208,589,l),
(369,11,l),
(366,-6,ls),
(352,-87,o),
(316,-124,o),
(241,-124,cs),
(202,-124,l),
(190,-190,l)
);
}
);
width = 561;
},
{
guides = (
{
angle = 80;
pos = (687,700);
}
);
layerId = "38E57698-3E0D-47EE-AD12-065B63128021";
shapes = (
{
closed = 1;
nodes = (
(385,-190,ls),
(482,-190,o),
(552,-129,o),
(569,-32,cs),
(701,714,l),
(644,714,l),
(541,131,l),
(249,714,l),
(171,714,l),
(46,0,l),
(103,0,l),
(215,641,l),
(523,30,l),
(518,0,ls),
(503,-85,o),
(451,-137,o),
(374,-137,cs),
(302,-137,l),
(293,-190,l)
);
}
);
width = 710;
},
{
layerId = "7B4F6316-DEA5-4C61-853A-FCC6E55FB2E9";
shapes = (
{
closed = 1;
nodes = (
(534,-190,ls),
(637,-190,o),
(719,-132,o),
(736,-35,cs),
(868,714,l),
(804,714,l),
(697,105,l),
(252,714,l),
(163,714,l),
(38,0,l),
(102,0,l),
(215,647,l),
(679,10,l),
(676,-11,ls),
(663,-84,o),
(604,-133,o),
(528,-133,cs),
(392,-133,l),
(381,-190,l)
);
}
);
width = 869;
},
{
layerId = "FF0E7F91-EBB7-4227-9826-320229507C52";
shapes = (
{
closed = 1;
nodes = (
(539,-190,ls),
(652,-190,o),
(738,-130,o),
(757,-25,cs),
(886,714,l),
(796,714,l),
(697,153,l),
(274,714,l),
(158,714,l),
(33,0,l),
(123,0,l),
(232,614,l),
(674,26,l),
(670,1,ls),
(658,-66,o),
(604,-112,o),
(532,-112,cs),
(393,-112,l),
(379,-190,l)
);
}
);
width = 884;
},
{
layerId = "5974A488-68BA-4ECA-A629-BBB8F5E8E8D7";
shapes = (
{
closed = 1;
nodes = (
(245,-190,ls),
(391,-190,o),
(482,-130,o),
(508,14,cs),
(632,714,l),
(470,714,l),
(413,395,l),
(307,714,l),
(118,714,l),
(-8,0,l),
(155,0,l),
(228,423,l),
(353,51,l),
(348,30,ls),
(342,-11,o),
(298,-45,o),
(252,-45,cs),
(200,-45,l),
(174,-190,l)
);
}
);
width = 588;
},
{
layerId = "406F15BE-EF31-460D-8EE8-85AD72A74E98";
shapes = (
{
closed = 1;
nodes = (
(386,-190,ls),
(543,-190,o),
(629,-114,o),
(654,20,cs),
(775,714,l),
(597,714,l),
(535,367,l),
(317,714,l),
(135,714,l),
(9,0,l),
(188,0,l),
(267,450,l),
(488,97,l),
(482,60,ls),
(470,-2,o),
(421,-31,o),
(352,-31,cs),
(301,-31,l),
(273,-190,l)
);
}
);
width = 751;
},
{
layerId = "974B3D67-9F33-42CE-B7A8-3E18495C5B4F";
shapes = (
{
closed = 1;
nodes = (
(556,-190,ls),
(709,-190,o),
(816,-120,o),
(840,13,cs),
(963,714,l),
(763,714,l),
(698,347,l),
(368,714,l),
(138,714,l),
(12,0,l),
(212,0,l),
(298,481,l),
(652,89,l),
(646,52,ls),
(638,6,o),
(605,-29,o),
(551,-29,cs),
(397,-29,l),
(369,-190,l)
);
}
);
width = 941;
}
);
metricLeft = H;
metricRight = H;
unicode = 330;
},
{
glyphname = O;
kernLeft = O;
kernRight = O;
lastChange = "2024-12-06 10:39:41 +0000";
layers = (
{
anchors = (
{
name = bottom;
pos = (230,0);
},
{
name = center;
pos = (289,358);
},
{
name = ogonek;
pos = (284,0);
},
{
name = top;
pos = (348,714);
},
{
name = topleft;
pos = (101,714);
},
{
name = topright;
pos = (606,714);
}
);
layerId = "3A742E95-6392-47DA-98D0-C770A5889573";
shapes = (
{
closed = 1;
nodes = (
(468,-12,o),
(528,326,o),
(528,485,cs),
(528,629,o),
(473,726,o),
(348,726,cs),
(111,726,o),
(50,390,o),
(50,232,cs),
(50,86,o),
(106,-12,o),
(230,-12,cs)
);
},
{
closed = 1;
nodes = (
(146,38,o),
(112,116,o),
(112,234,cs),
(112,363,o),
(162,676,o),
(343,676,cs),
(433,676,o),
(466,600,o),
(466,485,cs),
(466,364,o),
(419,38,o),
(236,38,cs)
);
}
);
width = 543;
},
{
anchors = (
{
name = bottom;
pos = (320,0);
},
{
name = center;
pos = (404,357);
},
{
name = ogonek;
pos = (652,10);
},
{
name = top;
pos = (440,714);
},
{
name = topleft;
pos = (103,714);
},
{
name = topright;
pos = (832,714);
}
);
layerId = "DA512DF4-6FCD-4164-96D6-05DE8967F50A";
shapes = (
{
closed = 1;
nodes = (
(591,-13,o),
(739,175,o),
(739,404,cs),
(739,602,o),
(617,727,o),
(438,727,cs),
(220,727,o),
(69,540,o),
(69,310,cs),
(69,112,o),
(187,-13,o),
(369,-13,cs)
);
},
{
closed = 1;
nodes = (
(240,67,o),
(167,166,o),
(167,310,cs),
(167,498,o),
(266,647,o),
(434,647,cs),
(563,647,o),
(641,547,o),
(641,402,cs),
(641,215,o),
(541,67,o),
(373,67,cs)
);
}
);
width = 773;
},
{
anchors = (
{
name = bottom;
pos = (237,0);
},
{
name = center;
pos = (297,358);
},
{
name = ogonek;
pos = (301,2);
},
{
name = top;
pos = (353,714);
},
{
name = topleft;
pos = (105,714);
},
{
name = topright;
pos = (618,714);
}
);
layerId = "0A603DC7-0F9F-4E29-AC1C-80B527B5555F";
shapes = (
{
closed = 1;
nodes = (
(482,-12,o),
(542,321,o),
(542,482,cs),
(542,632,o),
(481,726,o),
(354,726,cs),
(109,726,o),
(48,394,o),
(48,234,cs),
(48,83,o),
(110,-12,o),
(237,-12,cs)
);
},
{
closed = 1;
nodes = (
(166,56,o),
(134,124,o),
(134,232,cs),
(134,348,o),
(181,658,o),
(347,658,cs),
(425,658,o),
(456,592,o),
(456,486,cs),
(456,377,o),
(412,56,o),
(244,56,cs)
);
}
);
width = 555;
},
{
anchors = (
{
name = bottom;
pos = (321,0);
},
{
name = center;
pos = (395,357);
},
{
name = ogonek;
pos = (652,10);
},
{
name = top;
pos = (439,714);
},
{
name = topleft;
pos = (103,714);
},
{
name = topright;
pos = (833,714);
}
);
guides = (
{
angle = 80;
pos = (461,727);
}
);
layerId = "38E57698-3E0D-47EE-AD12-065B63128021";
shapes = (
{
closed = 1;
nodes = (
(584,-12,o),
(722,174,o),
(722,408,cs),
(722,597,o),
(611,726,o),
(433,726,cs),
(213,726,o),
(71,539,o),
(71,307,cs),
(71,117,o),
(181,-12,o),
(360,-12,cs)
);
},
{
closed = 1;
nodes = (
(221,42,o),
(134,149,o),
(134,311,cs),
(134,512,o),
(259,672,o),
(429,672,cs),
(571,672,o),
(659,565,o),
(659,405,cs),
(659,199,o),
(534,42,o),
(364,42,cs)
);
}
);
width = 758;
},
{
anchors = (
{
name = bottom;
pos = (412,0);
},
{
name = center;
pos = (475,357);
},
{
name = ogonek;
pos = (613,10);
},
{
name = top;
pos = (539,714);
},
{
name = topleft;
pos = (145,714);
},
{
name = topright;
pos = (900,714);
}
);
guides = (
{
angle = 80;
pos = (478,418);
}
);
layerId = "7B4F6316-DEA5-4C61-853A-FCC6E55FB2E9";
shapes = (
{
closed = 1;
nodes = (
(740,-14,o),
(929,159,o),
(929,400,cs),
(929,596,o),
(762,728,o),
(525,728,cs),
(251,728,o),
(63,555,o),
(63,316,cs),
(63,119,o),
(224,-14,o),
(460,-14,cs)
);
},
{
closed = 1;
nodes = (
(269,44,o),
(137,151,o),
(137,320,cs),
(137,528,o),
(302,670,o),
(521,670,cs),
(717,670,o),
(856,564,o),
(856,397,cs),
(856,184,o),
(684,44,o),
(464,44,cs)
);
}
);
width = 957;
},
{
anchors = (
{
name = bottom;
pos = (418,0);
},
{
name = center;
pos = (481,357);
},
{
name = ogonek;
pos = (619,10);
},
{
name = top;
pos = (544,714);
},
{
name = topleft;
pos = (134,714);
},
{
name = topright;
pos = (883,714);
}
);
layerId = "FF0E7F91-EBB7-4227-9826-320229507C52";
shapes = (
{
closed = 1;
nodes = (
(742,-14,o),
(939,153,o),
(939,398,cs),
(939,596,o),
(772,728,o),
(529,728,cs),
(253,728,o),
(57,561,o),
(57,317,cs),
(57,119,o),
(219,-14,o),
(461,-14,cs)
);
},
{
closed = 1;
nodes = (
(285,66,o),
(161,164,o),
(161,323,cs),
(161,517,o),
(315,648,o),
(522,648,cs),
(707,648,o),
(835,551,o),
(835,393,cs),
(835,196,o),
(677,66,o),
(468,66,cs)
);
}
);
width = 961;
},
{
anchors = (
{
name = bottom;
pos = (255,0);
},
{
name = center;
pos = (318,357);
},
{
name = ogonek;
pos = (358,9);
},
{
name = top;
pos = (361,714);
},
{
name = topleft;
pos = (106,714);
},
{
name = topright;
pos = (653,714);
}
);
layerId = "5974A488-68BA-4ECA-A629-BBB8F5E8E8D7";
shapes = (
{
closed = 1;
nodes = (
(525,-13,o),
(589,299,o),
(589,471,cs),
(589,647,o),
(500,727,o),
(364,727,cs),
(86,727,o),
(25,413,o),
(25,245,cs),
(25,69,o),
(114,-13,o),
(251,-13,cs)
);
},
{
closed = 1;
nodes = (
(238,140,o),
(220,156,o),
(220,224,cs),
(220,283,o),
(248,574,o),
(350,574,cs),
(378,574,o),
(394,559,o),
(394,493,cs),
(394,434,o),
(365,140,o),
(265,140,cs)
);
}
);
width = 578;
},
{
anchors = (
{
name = bottom;
pos = (330,0);
},
{
name = center;
pos = (408,357);
},
{
name = ogonek;
pos = (654,10);
},
{
name = top;
pos = (452,714);
},
{
name = topleft;
pos = (105,714);
},
{
name = topright;
pos = (834,714);
}
);
layerId = "406F15BE-EF31-460D-8EE8-85AD72A74E98";
shapes = (
{
closed = 1;
nodes = (
(620,-13,o),
(765,177,o),
(765,407,cs),
(765,613,o),
(637,727,o),
(445,727,cs),
(205,727,o),
(49,536,o),
(49,304,cs),
(49,103,o),
(180,-13,o),
(370,-13,cs)
);
},
{
closed = 1;
nodes = (
(308,148,o),
(251,202,o),
(251,310,cs),
(251,441,o),
(314,566,o),
(437,566,cs),
(511,566,o),
(563,515,o),
(563,404,cs),
(563,268,o),
(507,148,o),
(380,148,cs)
);
}
);
width = 780;
},
{
anchors = (
{
name = bottom;
pos = (450,0);
},
{
name = center;
pos = (512,357);
},
{
name = ogonek;
pos = (649,10);
},
{
name = top;
pos = (566,714);
},
{
name = topleft;
pos = (94,714);
},
{
name = topright;
pos = (821,714);
}
);
layerId = "974B3D67-9F33-42CE-B7A8-3E18495C5B4F";
shapes = (
{
closed = 1;
nodes = (
(756,-14,o),
(983,127,o),
(983,391,cs),
(983,595,o),
(819,728,o),
(551,728,cs),
(265,728,o),
(38,587,o),
(38,323,cs),
(38,119,o),
(202,-14,o),
(471,-14,cs)
);
},
{
closed = 1;
nodes = (
(352,153,o),
(267,219,o),
(267,336,cs),
(267,470,o),
(375,561,o),
(531,561,cs),
(669,561,o),
(754,495,o),
(754,378,cs),
(754,249,o),
(652,153,o),
(491,153,cs)
);
}
);
width = 986;
}
);
unicode = 79;
},
{
glyphname = OE;
kernLeft = O;
kernRight = E;
lastChange = "2024-12-06 10:39:41 +0000";
layers = (
{
guides = (
{
angle = 260;
pos = (514,714);
}
);
layerId = "3A742E95-6392-47DA-98D0-C770A5889573";
shapes = (
{
closed = 1;
nodes = (
(300,-12,o),
(362,22,o),
(403,86,c),
(388,0,l),
(715,0,l),
(723,48,l),
(455,48,l),
(510,357,l),
(741,357,l),
(749,402,l),
(518,402,l),
(564,666,l),
(832,666,l),
(841,714,l),
(514,714,l),
(497,620,l),
(477,682,o),
(424,726,o),
(348,726,cs),
(111,726,o),
(50,390,o),
(50,232,cs),
(50,86,o),
(106,-12,o),
(230,-12,cs)
);
},
{
closed = 1;
nodes = (
(146,38,o),
(111,116,o),
(111,234,cs),
(111,363,o),
(162,676,o),
(343,676,cs),
(435,676,o),
(467,600,o),
(467,485,cs),
(467,364,o),
(419,38,o),
(236,38,cs)
);
}
);
width = 805;
},
{
layerId = "DA512DF4-6FCD-4164-96D6-05DE8967F50A";
shapes = (
{
closed = 1;
nodes = (
(460,-13,o),
(532,21,o),
(596,93,c),
(580,0,l),
(1060,0,l),
(1074,79,l),
(688,79,l),
(733,336,l),
(1086,336,l),
(1100,412,l),
(746,412,l),
(786,635,l),
(1173,635,l),
(1187,714,l),
(705,714,l),
(680,565,l),
(638,673,o),
(546,727,o),
(437,727,cs),
(220,727,o),
(69,540,o),
(69,310,cs),
(69,112,o),
(190,-13,o),
(363,-13,cs)
);
},
{
closed = 1;
nodes = (
(240,67,o),
(165,166,o),
(165,310,cs),
(165,498,o),
(266,648,o),
(434,648,cs),
(563,648,o),
(642,547,o),
(642,402,cs),
(642,215,o),
(541,67,o),
(373,67,cs)
);
}
);
width = 1162;
},
{
layerId = "0A603DC7-0F9F-4E29-AC1C-80B527B5555F";
shapes = (
{
closed = 1;
nodes = (
(303,-12,o),
(362,19,o),
(402,77,c),
(388,0,l),
(731,0,l),
(742,68,l),
(484,68,l),
(533,343,l),
(754,343,l),
(766,407,l),
(545,407,l),
(586,646,l),
(845,646,l),
(857,714,l),
(514,714,l),
(498,628,l),
(478,685,o),
(427,726,o),
(352,726,cs),
(109,726,o),
(48,394,o),
(48,234,cs),
(48,83,o),
(111,-12,o),
(234,-12,cs)
);
},
{
closed = 1;
nodes = (
(166,57,o),
(134,124,o),
(134,232,cs),
(134,348,o),
(181,657,o),
(347,657,cs),
(427,657,o),
(456,592,o),
(456,486,cs),
(456,377,o),
(412,57,o),
(245,57,cs)
);
}
);
width = 814;
},
{
guides = (
{
angle = 260;
pos = (708,700);
},
{
angle = 260;
pos = (759,648);
}
);
layerId = "38E57698-3E0D-47EE-AD12-065B63128021";
shapes = (
{
closed = 1;
nodes = (
(464,-12,o),
(552,26,o),
(616,110,c),
(596,0,l),
(1051,0,l),
(1060,53,l),
(667,53,l),
(720,356,l),
(1080,356,l),
(1089,406,l),
(730,406,l),
(774,661,l),
(1168,661,l),
(1177,714,l),
(722,714,l),
(693,547,l),
(654,657,o),
(559,726,o),
(433,726,cs),
(213,726,o),
(71,539,o),
(71,307,cs),
(71,117,o),
(181,-12,o),
(360,-12,cs)
);
},
{
closed = 1;
nodes = (
(221,42,o),
(134,149,o),
(134,311,cs),
(134,512,o),
(259,672,o),
(429,672,cs),
(571,672,o),
(659,565,o),
(659,405,cs),
(659,199,o),
(534,42,o),
(364,42,cs)
);
}
);
width = 1161;
},
{
guides = (
{
angle = 260;
pos = (900,700);
}
);
layerId = "7B4F6316-DEA5-4C61-853A-FCC6E55FB2E9";
shapes = (
{
closed = 1;
nodes = (
(607,-14,o),
(730,35,o),
(818,145,c),
(793,0,l),
(1417,0,l),
(1426,57,l),
(871,57,l),
(921,340,l),
(1435,340,l),
(1445,396,l),
(931,396,l),
(977,657,l),
(1532,657,l),
(1542,714,l),
(918,714,l),
(885,531,l),
(828,659,o),
(694,728,o),
(525,728,cs),
(251,728,o),
(63,555,o),
(63,316,cs),
(63,119,o),
(224,-14,o),
(460,-14,cs)
);
},
{
closed = 1;
nodes = (
(269,44,o),
(137,151,o),
(137,320,cs),
(137,528,o),
(302,670,o),
(521,670,cs),
(717,670,o),
(856,564,o),
(856,397,cs),
(856,184,o),
(684,44,o),
(464,44,cs)
);
}
);
width = 1526;
},
{
layerId = "FF0E7F91-EBB7-4227-9826-320229507C52";
shapes = (
{
closed = 1;
nodes = (
(593,-14,o),
(710,28,o),
(795,126,c),
(772,0,l),
(1416,0,l),
(1429,79,l),
(884,79,l),
(928,327,l),
(1432,327,l),
(1445,404,l),
(941,404,l),
(982,635,l),
(1527,635,l),
(1541,714,l),
(898,714,l),
(868,552,l),
(811,666,o),
(680,728,o),
(524,728,cs),
(252,728,o),
(57,561,o),
(57,317,cs),
(57,119,o),
(219,-14,o),
(455,-14,cs)
);
},
{
closed = 1;
nodes = (
(285,65,o),
(161,164,o),
(161,323,cs),
(161,517,o),
(315,649,o),
(522,649,cs),
(707,649,o),
(835,551,o),
(835,393,cs),
(835,196,o),
(677,65,o),
(468,65,cs)
);
}
);
width = 1519;
},
{
layerId = "5974A488-68BA-4ECA-A629-BBB8F5E8E8D7";
shapes = (
{
closed = 1;
nodes = (
(300,-13,o),
(346,5,o),
(380,40,c),
(373,0,l),
(785,0,l),
(811,153,l),
(595,153,l),
(618,281,l),
(796,281,l),
(822,431,l),
(644,431,l),
(668,561,l),
(884,561,l),
(911,714,l),
(499,714,l),
(489,661,l),
(468,698,o),
(424,727,o),
(352,727,cs),
(85,727,o),
(25,413,o),
(25,245,cs),
(25,69,o),
(120,-13,o),
(237,-13,cs)
);
},
{
closed = 1;
nodes = (
(238,140,o),
(220,156,o),
(220,224,cs),
(220,283,o),
(249,574,o),
(350,574,cs),
(377,574,o),
(394,559,o),
(394,493,cs),
(394,434,o),
(366,140,o),
(268,140,cs)
);
}
);
width = 856;
},
{
layerId = "406F15BE-EF31-460D-8EE8-85AD72A74E98";
shapes = (
{
closed = 1;
nodes = (
(404,-13,o),
(459,-6,o),
(503,26,c),
(499,0,l),
(1036,0,l),
(1065,159,l),
(726,159,l),
(748,279,l),
(1048,279,l),
(1075,433,l),
(775,433,l),
(797,555,l),
(1135,555,l),
(1163,714,l),
(625,714,l),
(617,669,l),
(572,715,o),
(502,727,o),
(437,727,cs),
(206,727,o),
(49,536,o),
(49,304,cs),
(49,103,o),
(166,-13,o),
(360,-13,cs)
);
},
{
closed = 1;
nodes = (
(308,148,o),
(251,202,o),
(251,310,cs),
(251,441,o),
(314,566,o),
(437,566,cs),
(511,566,o),
(563,515,o),
(563,404,cs),
(563,268,o),
(507,148,o),
(380,148,cs)
);
}
);
width = 1121;
},
{
layerId = "974B3D67-9F33-42CE-B7A8-3E18495C5B4F";
shapes = (
{
closed = 1;
nodes = (
(540,-14,o),
(629,0,o),
(700,53,c),
(691,0,l),
(1414,0,l),
(1443,167,l),
(941,167,l),
(961,278,l),
(1424,278,l),
(1452,437,l),
(988,437,l),
(1008,547,l),
(1510,547,l),
(1540,714,l),
(816,714,l),
(803,637,l),
(745,695,o),
(630,728,o),
(522,728,cs),
(259,728,o),
(38,587,o),
(38,323,cs),
(38,119,o),
(202,-14,o),
(438,-14,cs)
);
},
{
closed = 1;
nodes = (
(353,153,o),
(268,219,o),
(268,336,cs),
(268,470,o),
(376,561,o),
(531,561,cs),
(668,561,o),
(753,495,o),
(753,378,cs),
(753,249,o),
(651,153,o),
(491,153,cs)
);
}
);
width = 1500;
}
);
metricLeft = O;
metricRight = E;
unicode = 338;
},
{
glyphname = P;
kernLeft = H;
kernRight = P;
lastChange = "2024-12-06 10:39:41 +0000";
layers = (
{
layerId = "3A742E95-6392-47DA-98D0-C770A5889573";
shapes = (
{
closed = 1;
nodes = (
(95,0,l),
(150,316,l),
(259,316,ls),
(406,316,o),
(490,417,o),
(490,544,cs),
(490,655,o),
(422,714,o),
(326,714,cs),
(163,714,l),
(37,0,l)
);
},
{
closed = 1;
nodes = (
(212,666,l),
(314,666,ls),
(390,666,o),
(429,618,o),
(429,539,cs),
(429,448,o),
(367,363,o),
(257,363,cs),
(159,363,l)
);
}
);
width = 474;
},
{
layerId = "DA512DF4-6FCD-4164-96D6-05DE8967F50A";
shapes = (
{
closed = 1;
nodes = (
(134,0,l),
(184,283,l),
(399,283,ls),
(551,283,o),
(661,382,o),
(661,520,cs),
(661,636,o),
(587,714,o),
(471,714,cs),
(165,714,l),
(40,0,l)
);
},
{
closed = 1;
nodes = (
(246,635,l),
(443,635,ls),
(523,635,o),
(563,594,o),
(563,520,cs),
(563,429,o),
(500,360,o),
(390,360,cs),
(197,360,l)
);
}
);
width = 652;
},
{
background = {
shapes = (
{
closed = 1;
nodes = (
(188,0,l),
(188,299,l),
(287,299,ls),
(401,299,o),
(490,366,o),
(489,507,cs),
(489,648,o),
(401,714,o),
(287,714,cs),
(104,714,l),
(104,0,l)
);
},
{
closed = 1;
nodes = (
(188,648,l),
(278,648,ls),
(355,648,o),
(401,594,o),
(401,507,cs),
(401,420,o),
(355,366,o),
(278,366,cs),
(188,366,l)
);
}
);
};
layerId = "0A603DC7-0F9F-4E29-AC1C-80B527B5555F";
shapes = (
{
closed = 1;
nodes = (
(113,0,l),
(165,299,l),
(265,299,ls),
(420,299,o),
(506,404,o),
(506,539,cs),
(506,655,o),
(432,714,o),
(334,714,cs),
(155,714,l),
(29,0,l)
);
},
{
closed = 1;
nodes = (
(227,648,l),
(317,648,ls),
(384,648,o),
(419,604,o),
(419,532,cs),
(419,448,o),
(363,366,o),
(263,366,cs),
(178,366,l)
);
}
);
width = 486;
},
{
layerId = "38E57698-3E0D-47EE-AD12-065B63128021";
shapes = (
{
closed = 1;
nodes = (
(107,0,l),
(160,306,l),
(385,306,ls),
(546,306,o),
(640,408,o),
(640,530,cs),
(640,648,o),
(560,714,o),
(453,714,cs),
(171,714,l),
(46,0,l)
);
},
{
closed = 1;
nodes = (
(223,661,l),
(440,661,ls),
(533,661,o),
(576,607,o),
(576,527,cs),
(576,436,o),
(508,359,o),
(382,359,cs),
(170,359,l)
);
}
);
width = 633;
},
{
background = {
shapes = (
{
closed = 1;
nodes = (
(107,0,l),
(160,306,l),
(551,306,ls),
(677,306,o),
(784,370,o),
(808,506,cs),
(831,642,o),
(746,714,o),
(619,714,cs),
(163,714,l),
(38,0,l)
);
},
{
closed = 1;
nodes = (
(222,657,l),
(603,657,ls),
(707,657,o),
(751,601,o),
(735,510,cs),
(719,419,o),
(652,363,o),
(548,363,cs),
(170,363,l)
);
}
);
};
layerId = "7B4F6316-DEA5-4C61-853A-FCC6E55FB2E9";
shapes = (
{
closed = 1;
nodes = (
(107,0,l),
(160,306,l),
(551,306,ls),
(715,306,o),
(811,408,o),
(811,530,cs),
(811,648,o),
(729,714,o),
(619,714,cs),
(163,714,l),
(38,0,l)
);
},
{
closed = 1;
nodes = (
(222,657,l),
(606,657,ls),
(695,657,o),
(737,607,o),
(737,527,cs),
(737,436,o),
(669,363,o),
(548,363,cs),
(170,363,l)
);
}
);
width = 814;
},
{
layerId = "FF0E7F91-EBB7-4227-9826-320229507C52";
shapes = (
{
closed = 1;
nodes = (
(133,0,l),
(183,288,l),
(551,288,ls),
(720,288,o),
(824,388,o),
(824,521,cs),
(824,642,o),
(741,714,o),
(621,714,cs),
(158,714,l),
(33,0,l)
);
},
{
closed = 1;
nodes = (
(244,634,l),
(601,634,ls),
(680,634,o),
(720,590,o),
(720,517,cs),
(720,431,o),
(656,368,o),
(549,368,cs),
(196,368,l)
);
}
);
width = 824;
},
{
layerId = "5974A488-68BA-4ECA-A629-BBB8F5E8E8D7";
shapes = (
{
closed = 1;
nodes = (
(187,0,l),
(228,234,l),
(286,234,ls),
(476,234,o),
(570,349,o),
(570,518,cs),
(570,655,o),
(471,714,o),
(361,714,cs),
(118,714,l),
(-8,0,l)
);
},
{
closed = 1;
nodes = (
(287,565,l),
(325,565,ls),
(352,565,o),
(372,544,o),
(372,503,cs),
(372,450,o),
(342,380,o),
(284,380,cs),
(254,380,l)
);
}
);
width = 549;
},
{
layerId = "406F15BE-EF31-460D-8EE8-85AD72A74E98";
shapes = (
{
closed = 1;
nodes = (
(209,0,l),
(246,209,l),
(395,209,ls),
(574,209,o),
(713,297,o),
(713,481,cs),
(713,628,o),
(625,714,o),
(464,714,cs),
(135,714,l),
(9,0,l)
);
},
{
closed = 1;
nodes = (
(307,556,l),
(434,556,ls),
(482,556,o),
(509,517,o),
(509,471,cs),
(509,405,o),
(457,367,o),
(392,367,cs),
(274,367,l)
);
}
);
width = 702;
},
{
layerId = "974B3D67-9F33-42CE-B7A8-3E18495C5B4F";
shapes = (
{
closed = 1;
nodes = (
(233,0,l),
(271,217,l),
(550,217,ls),
(739,217,o),
(879,302,o),
(879,486,cs),
(879,618,o),
(786,714,o),
(627,714,cs),
(138,714,l),
(12,0,l)
);
},
{
closed = 1;
nodes = (
(329,547,l),
(577,547,ls),
(620,547,o),
(649,521,o),
(649,476,cs),
(649,414,o),
(599,386,o),
(550,386,cs),
(302,386,l)
);
}
);
width = 867;
}
);
metricLeft = H;
unicode = 80;
},
{
glyphname = Thorn;
kernLeft = H;
lastChange = "2024-12-06 10:39:41 +0000";
layers = (
{
background = {
shapes = (
{
closed = 1;
nodes = (
(232,160,ls),
(342,160,o),
(436,224,o),
(459,357,cs),
(481,490,o),
(408,558,o),
(298,558,cs),
(172,558,l),
(164,511,l),
(286,511,ls),
(375,511,o),
(414,453,o),
(397,361,cs),
(381,268,o),
(319,207,o),
(230,207,cs),
(110,207,l),
(102,160,l)
);
},
{
closed = 1;
nodes = (
(95,0,l),
(221,714,l),
(163,714,l),
(37,0,l)
);
}
);
};
layerId = "3A742E95-6392-47DA-98D0-C770A5889573";
shapes = (
{
closed = 1;
nodes = (
(231,160,ls),
(378,160,o),
(462,261,o),
(462,388,cs),
(462,499,o),
(394,558,o),
(298,558,cs),
(164,558,l),
(164,510,l),
(286,510,ls),
(362,510,o),
(401,462,o),
(401,383,cs),
(401,292,o),
(339,207,o),
(229,207,cs),
(94,207,l),
(94,160,l)
);
},
{
closed = 1;
nodes = (
(95,0,l),
(221,714,l),
(163,714,l),
(37,0,l)
);
}
);
width = 485;
},
{
layerId = "DA512DF4-6FCD-4164-96D6-05DE8967F50A";
shapes = (
{
closed = 1;
nodes = (
(377,142,ls),
(529,142,o),
(640,242,o),
(640,380,cs),
(640,497,o),
(565,574,o),
(450,574,cs),
(192,574,l),
(192,495,l),
(422,495,ls),
(503,495,o),
(543,453,o),
(543,380,cs),
(543,289,o),
(479,220,o),
(369,220,cs),
(141,220,l),
(141,142,l)
);
},
{
closed = 1;
nodes = (
(133,0,l),
(258,714,l),
(165,714,l),
(40,0,l)
);
}
);
width = 666;
},
{
layerId = "0A603DC7-0F9F-4E29-AC1C-80B527B5555F";
shapes = (
{
closed = 1;
nodes = (
(239,152,ls),
(394,152,o),
(480,256,o),
(480,390,cs),
(480,507,o),
(406,566,o),
(307,566,cs),
(166,566,l),
(166,499,l),
(291,499,ls),
(358,499,o),
(393,455,o),
(393,384,cs),
(393,299,o),
(337,218,o),
(237,218,cs),
(102,218,l),
(102,152,l)
);
},
{
closed = 1;
nodes = (
(113,0,l),
(239,714,l),
(155,714,l),
(29,0,l)
);
}
);
width = 499;
},
{
guides = (
{
pos = (274,153);
},
{
pos = (274,563);
}
);
layerId = "38E57698-3E0D-47EE-AD12-065B63128021";
shapes = (
{
closed = 1;
nodes = (
(354,153,ls),
(515,153,o),
(609,255,o),
(609,377,cs),
(609,495,o),
(529,561,o),
(422,561,cs),
(170,561,l),
(170,508,l),
(409,508,ls),
(503,508,o),
(546,454,o),
(546,374,cs),
(546,283,o),
(477,206,o),
(351,206,cs),
(100,206,l),
(100,153,l)
);
},
{
closed = 1;
nodes = (
(107,0,l),
(233,714,l),
(171,714,l),
(46,0,l)
);
}
);
width = 643;
},
{
layerId = "7B4F6316-DEA5-4C61-853A-FCC6E55FB2E9";
shapes = (
{
closed = 1;
nodes = (
(525,156,ls),
(690,156,o),
(785,258,o),
(785,380,cs),
(785,498,o),
(704,564,o),
(594,564,cs),
(169,564,l),
(169,507,l),
(580,507,ls),
(669,507,o),
(712,457,o),
(712,377,cs),
(712,286,o),
(644,213,o),
(522,213,cs),
(108,213,l),
(108,156,l)
);
},
{
closed = 1;
nodes = (
(107,0,l),
(233,714,l),
(163,714,l),
(38,0,l)
);
}
);
width = 818;
},
{
layerId = "FF0E7F91-EBB7-4227-9826-320229507C52";
shapes = (
{
closed = 1;
nodes = (
(526,147,ls),
(696,147,o),
(801,246,o),
(801,379,cs),
(801,500,o),
(716,572,o),
(597,572,cs),
(176,572,l),
(176,494,l),
(576,494,ls),
(656,494,o),
(697,449,o),
(697,375,cs),
(697,290,o),
(631,225,o),
(524,225,cs),
(126,225,l),
(126,147,l)
);
},
{
closed = 1;
nodes = (
(133,0,l),
(258,714,l),
(158,714,l),
(33,0,l)
);
}
);
width = 829;
},
{
layerId = "5974A488-68BA-4ECA-A629-BBB8F5E8E8D7";
shapes = (
{
closed = 1;
nodes = (
(267,118,ls),
(457,118,o),
(551,235,o),
(551,397,cs),
(551,541,o),
(451,600,o),
(341,600,cs),
(168,600,l),
(168,452,l),
(305,452,ls),
(333,452,o),
(352,427,o),
(352,386,cs),
(352,330,o),
(323,264,o),
(265,264,cs),
(133,264,l),
(133,118,l)
);
},
{
closed = 1;
nodes = (
(187,0,l),
(313,714,l),
(118,714,l),
(-8,0,l)
);
}
);
width = 553;
},
{
layerId = "406F15BE-EF31-460D-8EE8-85AD72A74E98";
shapes = (
{
closed = 1;
nodes = (
(376,106,ls),
(556,106,o),
(695,195,o),
(695,378,cs),
(695,525,o),
(607,612,o),
(446,612,cs),
(183,612,l),
(183,454,l),
(415,454,ls),
(463,454,o),
(490,415,o),
(490,368,cs),
(490,302,o),
(439,263,o),
(373,263,cs),
(144,263,l),
(144,106,l)
);
},
{
closed = 1;
nodes = (
(209,0,l),
(335,714,l),
(135,714,l),
(9,0,l)
);
}
);
width = 707;
},
{
layerId = "974B3D67-9F33-42CE-B7A8-3E18495C5B4F";
shapes = (
{
closed = 1;
nodes = (
(530,110,ls),
(720,110,o),
(861,194,o),
(861,377,cs),
(861,510,o),
(768,606,o),
(608,606,cs),
(205,606,l),
(205,439,l),
(558,439,ls),
(602,439,o),
(630,413,o),
(630,368,cs),
(630,307,o),
(579,277,o),
(531,277,cs),
(199,277,l),
(199,110,l)
);
},
{
closed = 1;
nodes = (
(233,0,l),
(359,714,l),
(138,714,l),
(12,0,l)
);
}
);
width = 873;
}
);
metricLeft = H;
unicode = 222;
},
{
glyphname = Q;
kernLeft = O;
lastChange = "2024-12-10 08:36:45 +0000";
layers = (
{
layerId = "3A742E95-6392-47DA-98D0-C770A5889573";
shapes = (
{
closed = 1;
nodes = (
(478,0,l),
(486,47,l),
(467,47,ls),
(439,47,o),
(419,53,o),
(402,83,cs),
(310,244,l),
(266,215,l),
(361,52,ls),
(383,15,o),
(409,0,o),
(453,0,cs)
);
},
{
alignment = -1;
ref = O;
}
);
width = 548;
},
{
layerId = "DA512DF4-6FCD-4164-96D6-05DE8967F50A";
shapes = (
{
closed = 1;
nodes = (
(743,0,l),
(757,80,l),
(704,80,ls),
(669,80,o),
(649,86,o),
(627,113,cs),
(479,288,l),
(414,233,l),
(562,58,ls),
(597,17,o),
(636,0,o),
(692,0,cs)
);
},
{
alignment = -1;
ref = O;
}
);
width = 803;
},
{
associatedMasterId = "DA512DF4-6FCD-4164-96D6-05DE8967F50A";
attr = {
axisRules = (
{
min = 700;
},
{
max = 90;
min = 50;
},
{
}
);
};
layerId = "1775BB60-7090-493C-AC36-DB8F49AA0E7D";
name = "22 Nov 24 at 10:48";
shapes = (
{
closed = 1;
nodes = (
(743,0,l),
(757,80,l),
(704,80,ls),
(669,80,o),
(649,86,o),
(627,113,cs),
(603,142,l),
(539,85,l),
(562,58,ls),
(597,17,o),
(636,0,o),
(692,0,cs)
);
},
{
alignment = -1;
ref = O;
}
);
width = 803;
},
{
layerId = "0A603DC7-0F9F-4E29-AC1C-80B527B5555F";
shapes = (
{
closed = 1;
nodes = (
(493,0,l),
(505,67,l),
(487,67,ls),
(460,67,o),
(438,74,o),
(417,105,cs),
(316,262,l),
(261,217,l),
(372,52,ls),
(397,15,o),
(425,0,o),
(470,0,cs)
);
},
{
alignment = -1;
ref = O;
}
);
width = 561;
},
{
associatedMasterId = "0A603DC7-0F9F-4E29-AC1C-80B527B5555F";
attr = {
axisRules = (
{
min = 700;
},
{
max = 90;
min = 50;
},
{
}
);
};
layerId = "782C3945-A21D-4F0F-A6E4-FAB1367B7A68";
name = "22 Nov 24 at 10:47";
shapes = (
{
closed = 1;
nodes = (
(513,0,l),
(525,67,l),
(507,67,ls),
(480,67,o),
(448,74,o),
(427,105,cs),
(412,128,l),
(359,86,l),
(382,52,ls),
(407,15,o),
(445,0,o),
(490,0,cs)
);
},
{
alignment = -1;
ref = O;
}
);
width = 571;
},
{
background = {
shapes = (
{
closed = 1;
nodes = (
(652,-190,l),
(665,-112,l),
(602,-112,ls),
(538,-112,o),
(501,-91,o),
(477,-36,cs),
(455,18,l),
(364,-2,l),
(386,-59,ls),
(417,-149,o),
(481,-190,o),
(583,-190,cs)
);
}
);
};
guides = (
{
angle = 80;
pos = (622,-186);
}
);
layerId = "38E57698-3E0D-47EE-AD12-065B63128021";
shapes = (
{
closed = 1;
nodes = (
(732,0,l),
(741,53,l),
(713,53,ls),
(683,53,o),
(655,58,o),
(627,91,cs),
(479,270,l),
(435,232,l),
(583,54,ls),
(613,18,o),
(651,0,o),
(702,0,cs)
);
},
{
ref = O;
}
);
width = 797;
},
{
layerId = "7B4F6316-DEA5-4C61-853A-FCC6E55FB2E9";
shapes = (
{
closed = 1;
nodes = (
(944,0,l),
(954,57,l),
(936,57,ls),
(886,57,o),
(851,69,o),
(821,105,cs),
(635,328,l),
(586,286,l),
(773,63,ls),
(808,20,o),
(850,0,o),
(911,0,cs)
);
},
{
alignment = -1;
ref = O;
}
);
width = 1014;
},
{
layerId = "FF0E7F91-EBB7-4227-9826-320229507C52";
shapes = (
{
closed = 1;
nodes = (
(963,0,l),
(977,80,l),
(943,80,ls),
(883,80,o),
(848,92,o),
(818,128,cs),
(637,342,l),
(570,287,l),
(750,74,ls),
(793,23,o),
(848,0,o),
(920,0,cs)
);
},
{
alignment = -1;
ref = O;
}
);
width = 1028;
},
{
layerId = "5974A488-68BA-4ECA-A629-BBB8F5E8E8D7";
shapes = (
{
closed = 1;
nodes = (
(574,0,l),
(600,154,l),
(589,154,ls),
(562,154,o),
(519,169,o),
(483,199,cs),
(315,340,l),
(220,222,l),
(417,54,ls),
(459,19,o),
(506,0,o),
(559,0,cs)
);
},
{
alignment = -1;
ref = O;
}
);
width = 621;
},
{
layerId = "406F15BE-EF31-460D-8EE8-85AD72A74E98";
shapes = (
{
closed = 1;
nodes = (
(750,0,l),
(775,144,l),
(723,144,ls),
(685,144,o),
(661,153,o),
(638,178,cs),
(480,361,l),
(354,253,l),
(504,80,ls),
(549,28,o),
(599,0,o),
(685,0,cs)
);
},
{
alignment = -1;
ref = O;
}
);
width = 804;
},
{
background = {
shapes = (
{
closed = 1;
nodes = (
(981,0,l),
(1008,151,l),
(951,151,ls),
(905,151,o),
(860,169,o),
(828,202,cs),
(638,398,l),
(507,280,l),
(716,64,ls),
(764,15,o),
(810,0,o),
(877,0,cs)
);
}
);
};
layerId = "974B3D67-9F33-42CE-B7A8-3E18495C5B4F";
shapes = (
{
closed = 1;
nodes = (
(973,0,l),
(999,151,l),
(947,151,ls),
(885,151,o),
(858,163,o),
(826,196,cs),
(629,398,l),
(509,290,l),
(717,75,ls),
(765,26,o),
(818,0,o),
(882,0,cs)
);
},
{
alignment = -1;
ref = O;
}
);
width = 1038;
},
{
associatedMasterId = "5974A488-68BA-4ECA-A629-BBB8F5E8E8D7";
attr = {
axisRules = (
{
min = 700;
},
{
max = 90;
min = 50;
},
{
}
);
};
layerId = "AB07E267-3CF2-415A-85C2-95EABD84E5BF";
name = "9 Dec 24 at 09:06";
shapes = (
{
closed = 1;
nodes = (
(584,0,l),
(610,154,l),
(599,154,ls),
(572,154,o),
(527,165,o),
(493,199,cs),
(443,247,l),
(348,129,l),
(427,54,ls),
(467,15,o),
(516,0,o),
(569,0,cs)
);
},
{
alignment = -1;
ref = O;
}
);
width = 637;
},
{
associatedMasterId = "406F15BE-EF31-460D-8EE8-85AD72A74E98";
attr = {
axisRules = (
{
min = 700;
},
{
max = 90;
min = 50;
},
{
}
);
};
layerId = "A8DADDB5-2A6F-4BBC-AC78-3981F662482B";
name = "9 Dec 24 at 09:07";
shapes = (
{
closed = 1;
nodes = (
(750,0,l),
(775,144,l),
(723,144,ls),
(685,144,o),
(661,153,o),
(638,178,cs),
(597,226,l),
(472,116,l),
(504,80,ls),
(549,28,o),
(599,0,o),
(685,0,cs)
);
},
{
alignment = -1;
ref = O;
}
);
width = 804;
}
);
metricLeft = O;
unicode = 81;
},
{
glyphname = R;
kernLeft = H;
kernRight = R;
lastChange = "2024-12-06 10:39:41 +0000";
layers = (
{
anchors = (
{
name = bottom;
pos = (247,0);
},
{
name = top;
pos = (312,714);
}
);
layerId = "3A742E95-6392-47DA-98D0-C770A5889573";
shapes = (
{
closed = 1;
nodes = (
(95,0,l),
(151,322,l),
(278,322,ls),
(335,322,o),
(358,302,o),
(362,249,cs),
(382,0,l),
(443,0,l),
(421,247,ls),
(416,296,o),
(406,341,o),
(342,354,c),
(439,380,o),
(490,465,o),
(490,554,cs),
(490,647,o),
(434,714,o),
(333,714,cs),
(163,714,l),
(37,0,l)
);
},
{
closed = 1;
nodes = (
(212,666,l),
(322,666,ls),
(387,666,o),
(428,627,o),
(428,550,cs),
(428,457,o),
(361,370,o),
(257,370,cs),
(160,370,l)
);
}
);
width = 518;
},
{
anchors = (
{
name = bottom;
pos = (333,0);
},
{
name = top;
pos = (399,714);
}
);
layerId = "DA512DF4-6FCD-4164-96D6-05DE8967F50A";
shapes = (
{
closed = 1;
nodes = (
(134,0,l),
(186,293,l),
(407,293,ls),
(456,293,o),
(485,272,o),
(490,225,cs),
(515,0,l),
(614,0,l),
(586,214,ls),
(577,287,o),
(563,313,o),
(510,332,c),
(609,364,o),
(665,453,o),
(665,544,cs),
(665,652,o),
(595,714,o),
(482,714,cs),
(165,714,l),
(40,0,l)
);
},
{
closed = 1;
nodes = (
(246,635,l),
(457,635,ls),
(528,635,o),
(567,598,o),
(567,535,cs),
(567,447,o),
(501,372,o),
(404,372,cs),
(200,372,l)
);
}
);
width = 707;
},
{
anchors = (
{
name = bottom;
pos = (251,0);
},
{
name = top;
pos = (320,714);
}
);
background = {
shapes = (
{
closed = 1;
nodes = (
(208,0,l),
(208,309,l),
(318,309,ls),
(369,309,o),
(396,287,o),
(407,238,cs),
(465,0,l),
(554,0,l),
(495,236,ls),
(480,291,o),
(462,332,o),
(396,350,c),
(471,376,o),
(509,446,o),
(509,530,cs),
(509,644,o),
(436,714,o),
(312,714,cs),
(124,714,l),
(124,0,l)
);
},
{
closed = 1;
nodes = (
(208,647,l),
(304,647,ls),
(372,647,o),
(421,602,o),
(421,515,cs),
(421,428,o),
(368,376,o),
(296,376,cs),
(208,376,l)
);
}
);
};
layerId = "0A603DC7-0F9F-4E29-AC1C-80B527B5555F";
shapes = (
{
closed = 1;
nodes = (
(113,0,l),
(167,309,l),
(277,309,ls),
(331,309,o),
(352,291,o),
(356,240,cs),
(373,0,l),
(460,0,l),
(440,238,ls),
(435,292,o),
(422,338,o),
(356,352,c),
(459,378,o),
(509,464,o),
(509,550,cs),
(509,647,o),
(447,714,o),
(339,714,cs),
(155,714,l),
(29,0,l)
);
},
{
closed = 1;
nodes = (
(227,647,l),
(325,647,ls),
(382,647,o),
(420,611,o),
(420,541,cs),
(420,453,o),
(356,376,o),
(266,376,cs),
(180,376,l)
);
}
);
width = 531;
},
{
anchors = (
{
name = bottom;
pos = (332,0);
},
{
name = top;
pos = (398,714);
}
);
layerId = "38E57698-3E0D-47EE-AD12-065B63128021";
shapes = (
{
closed = 1;
nodes = (
(107,0,l),
(162,315,l),
(412,315,ls),
(469,315,o),
(493,294,o),
(499,242,cs),
(527,0,l),
(594,0,l),
(563,232,ls),
(556,289,o),
(548,329,o),
(487,344,c),
(590,373,o),
(641,461,o),
(641,541,cs),
(641,651,o),
(569,714,o),
(469,714,cs),
(171,714,l),
(46,0,l)
);
},
{
closed = 1;
nodes = (
(223,661,l),
(457,661,ls),
(532,661,o),
(577,611,o),
(577,541,cs),
(577,452,o),
(509,368,o),
(402,368,cs),
(171,368,l)
);
}
);
width = 689;
},
{
anchors = (
{
name = bottom;
pos = (402,0);
},
{
name = top;
pos = (470,714);
}
);
layerId = "7B4F6316-DEA5-4C61-853A-FCC6E55FB2E9";
shapes = (
{
closed = 1;
nodes = (
(107,0,l),
(161,311,l),
(586,311,ls),
(642,311,o),
(667,292,o),
(672,232,cs),
(694,0,l),
(763,0,l),
(739,232,ls),
(733,289,o),
(721,327,o),
(662,344,c),
(762,372,o),
(810,463,o),
(810,543,cs),
(810,653,o),
(736,714,o),
(636,714,cs),
(163,714,l),
(38,0,l)
);
},
{
closed = 1;
nodes = (
(222,657,l),
(619,657,ls),
(690,657,o),
(736,611,o),
(736,541,cs),
(736,452,o),
(677,368,o),
(570,368,cs),
(171,368,l)
);
}
);
width = 856;
},
{
anchors = (
{
name = bottom;
pos = (410,0);
},
{
name = top;
pos = (478,714);
}
);
layerId = "FF0E7F91-EBB7-4227-9826-320229507C52";
shapes = (
{
closed = 1;
nodes = (
(133,0,l),
(184,298,l),
(572,298,ls),
(630,298,o),
(656,278,o),
(662,217,cs),
(682,0,l),
(782,0,l),
(758,223,ls),
(751,285,o),
(736,324,o),
(672,341,c),
(775,368,o),
(826,458,o),
(826,540,cs),
(826,651,o),
(750,714,o),
(644,714,cs),
(158,714,l),
(33,0,l)
);
},
{
closed = 1;
nodes = (
(244,634,l),
(615,634,ls),
(679,634,o),
(722,596,o),
(722,530,cs),
(722,448,o),
(665,377,o),
(571,377,cs),
(198,377,l)
);
}
);
width = 869;
},
{
anchors = (
{
name = bottom;
pos = (265,0);
},
{
name = top;
pos = (347,714);
}
);
layerId = "5974A488-68BA-4ECA-A629-BBB8F5E8E8D7";
shapes = (
{
closed = 1;
nodes = (
(187,0,l),
(232,259,l),
(268,259,ls),
(306,259,o),
(322,245,o),
(324,204,cs),
(331,0,l),
(528,0,l),
(516,198,ls),
(511,277,o),
(484,324,o),
(413,342,c),
(537,369,o),
(582,457,o),
(582,531,cs),
(582,648,o),
(497,714,o),
(362,714,cs),
(118,714,l),
(-8,0,l)
);
},
{
closed = 1;
nodes = (
(285,562,l),
(332,562,ls),
(357,562,o),
(379,543,o),
(379,501,cs),
(379,435,o),
(330,411,o),
(297,411,cs),
(259,411,l)
);
}
);
width = 581;
},
{
anchors = (
{
name = bottom;
pos = (357,0);
},
{
name = top;
pos = (409,714);
}
);
layerId = "406F15BE-EF31-460D-8EE8-85AD72A74E98";
shapes = (
{
closed = 1;
nodes = (
(209,0,l),
(254,248,l),
(363,248,ls),
(418,248,o),
(456,226,o),
(462,169,cs),
(482,0,l),
(692,0,l),
(666,188,ls),
(654,268,o),
(619,310,o),
(538,329,c),
(656,354,o),
(715,441,o),
(715,528,cs),
(715,641,o),
(630,714,o),
(495,714,cs),
(135,714,l),
(9,0,l)
);
},
{
closed = 1;
nodes = (
(308,558,l),
(447,558,ls),
(486,558,o),
(510,531,o),
(510,490,cs),
(510,429,o),
(461,405,o),
(419,405,cs),
(280,405,l)
);
}
);
width = 755;
},
{
anchors = (
{
name = bottom;
pos = (443,0);
},
{
name = top;
pos = (512,714);
}
);
layerId = "974B3D67-9F33-42CE-B7A8-3E18495C5B4F";
shapes = (
{
closed = 1;
nodes = (
(233,0,l),
(276,243,l),
(515,243,ls),
(586,243,o),
(610,222,o),
(617,157,cs),
(636,0,l),
(860,0,l),
(833,188,ls),
(822,268,o),
(797,310,o),
(712,329,c),
(829,353,o),
(893,439,o),
(893,528,cs),
(893,641,o),
(805,714,o),
(669,714,cs),
(138,714,l),
(12,0,l)
);
},
{
closed = 1;
nodes = (
(329,547,l),
(600,547,ls),
(638,547,o),
(664,531,o),
(664,489,cs),
(664,429,o),
(615,410,o),
(574,410,cs),
(306,410,l)
);
}
);
width = 927;
}
);
metricLeft = H;
unicode = 82;
},
{
glyphname = S;
kernLeft = S;
kernRight = S;
lastChange = "2024-12-09 15:14:29 +0000";
layers = (
{
anchors = (
{
name = bottom;
pos = (209,0);
},
{
name = top;
pos = (315,714);
}
);
layerId = "3A742E95-6392-47DA-98D0-C770A5889573";
shapes = (
{
closed = 1;
nodes = (
(354,-12,o),
(419,88,o),
(419,205,cs),
(419,289,o),
(376,340,o),
(319,370,cs),
(254,404,ls),
(205,430,o),
(173,467,o),
(173,530,cs),
(173,611,o),
(226,676,o),
(308,676,cs),
(388,676,o),
(408,629,o),
(408,558,c),
(467,558,l),
(475,662,o),
(421,726,o),
(313,726,cs),
(189,726,o),
(112,641,o),
(112,527,cs),
(112,434,o),
(152,392,o),
(215,359,cs),
(280,325,ls),
(326,301,o),
(357,261,o),
(357,202,cs),
(357,115,o),
(310,38,o),
(214,38,cs),
(128,38,o),
(90,96,o),
(99,185,c),
(39,185,l),
(24,69,o),
(88,-12,o),
(209,-12,cs)
);
}
);
width = 485;
},
{
anchors = (
{
name = bottom;
pos = (308,0);
},
{
name = top;
pos = (396,714);
}
);
layerId = "DA512DF4-6FCD-4164-96D6-05DE8967F50A";
shapes = (
{
closed = 1;
nodes = (
(461,-13,o),
(605,60,o),
(605,212,cs),
(605,324,o),
(515,369,o),
(442,389,cs),
(308,423,ls),
(248,440,o),
(201,460,o),
(201,529,cs),
(201,595,o),
(269,651,o),
(375,651,cs),
(477,651,o),
(523,602,o),
(537,527,c),
(634,527,l),
(625,654,o),
(528,727,o),
(382,727,cs),
(230,727,o),
(107,651,o),
(107,517,cs),
(107,401,o),
(194,360,o),
(277,339,cs),
(406,305,ls),
(477,287,o),
(510,249,o),
(510,203,cs),
(510,116,o),
(414,64,o),
(316,64,cs),
(194,64,o),
(144,120,o),
(134,207,c),
(37,207,l),
(42,70,o),
(148,-13,o),
(313,-13,cs)
);
}
);
width = 662;
},
{
anchors = (
{
name = bottom;
pos = (209,0);
},
{
name = top;
pos = (315,714);
}
);
guides = (
{
pos = (124,191);
},
{
pos = (243,56);
},
{
pos = (340,552);
},
{
pos = (235,658);
}
);
layerId = "0A603DC7-0F9F-4E29-AC1C-80B527B5555F";
shapes = (
{
closed = 1;
nodes = (
(359,-12,o),
(431,87,o),
(431,208,cs),
(431,292,o),
(389,346,o),
(328,378,cs),
(260,414,ls),
(216,437,o),
(186,470,o),
(186,528,cs),
(186,601,o),
(233,658,o),
(305,658,cs),
(375,658,o),
(393,615,o),
(393,552,c),
(477,552,l),
(486,660,o),
(427,726,o),
(312,726,cs),
(178,726,o),
(100,637,o),
(100,522,cs),
(100,429,o),
(143,384,o),
(207,349,cs),
(273,313,ls),
(315,290,o),
(343,256,o),
(343,202,cs),
(343,124,o),
(299,56,o),
(216,56,cs),
(137,56,o),
(106,113,o),
(114,191,c),
(29,191,l),
(13,72,o),
(79,-12,o),
(209,-12,cs)
);
}
);
width = 485;
},
{
anchors = (
{
name = bottom;
pos = (296,0);
},
{
name = top;
pos = (384,714);
}
);
guides = (
{
pos = (75,198);
},
{
pos = (495,522);
}
);
layerId = "38E57698-3E0D-47EE-AD12-065B63128021";
shapes = (
{
closed = 1;
nodes = (
(463,-12,o),
(581,73,o),
(581,200,cs),
(581,306,o),
(498,355,o),
(414,378,cs),
(289,413,ls),
(233,428,o),
(177,453,o),
(177,527,cs),
(177,613,o),
(267,673,o),
(370,673,cs),
(475,673,o),
(530,619,o),
(544,532,c),
(607,532,l),
(598,650,o),
(513,726,o),
(373,726,cs),
(229,726,o),
(113,643,o),
(113,528,cs),
(113,406,o),
(202,373,o),
(282,351,cs),
(407,316,ls),
(468,299,o),
(517,259,o),
(517,195,cs),
(517,103,o),
(418,41,o),
(308,41,cs),
(186,41,o),
(111,104,o),
(103,202,c),
(40,202,l),
(42,68,o),
(151,-12,o),
(304,-12,cs)
);
}
);
width = 644;
},
{
anchors = (
{
name = bottom;
pos = (391,0);
},
{
name = top;
pos = (476,714);
}
);
layerId = "7B4F6316-DEA5-4C61-853A-FCC6E55FB2E9";
shapes = (
{
closed = 1;
nodes = (
(614,-14,o),
(759,57,o),
(759,205,cs),
(759,305,o),
(690,365,o),
(543,385,cs),
(351,410,ls),
(244,424,o),
(188,457,o),
(188,521,cs),
(188,616,o),
(294,670,o),
(457,670,cs),
(642,670,o),
(702,606,o),
(706,526,c),
(776,526,l),
(777,683,o),
(619,728,o),
(459,728,cs),
(286,728,o),
(114,667,o),
(114,517,cs),
(114,405,o),
(215,365,o),
(318,351,cs),
(521,323,ls),
(626,309,o),
(685,275,o),
(685,197,cs),
(685,101,o),
(576,44,o),
(397,44,cs),
(172,44,o),
(114,122,o),
(111,213,c),
(40,213,l),
(36,95,o),
(112,-14,o),
(391,-14,cs)
);
}
);
width = 819;
},
{
anchors = (
{
name = bottom;
pos = (395,0);
},
{
name = top;
pos = (483,714);
}
);
layerId = "FF0E7F91-EBB7-4227-9826-320229507C52";
shapes = (
{
closed = 1;
nodes = (
(617,-14,o),
(776,54,o),
(776,212,cs),
(776,315,o),
(702,374,o),
(555,394,cs),
(354,421,ls),
(261,434,o),
(212,462,o),
(212,518,cs),
(212,602,o),
(311,648,o),
(461,648,cs),
(630,648,o),
(687,596,o),
(694,524,c),
(795,524,l),
(792,679,o),
(630,728,o),
(467,728,cs),
(287,728,o),
(108,663,o),
(108,511,cs),
(108,393,o),
(212,353,o),
(325,338,cs),
(531,310,ls),
(621,297,o),
(671,268,o),
(671,201,cs),
(671,112,o),
(567,66,o),
(404,66,cs),
(202,66,o),
(143,132,o),
(138,214,c),
(36,214,l),
(37,85,o),
(134,-14,o),
(395,-14,cs)
);
}
);
width = 831;
},
{
anchors = (
{
name = bottom;
pos = (230,0);
},
{
name = top;
pos = (338,714);
}
);
layerId = "5974A488-68BA-4ECA-A629-BBB8F5E8E8D7";
shapes = (
{
closed = 1;
nodes = (
(404,-13,o),
(504,83,o),
(504,221,cs),
(504,304,o),
(466,367,o),
(389,411,cs),
(306,455,ls),
(286,468,o),
(266,483,o),
(266,518,cs),
(266,557,o),
(286,582,o),
(311,582,cs),
(340,582,o),
(352,553,o),
(350,516,c),
(544,516,l),
(557,652,o),
(473,727,o),
(332,727,cs),
(155,727,o),
(68,618,o),
(68,499,cs),
(68,407,o),
(117,349,o),
(191,307,cs),
(265,266,ls),
(290,250,o),
(302,236,o),
(302,202,cs),
(302,163,o),
(276,135,o),
(247,135,cs),
(199,135,o),
(198,186,o),
(202,221,c),
(8,221,l),
(-14,86,o),
(68,-13,o),
(236,-13,cs)
);
}
);
width = 530;
},
{
anchors = (
{
name = bottom;
pos = (325,0);
},
{
name = top;
pos = (411,714);
}
);
layerId = "406F15BE-EF31-460D-8EE8-85AD72A74E98";
shapes = (
{
closed = 1;
nodes = (
(491,-13,o),
(644,64,o),
(644,234,cs),
(644,336,o),
(572,393,o),
(468,421,cs),
(333,459,ls),
(300,468,o),
(277,482,o),
(277,513,cs),
(277,555,o),
(317,581,o),
(369,581,cs),
(421,581,o),
(454,559,o),
(461,516,c),
(662,516,l),
(669,653,o),
(553,727,o),
(395,727,cs),
(229,727,o),
(74,643,o),
(74,489,cs),
(74,356,o),
(166,315,o),
(274,286,cs),
(382,257,ls),
(418,246,o),
(437,231,o),
(437,206,cs),
(437,160,o),
(385,139,o),
(334,139,cs),
(282,139,o),
(232,158,o),
(223,218,c),
(24,218,l),
(22,69,o),
(149,-13,o),
(330,-13,cs)
);
}
);
width = 682;
},
{
anchors = (
{
name = bottom;
pos = (412,0);
},
{
name = top;
pos = (513,714);
}
);
layerId = "974B3D67-9F33-42CE-B7A8-3E18495C5B4F";
shapes = (
{
closed = 1;
nodes = (
(629,-14,o),
(845,43,o),
(845,242,cs),
(845,357,o),
(753,411,o),
(607,432,cs),
(364,467,ls),
(334,471,o),
(315,481,o),
(315,506,cs),
(315,545,o),
(382,576,o),
(475,576,cs),
(584,576,o),
(626,556,o),
(643,518,c),
(869,518,l),
(849,665,o),
(676,728,o),
(500,728,cs),
(289,728,o),
(84,649,o),
(84,486,cs),
(84,343,o),
(201,311,o),
(354,289,cs),
(572,257,ls),
(600,253,o),
(615,240,o),
(615,219,cs),
(615,160,o),
(528,138,o),
(432,138,cs),
(326,138,o),
(261,168,o),
(245,216,c),
(19,216,l),
(39,42,o),
(221,-14,o),
(414,-14,cs)
);
}
);
width = 880;
}
);
unicode = 83;
},
{
glyphname = Germandbls;
kernLeft = H;
kernRight = B;
lastChange = "2024-12-06 10:39:41 +0000";
layers = (
{
layerId = "3A742E95-6392-47DA-98D0-C770A5889573";
shapes = (
{
closed = 1;
nodes = (
(95,0,l),
(212,666,l),
(327,666,ls),
(391,666,o),
(428,623,o),
(428,563,cs),
(428,488,o),
(366,399,o),
(284,399,cs),
(248,399,l),
(239,348,l),
(284,348,ls),
(355,348,o),
(397,295,o),
(397,216,cs),
(397,125,o),
(333,48,o),
(227,48,cs),
(173,48,l),
(165,0,l),
(226,0,ls),
(371,0,o),
(457,98,o),
(457,210,cs),
(457,305,o),
(400,366,o),
(331,376,c),
(434,401,o),
(489,495,o),
(489,569,cs),
(489,646,o),
(432,714,o),
(341,714,cs),
(163,714,l),
(37,0,l)
);
}
);
width = 509;
},
{
layerId = "DA512DF4-6FCD-4164-96D6-05DE8967F50A";
shapes = (
{
closed = 1;
nodes = (
(133,0,l),
(246,640,l),
(418,640,ls),
(483,640,o),
(519,603,o),
(519,547,cs),
(519,486,o),
(471,411,o),
(386,411,cs),
(309,411,l),
(297,336,l),
(391,336,ls),
(475,336,o),
(509,278,o),
(509,222,cs),
(509,131,o),
(435,75,o),
(325,75,cs),
(239,75,l),
(226,0,l),
(327,0,ls),
(493,0,o),
(605,94,o),
(605,223,cs),
(605,301,o),
(554,361,o),
(457,379,c),
(572,408,o),
(615,492,o),
(615,562,cs),
(615,654,o),
(557,714,o),
(438,714,cs),
(165,714,l),
(40,0,l)
);
}
);
width = 656;
},
{
layerId = "0A603DC7-0F9F-4E29-AC1C-80B527B5555F";
shapes = (
{
closed = 1;
nodes = (
(113,0,l),
(227,647,l),
(331,647,ls),
(391,647,o),
(423,608,o),
(423,554,cs),
(423,483,o),
(366,408,o),
(294,408,cs),
(263,408,l),
(250,339,l),
(290,339,ls),
(356,339,o),
(393,291,o),
(393,220,cs),
(393,136,o),
(334,68,o),
(239,68,cs),
(190,68,l),
(178,0,l),
(241,0,ls),
(394,0,o),
(479,102,o),
(479,214,cs),
(479,306,o),
(426,366,o),
(354,378,c),
(457,403,o),
(509,493,o),
(509,565,cs),
(509,645,o),
(451,714,o),
(351,714,cs),
(155,714,l),
(29,0,l)
);
}
);
width = 525;
},
{
guides = (
{
angle = 260;
pos = (224,0);
},
{
angle = 180;
pos = (294,52);
},
{
angle = 180;
pos = (269,340);
},
{
angle = 180;
pos = (269,391);
},
{
angle = 180;
pos = (147,648);
}
);
layerId = "38E57698-3E0D-47EE-AD12-065B63128021";
shapes = (
{
closed = 1;
nodes = (
(107,0,l),
(223,661,l),
(409,661,ls),
(487,661,o),
(529,624,o),
(529,555,cs),
(529,475,o),
(470,399,o),
(375,399,cs),
(299,399,l),
(290,347,l),
(383,347,ls),
(481,347,o),
(515,286,o),
(515,219,cs),
(515,102,o),
(437,53,o),
(295,53,cs),
(229,53,l),
(219,0,l),
(318,0,ls),
(464,0,o),
(578,69,o),
(578,218,cs),
(578,310,o),
(523,366,o),
(443,377,c),
(550,403,o),
(592,490,o),
(592,563,cs),
(592,662,o),
(523,714,o),
(423,714,cs),
(171,714,l),
(46,0,l)
);
}
);
width = 639;
},
{
layerId = "7B4F6316-DEA5-4C61-853A-FCC6E55FB2E9";
shapes = (
{
closed = 1;
nodes = (
(107,0,l),
(222,657,l),
(596,657,ls),
(664,657,o),
(708,624,o),
(708,554,cs),
(708,477,o),
(648,401,o),
(562,401,cs),
(374,401,l),
(365,345,l),
(569,345,ls),
(663,345,o),
(696,285,o),
(696,218,cs),
(696,103,o),
(617,57,o),
(481,57,cs),
(293,57,l),
(284,0,l),
(505,0,ls),
(653,0,o),
(769,69,o),
(769,215,cs),
(769,307,o),
(710,366,o),
(628,376,c),
(732,399,o),
(780,490,o),
(780,560,cs),
(780,661,o),
(710,714,o),
(610,714,cs),
(163,714,l),
(38,0,l)
);
}
);
width = 837;
},
{
layerId = "FF0E7F91-EBB7-4227-9826-320229507C52";
shapes = (
{
closed = 1;
nodes = (
(132,0,l),
(244,635,l),
(605,635,ls),
(666,635,o),
(705,606,o),
(705,544,cs),
(705,474,o),
(650,410,o),
(574,410,cs),
(389,410,l),
(376,336,l),
(576,336,ls),
(659,336,o),
(690,284,o),
(690,223,cs),
(690,121,o),
(620,79,o),
(499,79,cs),
(308,79,l),
(295,0,l),
(526,0,ls),
(675,0,o),
(794,71,o),
(794,217,cs),
(794,303,o),
(741,363,o),
(654,376,c),
(755,400,o),
(805,485,o),
(805,557,cs),
(805,654,o),
(738,714,o),
(627,714,cs),
(158,714,l),
(33,0,l)
);
}
);
width = 855;
},
{
layerId = "5974A488-68BA-4ECA-A629-BBB8F5E8E8D7";
shapes = (
{
closed = 1;
nodes = (
(187,0,l),
(287,564,l),
(343,564,ls),
(384,564,o),
(396,545,o),
(396,513,cs),
(396,462,o),
(361,445,o),
(329,445,cs),
(320,445,l),
(294,302,l),
(312,302,ls),
(354,302,o),
(369,274,o),
(369,238,cs),
(369,181,o),
(332,152,o),
(288,152,cs),
(257,152,l),
(231,0,l),
(303,0,ls),
(488,0,o),
(568,119,o),
(568,231,cs),
(568,309,o),
(531,364,o),
(449,385,c),
(549,410,o),
(587,485,o),
(587,550,cs),
(587,641,o),
(527,714,o),
(391,714,cs),
(118,714,l),
(-8,0,l)
);
}
);
width = 590;
},
{
layerId = "406F15BE-EF31-460D-8EE8-85AD72A74E98";
shapes = (
{
closed = 1;
nodes = (
(209,0,l),
(309,566,l),
(407,566,ls),
(450,566,o),
(469,544,o),
(469,511,cs),
(469,460,o),
(436,442,o),
(395,442,cs),
(357,442,l),
(334,304,l),
(396,304,ls),
(432,304,o),
(452,278,o),
(452,243,cs),
(452,196,o),
(419,155,o),
(355,155,cs),
(305,155,l),
(278,0,l),
(373,0,ls),
(528,0,o),
(655,78,o),
(655,224,cs),
(655,289,o),
(624,354,o),
(520,383,c),
(607,403,o),
(665,462,o),
(665,547,cs),
(665,625,o),
(616,714,o),
(457,714,cs),
(135,714,l),
(9,0,l)
);
}
);
width = 689;
},
{
layerId = "974B3D67-9F33-42CE-B7A8-3E18495C5B4F";
shapes = (
{
closed = 1;
nodes = (
(232,0,l),
(329,547,l),
(642,547,ls),
(673,547,o),
(692,533,o),
(692,502,cs),
(692,463,o),
(658,449,o),
(624,449,cs),
(446,449,l),
(419,296,l),
(607,296,ls),
(644,296,o),
(666,276,o),
(666,243,cs),
(666,197,o),
(631,167,o),
(569,167,cs),
(370,167,l),
(341,0,l),
(613,0,ls),
(769,0,o),
(894,79,o),
(894,225,cs),
(894,288,o),
(863,351,o),
(757,375,c),
(847,402,o),
(904,462,o),
(904,547,cs),
(904,625,o),
(856,714,o),
(698,714,cs),
(138,714,l),
(12,0,l)
);
}
);
width = 923;
}
);
metricLeft = H;
unicode = 7838;
},
{
glyphname = T;
kernLeft = T;
kernRight = T;
lastChange = "2024-12-10 07:45:41 +0000";
layers = (
{
anchors = (
{
name = bottom;
pos = (173,0);
},
{
name = center;
pos = (237,365);
},
{
name = top;
pos = (299,714);
}
);
layerId = "3A742E95-6392-47DA-98D0-C770A5889573";
shapes = (
{
closed = 1;
nodes = (
(202,0,l),
(319,666,l),
(488,666,l),
(497,714,l),
(101,714,l),
(92,666,l),
(261,666,l),
(144,0,l)
);
}
);
width = 436;
},
{
anchors = (
{
name = bottom;
pos = (262,0);
},
{
name = center;
pos = (325,357);
},
{
name = top;
pos = (389,714);
}
);
layerId = "DA512DF4-6FCD-4164-96D6-05DE8967F50A";
shapes = (
{
closed = 1;
nodes = (
(309,0,l),
(421,634,l),
(658,634,l),
(673,714,l),
(105,714,l),
(91,634,l),
(328,634,l),
(215,0,l)
);
}
);
width = 616;
},
{
anchors = (
{
name = bottom;
pos = (177,0);
},
{
name = center;
pos = (241,365);
},
{
name = top;
pos = (303,714);
}
);
layerId = "0A603DC7-0F9F-4E29-AC1C-80B527B5555F";
shapes = (
{
closed = 1;
nodes = (
(219,0,l),
(332,647,l),
(495,647,l),
(508,714,l),
(97,714,l),
(85,647,l),
(249,647,l),
(136,0,l)
);
}
);
width = 443;
},
{
anchors = (
{
name = bottom;
pos = (256,0);
},
{
name = center;
pos = (321,365);
},
{
name = top;
pos = (384,714);
}
);
layerId = "38E57698-3E0D-47EE-AD12-065B63128021";
shapes = (
{
closed = 1;
nodes = (
(287,0,l),
(404,661,l),
(647,661,l),
(656,714,l),
(109,714,l),
(100,661,l),
(343,661,l),
(226,0,l)
);
}
);
width = 604;
},
{
anchors = (
{
name = bottom;
pos = (341,0);
},
{
name = center;
pos = (402,365);
},
{
name = top;
pos = (464,714);
}
);
layerId = "7B4F6316-DEA5-4C61-853A-FCC6E55FB2E9";
shapes = (
{
closed = 1;
nodes = (
(372,0,l),
(489,657,l),
(815,657,l),
(825,714,l),
(103,714,l),
(93,657,l),
(419,657,l),
(303,0,l)
);
}
);
width = 766;
},
{
anchors = (
{
name = bottom;
pos = (349,0);
},
{
name = center;
pos = (410,365);
},
{
name = top;
pos = (472,714);
}
);
layerId = "FF0E7F91-EBB7-4227-9826-320229507C52";
shapes = (
{
closed = 1;
nodes = (
(396,0,l),
(508,634,l),
(828,634,l),
(843,714,l),
(103,714,l),
(89,634,l),
(409,634,l),
(297,0,l)
);
}
);
width = 784;
},
{
anchors = (
{
name = bottom;
pos = (202,0);
},
{
name = center;
pos = (266,365);
},
{
name = top;
pos = (328,714);
}
);
layerId = "5974A488-68BA-4ECA-A629-BBB8F5E8E8D7";
shapes = (
{
closed = 1;
nodes = (
(300,0,l),
(399,561,l),
(538,561,l),
(565,714,l),
(92,714,l),
(65,561,l),
(204,561,l),
(105,0,l)
);
}
);
width = 495;
},
{
anchors = (
{
name = bottom;
pos = (282,0);
},
{
name = center;
pos = (346,365);
},
{
name = top;
pos = (408,714);
}
);
layerId = "406F15BE-EF31-460D-8EE8-85AD72A74E98";
shapes = (
{
closed = 1;
nodes = (
(381,0,l),
(478,551,l),
(684,551,l),
(713,714,l),
(103,714,l),
(74,551,l),
(279,551,l),
(182,0,l)
);
}
);
width = 654;
},
{
anchors = (
{
name = bottom;
pos = (380,0);
},
{
name = center;
pos = (445,365);
},
{
name = top;
pos = (507,714);
}
);
layerId = "974B3D67-9F33-42CE-B7A8-3E18495C5B4F";
shapes = (
{
closed = 1;
nodes = (
(491,0,l),
(588,549,l),
(882,549,l),
(911,714,l),
(103,714,l),
(74,549,l),
(367,549,l),
(269,0,l)
);
}
);
width = 853;
}
);
unicode = 84;
},
{
glyphname = U;
kernLeft = U;
kernRight = U;
lastChange = "2024-12-06 10:39:41 +0000";
layers = (
{
anchors = (
{
name = bottom;
pos = (219,0);
},
{
name = ogonek;
pos = (317,5);
},
{
name = top;
pos = (345,714);
},
{
name = topright;
pos = (687,714);
}
);
layerId = "3A742E95-6392-47DA-98D0-C770A5889573";
shapes = (
{
closed = 1;
nodes = (
(348,-12,o),
(417,59,o),
(438,176,cs),
(533,714,l),
(478,714,l),
(386,195,ls),
(368,91,o),
(312,38,o),
(230,38,cs),
(147,38,o),
(103,93,o),
(120,191,cs),
(213,714,l),
(155,714,l),
(62,191,ls),
(41,69,o),
(106,-12,o),
(225,-12,cs)
);
}
);
width = 526;
},
{
anchors = (
{
name = bottom;
pos = (306,0);
},
{
name = ogonek;
pos = (447,10);
},
{
name = top;
pos = (432,714);
},
{
name = topright;
pos = (777,714);
}
);
layerId = "DA512DF4-6FCD-4164-96D6-05DE8967F50A";
shapes = (
{
closed = 1;
nodes = (
(476,-13,o),
(593,73,o),
(623,248,cs),
(704,714,l),
(616,714,l),
(534,249,ls),
(513,137,o),
(431,66,o),
(320,66,cs),
(213,66,o),
(149,120,o),
(171,252,cs),
(253,714,l),
(159,714,l),
(79,257,ls),
(48,80,o),
(159,-13,o),
(314,-13,cs)
);
}
);
width = 703;
},
{
anchors = (
{
name = bottom;
pos = (225,0);
},
{
name = ogonek;
pos = (327,5);
},
{
name = top;
pos = (348,714);
},
{
name = topright;
pos = (679,714);
}
);
layerId = "0A603DC7-0F9F-4E29-AC1C-80B527B5555F";
shapes = (
{
closed = 1;
nodes = (
(360,-12,o),
(433,59,o),
(455,180,cs),
(549,714,l),
(471,714,l),
(380,198,ls),
(364,105,o),
(313,56,o),
(239,56,cs),
(165,56,o),
(125,106,o),
(141,195,cs),
(233,714,l),
(149,714,l),
(57,197,ls),
(35,70,o),
(105,-12,o),
(231,-12,cs)
);
}
);
width = 537;
},
{
anchors = (
{
name = bottom;
pos = (299,0);
},
{
name = ogonek;
pos = (424,10);
},
{
name = top;
pos = (424,714);
},
{
name = topright;
pos = (753,714);
}
);
layerId = "38E57698-3E0D-47EE-AD12-065B63128021";
shapes = (
{
closed = 1;
nodes = (
(462,-12,o),
(572,89,o),
(603,259,cs),
(683,714,l),
(626,714,l),
(549,273,ls),
(522,124,o),
(435,42,o),
(313,42,cs),
(185,42,o),
(122,121,o),
(148,269,cs),
(226,714,l),
(165,714,l),
(86,263,ls),
(56,94,o),
(146,-12,o),
(307,-12,cs)
);
}
);
width = 687;
},
{
anchors = (
{
name = bottom;
pos = (377,0);
},
{
name = ogonek;
pos = (533,10);
},
{
name = top;
pos = (500,714);
},
{
name = topright;
pos = (908,714);
}
);
layerId = "7B4F6316-DEA5-4C61-853A-FCC6E55FB2E9";
shapes = (
{
closed = 1;
nodes = (
(588,-14,o),
(742,107,o),
(776,307,cs),
(848,714,l),
(783,714,l),
(714,318,ls),
(684,152,o),
(568,44,o),
(393,44,cs),
(200,44,o),
(121,151,o),
(151,316,cs),
(221,714,l),
(152,714,l),
(81,310,ls),
(46,111,o),
(154,-14,o),
(388,-14,cs)
);
}
);
width = 838;
},
{
anchors = (
{
name = bottom;
pos = (384,0);
},
{
name = ogonek;
pos = (547,10);
},
{
name = top;
pos = (505,714);
},
{
name = topright;
pos = (920,714);
}
);
layerId = "FF0E7F91-EBB7-4227-9826-320229507C52";
shapes = (
{
closed = 1;
nodes = (
(605,-14,o),
(757,104,o),
(792,308,cs),
(863,714,l),
(772,714,l),
(703,319,ls),
(676,166,o),
(567,65,o),
(403,65,cs),
(224,65,o),
(150,162,o),
(177,315,cs),
(248,714,l),
(148,714,l),
(77,314,ls),
(42,110,o),
(158,-14,o),
(395,-14,cs)
);
}
);
width = 850;
},
{
anchors = (
{
name = bottom;
pos = (241,0);
},
{
name = ogonek;
pos = (359,5);
},
{
name = top;
pos = (349,713);
},
{
name = topright;
pos = (636,714);
}
);
layerId = "5974A488-68BA-4ECA-A629-BBB8F5E8E8D7";
shapes = (
{
closed = 1;
nodes = (
(400,-13,o),
(490,59,o),
(516,200,cs),
(606,714,l),
(431,714,l),
(343,212,ls),
(334,167,o),
(305,140,o),
(267,140,cs),
(235,140,o),
(210,162,o),
(218,212,cs),
(308,714,l),
(114,714,l),
(26,221,ls),
(0,72,o),
(91,-13,o),
(249,-13,cs)
);
}
);
width = 558;
},
{
anchors = (
{
name = bottom;
pos = (306,0);
},
{
name = ogonek;
pos = (472,10);
},
{
name = top;
pos = (432,714);
},
{
name = topright;
pos = (767,714);
}
);
layerId = "406F15BE-EF31-460D-8EE8-85AD72A74E98";
shapes = (
{
closed = 1;
nodes = (
(522,-14,o),
(624,82,o),
(655,255,cs),
(735,714,l),
(556,714,l),
(474,256,ls),
(460,179,o),
(399,150,o),
(341,150,cs),
(287,150,o),
(233,176,o),
(246,251,cs),
(327,714,l),
(128,714,l),
(51,279,ls),
(19,95,o),
(129,-12,o),
(321,-13,cs)
);
}
);
width = 703;
},
{
anchors = (
{
name = bottom;
pos = (409,0);
},
{
name = ogonek;
pos = (603,10);
},
{
name = top;
pos = (525,714);
},
{
name = topright;
pos = (970,714);
}
);
layerId = "974B3D67-9F33-42CE-B7A8-3E18495C5B4F";
shapes = (
{
closed = 1;
nodes = (
(674,-14,o),
(818,93,o),
(857,315,cs),
(927,714,l),
(727,714,l),
(659,326,ls),
(641,222,o),
(564,151,o),
(447,151,cs),
(327,151,o),
(263,207,o),
(280,311,cs),
(352,714,l),
(130,714,l),
(62,329,ls),
(22,108,o),
(177,-14,o),
(426,-14,cs)
);
}
);
width = 895;
}
);
unicode = 85;
},
{
glyphname = V;
lastChange = "2024-12-06 10:39:41 +0000";
layers = (
{
layerId = "3A742E95-6392-47DA-98D0-C770A5889573";
shapes = (
{
closed = 1;
nodes = (
(226,0,l),
(532,714,l),
(473,714,l),
(193,49,l),
(207,49,l),
(161,714,l),
(101,714,l),
(156,0,l)
);
}
);
width = 471;
},
{
layerId = "DA512DF4-6FCD-4164-96D6-05DE8967F50A";
shapes = (
{
closed = 1;
nodes = (
(347,0,l),
(728,714,l),
(629,714,l),
(278,36,l),
(314,36,l),
(195,714,l),
(99,714,l),
(235,0,l)
);
}
);
width = 665;
},
{
layerId = "0A603DC7-0F9F-4E29-AC1C-80B527B5555F";
shapes = (
{
closed = 1;
nodes = (
(257,0,l),
(563,714,l),
(479,714,l),
(206,54,l),
(230,54,l),
(191,714,l),
(107,714,l),
(162,0,l)
);
}
);
width = 498;
},
{
background = {
shapes = (
{
closed = 1;
nodes = (
(310,0,l),
(693,714,l),
(632,714,l),
(258,6,l),
(292,6,l),
(171,714,l),
(105,714,l),
(237,0,l)
);
}
);
};
layerId = "38E57698-3E0D-47EE-AD12-065B63128021";
shapes = (
{
closed = 1;
nodes = (
(307,0,l),
(692,714,l),
(627,714,l),
(254,6,l),
(289,6,l),
(163,714,l),
(101,714,l),
(233,0,l)
);
}
);
width = 631;
},
{
layerId = "7B4F6316-DEA5-4C61-853A-FCC6E55FB2E9";
shapes = (
{
closed = 1;
nodes = (
(418,0,l),
(909,714,l),
(831,714,l),
(359,21,l),
(394,21,l),
(165,714,l),
(93,714,l),
(333,0,l)
);
}
);
width = 840;
},
{
layerId = "FF0E7F91-EBB7-4227-9826-320229507C52";
shapes = (
{
closed = 1;
nodes = (
(449,0,l),
(936,714,l),
(827,714,l),
(373,40,l),
(414,40,l),
(197,714,l),
(93,714,l),
(329,0,l)
);
}
);
width = 868;
},
{
layerId = "5974A488-68BA-4ECA-A629-BBB8F5E8E8D7";
shapes = (
{
closed = 1;
nodes = (
(345,0,l),
(648,714,l),
(457,714,l),
(221,77,l),
(285,77,l),
(282,714,l),
(87,714,l),
(139,0,l)
);
}
);
width = 573;
},
{
layerId = "406F15BE-EF31-460D-8EE8-85AD72A74E98";
shapes = (
{
closed = 1;
nodes = (
(434,0,l),
(797,714,l),
(592,714,l),
(343,178,l),
(341,178,l),
(292,714,l),
(91,714,l),
(191,0,l)
);
}
);
width = 726;
},
{
layerId = "974B3D67-9F33-42CE-B7A8-3E18495C5B4F";
shapes = (
{
closed = 1;
nodes = (
(577,0,l),
(1048,714,l),
(810,714,l),
(431,117,l),
(498,117,l),
(327,714,l),
(95,714,l),
(316,0,l)
);
}
);
width = 983;
}
);
unicode = 86;
},
{
glyphname = W;
kernRight = W;
lastChange = "2024-12-06 10:39:41 +0000";
layers = (
{
anchors = (
{
name = bottom;
pos = (307,0);
},
{
name = top;
pos = (436,714);
}
);
layerId = "3A742E95-6392-47DA-98D0-C770A5889573";
shapes = (
{
closed = 1;
nodes = (
(188,0,l),
(441,681,l),
(421,681,l),
(426,0,l),
(494,0,l),
(761,714,l),
(701,714,l),
(458,41,l),
(479,41,l),
(474,714,l),
(399,714,l),
(150,38,l),
(170,38,l),
(165,714,l),
(107,714,l),
(120,0,l)
);
}
);
width = 706;
},
{
anchors = (
{
name = bottom;
pos = (422,0);
},
{
name = top;
pos = (553,714);
}
);
layerId = "DA512DF4-6FCD-4164-96D6-05DE8967F50A";
shapes = (
{
closed = 1;
nodes = (
(267,0,l),
(546,626,l),
(526,627,l),
(579,0,l),
(679,0,l),
(993,714,l),
(900,714,l),
(620,49,l),
(653,49,l),
(598,714,l),
(506,714,l),
(213,49,l),
(246,49,l),
(194,714,l),
(101,714,l),
(170,0,l)
);
}
);
width = 932;
},
{
anchors = (
{
name = bottom;
pos = (324,0);
},
{
name = top;
pos = (452,714);
}
);
layerId = "0A603DC7-0F9F-4E29-AC1C-80B527B5555F";
shapes = (
{
closed = 1;
nodes = (
(214,0,l),
(454,656,l),
(431,656,l),
(433,0,l),
(532,0,l),
(797,714,l),
(714,714,l),
(483,62,l),
(506,62,l),
(503,714,l),
(403,714,l),
(166,58,l),
(187,58,l),
(189,714,l),
(105,714,l),
(116,0,l)
);
}
);
width = 740;
},
{
anchors = (
{
name = bottom;
pos = (416,0);
},
{
name = top;
pos = (544,714);
}
);
guides = (
{
angle = 90;
pos = (420,575);
}
);
layerId = "38E57698-3E0D-47EE-AD12-065B63128021";
shapes = (
{
closed = 1;
nodes = (
(248,0,l),
(548,664,l),
(526,664,l),
(585,0,l),
(652,0,l),
(982,714,l),
(921,714,l),
(605,19,l),
(637,18,l),
(575,714,l),
(515,714,l),
(203,18,l),
(233,19,l),
(167,714,l),
(105,714,l),
(181,0,l)
);
}
);
width = 925;
},
{
anchors = (
{
name = bottom;
pos = (536,0);
},
{
name = top;
pos = (671,714);
}
);
layerId = "7B4F6316-DEA5-4C61-853A-FCC6E55FB2E9";
shapes = (
{
closed = 1;
nodes = (
(312,0,l),
(669,662,l),
(652,662,l),
(775,0,l),
(857,0,l),
(1233,714,l),
(1162,714,l),
(805,30,l),
(836,30,l),
(712,714,l),
(627,714,l),
(261,30,l),
(291,30,l),
(177,714,l),
(107,714,l),
(230,0,l)
);
}
);
width = 1179;
},
{
anchors = (
{
name = bottom;
pos = (552,0);
},
{
name = top;
pos = (684,714);
}
);
layerId = "FF0E7F91-EBB7-4227-9826-320229507C52";
shapes = (
{
closed = 1;
nodes = (
(339,0,l),
(679,641,l),
(657,641,l),
(772,0,l),
(888,0,l),
(1257,714,l),
(1157,714,l),
(822,54,l),
(858,54,l),
(742,714,l),
(623,714,l),
(275,54,l),
(308,54,l),
(207,714,l),
(106,714,l),
(221,0,l)
);
}
);
width = 1201;
},
{
anchors = (
{
name = bottom;
pos = (391,0);
},
{
name = top;
pos = (517,714);
}
);
layerId = "5974A488-68BA-4ECA-A629-BBB8F5E8E8D7";
shapes = (
{
closed = 1;
nodes = (
(323,0,l),
(497,550,l),
(476,550,l),
(459,0,l),
(691,0,l),
(947,714,l),
(751,714,l),
(588,150,l),
(615,151,l),
(622,714,l),
(415,714,l),
(231,144,l),
(258,143,l),
(285,714,l),
(90,714,l),
(92,0,l)
);
}
);
width = 875;
},
{
anchors = (
{
name = bottom;
pos = (466,0);
},
{
name = top;
pos = (582,714);
}
);
layerId = "406F15BE-EF31-460D-8EE8-85AD72A74E98";
shapes = (
{
closed = 1;
nodes = (
(346,0,l),
(557,546,l),
(528,546,l),
(554,0,l),
(762,0,l),
(1068,714,l),
(867,714,l),
(654,134,l),
(697,137,l),
(672,714,l),
(486,714,l),
(269,150,l),
(306,162,l),
(291,714,l),
(91,714,l),
(144,0,l)
);
}
);
width = 997;
},
{
anchors = (
{
name = bottom;
pos = (617,0);
},
{
name = top;
pos = (738,714);
}
);
layerId = "974B3D67-9F33-42CE-B7A8-3E18495C5B4F";
shapes = (
{
closed = 1;
nodes = (
(445,0,l),
(719,551,l),
(677,551,l),
(762,0,l),
(1013,0,l),
(1348,714,l),
(1135,714,l),
(894,154,l),
(938,155,l),
(857,714,l),
(608,714,l),
(336,155,l),
(370,155,l),
(321,714,l),
(101,714,l),
(187,0,l)
);
}
);
width = 1287;
}
);
unicode = 87;
},
{
glyphname = X;
lastChange = "2024-12-06 10:58:17 +0000";
layers = (
{
layerId = "3A742E95-6392-47DA-98D0-C770A5889573";
shapes = (
{
closed = 1;
nodes = (
(42,0,l),
(269,346,l),
(243,346,l),
(348,0,l),
(409,0,l),
(282,408,l),
(270,335,l),
(528,714,l),
(461,714,l),
(252,402,l),
(278,401,l),
(181,714,l),
(120,714,l),
(240,337,l),
(248,409,l),
(-24,0,l)
);
}
);
width = 475;
},
{
layerId = "DA512DF4-6FCD-4164-96D6-05DE8967F50A";
shapes = (
{
closed = 1;
nodes = (
(81,0,l),
(360,326,l),
(332,326,l),
(493,0,l),
(597,0,l),
(393,391,l),
(393,357,l),
(708,714,l),
(602,714,l),
(348,419,l),
(376,419,l),
(234,714,l),
(130,714,l),
(317,358,l),
(317,393,l),
(-25,0,l)
);
}
);
width = 662;
},
{
layerId = "0A603DC7-0F9F-4E29-AC1C-80B527B5555F";
shapes = (
{
closed = 1;
nodes = (
(68,0,l),
(277,326,l),
(252,326,l),
(350,0,l),
(435,0,l),
(308,402,l),
(308,348,l),
(556,714,l),
(462,714,l),
(272,422,l),
(296,422,l),
(207,714,l),
(122,714,l),
(242,343,l),
(241,401,l),
(-25,0,l)
);
}
);
width = 500;
},
{
layerId = "38E57698-3E0D-47EE-AD12-065B63128021";
shapes = (
{
closed = 1;
nodes = (
(57,0,l),
(357,339,l),
(332,348,l),
(518,0,l),
(590,0,l),
(365,411,l),
(360,337,l),
(701,714,l),
(626,714,l),
(348,403,l),
(368,402,l),
(205,714,l),
(134,714,l),
(333,339,l),
(344,405,l),
(-17,0,l)
);
}
);
width = 663;
},
{
layerId = "7B4F6316-DEA5-4C61-853A-FCC6E55FB2E9";
shapes = (
{
closed = 1;
nodes = (
(65,0,l),
(451,343,l),
(411,339,l),
(672,0,l),
(757,0,l),
(456,390,l),
(458,343,l),
(878,714,l),
(784,714,l),
(424,393,l),
(454,390,l),
(206,714,l),
(121,714,l),
(407,342,l),
(415,393,l),
(-29,0,l)
);
}
);
width = 818;
},
{
layerId = "FF0E7F91-EBB7-4227-9826-320229507C52";
shapes = (
{
closed = 1;
nodes = (
(100,0,l),
(466,330,l),
(419,327,l),
(664,0,l),
(782,0,l),
(483,395,l),
(485,339,l),
(907,714,l),
(778,714,l),
(436,404,l),
(474,402,l),
(242,714,l),
(124,714,l),
(407,339,l),
(418,399,l),
(-29,0,l)
);
}
);
width = 846;
},
{
layerId = "5974A488-68BA-4ECA-A629-BBB8F5E8E8D7";
shapes = (
{
closed = 1;
nodes = (
(175,0,l),
(316,245,l),
(278,245,l),
(343,0,l),
(541,0,l),
(413,405,l),
(413,325,l),
(671,714,l),
(461,714,l),
(341,504,l),
(373,504,l),
(313,714,l),
(115,714,l),
(240,347,l),
(240,419,l),
(-35,0,l)
);
}
);
width = 600;
},
{
layerId = "406F15BE-EF31-460D-8EE8-85AD72A74E98";
shapes = (
{
closed = 1;
nodes = (
(187,0,l),
(412,286,l),
(359,286,l),
(467,0,l),
(678,0,l),
(484,408,l),
(475,333,l),
(809,714,l),
(594,714,l),
(378,444,l),
(452,445,l),
(347,714,l),
(135,714,l),
(318,347,l),
(326,420,l),
(-28,0,l)
);
}
);
width = 744;
},
{
layerId = "974B3D67-9F33-42CE-B7A8-3E18495C5B4F";
shapes = (
{
closed = 1;
nodes = (
(243,0,l),
(531,280,l),
(451,281,l),
(632,0,l),
(888,0,l),
(594,414,l),
(594,324,l),
(1024,714,l),
(753,714,l),
(482,450,l),
(560,452,l),
(390,714,l),
(135,714,l),
(409,327,l),
(428,421,l),
(-29,0,l)
);
}
);
width = 959;
}
);
unicode = 88;
},
{
glyphname = Y;
kernLeft = Y;
kernRight = Y;
lastChange = "2024-12-10 07:45:49 +0000";
layers = (
{
anchors = (
{
name = bottom;
pos = (185,0);
},
{
name = top;
pos = (311,714);
},
{
name = topleft;
pos = (82,714);
}
);
layerId = "3A742E95-6392-47DA-98D0-C770A5889573";
shapes = (
{
closed = 1;
nodes = (
(214,0,l),
(265,293,l),
(523,714,l),
(459,714,l),
(231,330,l),
(251,327,l),
(159,714,l),
(98,714,l),
(207,291,l),
(156,0,l)
);
}
);
width = 459;
},
{
anchors = (
{
name = bottom;
pos = (281,0);
},
{
name = top;
pos = (400,714);
},
{
name = topleft;
pos = (107,714);
}
);
layerId = "DA512DF4-6FCD-4164-96D6-05DE8967F50A";
shapes = (
{
closed = 1;
nodes = (
(328,0,l),
(378,278,l),
(718,714,l),
(610,714,l),
(314,317,l),
(355,326,l),
(201,714,l),
(98,714,l),
(282,276,l),
(234,0,l)
);
}
);
width = 655;
},
{
anchors = (
{
name = bottom;
pos = (193,0);
},
{
name = top;
pos = (319,714);
},
{
name = topleft;
pos = (73,714);
}
);
layerId = "0A603DC7-0F9F-4E29-AC1C-80B527B5555F";
shapes = (
{
closed = 1;
nodes = (
(235,0,l),
(286,290,l),
(543,714,l),
(453,714,l),
(237,343,l),
(266,339,l),
(182,714,l),
(95,714,l),
(202,288,l),
(152,0,l)
);
}
);
width = 476;
},
{
anchors = (
{
name = bottom;
pos = (277,0);
},
{
name = top;
pos = (395,714);
},
{
name = topleft;
pos = (114,714);
}
);
background = {
shapes = (
{
closed = 1;
nodes = (
(312,0,l),
(360,276,l),
(704,714,l),
(637,714,l),
(343,335,l),
(179,714,l),
(108,714,l),
(299,276,l),
(251,0,l)
);
}
);
};
guides = (
{
angle = 80;
pos = (242,0);
},
{
angle = 80;
pos = (302,0);
}
);
layerId = "38E57698-3E0D-47EE-AD12-065B63128021";
shapes = (
{
closed = 1;
nodes = (
(308,0,l),
(357,276,l),
(697,714,l),
(625,714,l),
(322,314,l),
(345,312,l),
(173,714,l),
(105,714,l),
(296,276,l),
(247,0,l)
);
}
);
width = 640;
},
{
anchors = (
{
name = bottom;
pos = (352,0);
},
{
name = top;
pos = (482,714);
},
{
name = topleft;
pos = (191,714);
}
);
layerId = "7B4F6316-DEA5-4C61-853A-FCC6E55FB2E9";
shapes = (
{
closed = 1;
nodes = (
(387,0,l),
(435,276,l),
(864,714,l),
(777,714,l),
(386,309,l),
(423,305,l),
(170,714,l),
(91,714,l),
(365,276,l),
(317,0,l)
);
}
);
width = 793;
},
{
anchors = (
{
name = bottom;
pos = (362,0);
},
{
name = top;
pos = (490,714);
},
{
name = topleft;
pos = (189,714);
}
);
layerId = "FF0E7F91-EBB7-4227-9826-320229507C52";
shapes = (
{
closed = 1;
nodes = (
(412,0,l),
(459,274,l),
(885,714,l),
(765,714,l),
(389,317,l),
(442,313,l),
(200,714,l),
(90,714,l),
(360,274,l),
(312,0,l)
);
}
);
width = 814;
},
{
anchors = (
{
name = bottom;
pos = (235,0);
},
{
name = top;
pos = (358,714);
},
{
name = topleft;
pos = (40,714);
}
);
layerId = "5974A488-68BA-4ECA-A629-BBB8F5E8E8D7";
shapes = (
{
closed = 1;
nodes = (
(332,0,l),
(381,276,l),
(636,714,l),
(431,714,l),
(274,397,l),
(323,389,l),
(282,714,l),
(86,714,l),
(185,275,l),
(138,0,l)
);
}
);
width = 560;
},
{
anchors = (
{
name = bottom;
pos = (307,0);
},
{
name = top;
pos = (434,714);
},
{
name = topleft;
pos = (85,714);
}
);
layerId = "406F15BE-EF31-460D-8EE8-85AD72A74E98";
shapes = (
{
closed = 1;
nodes = (
(408,0,l),
(456,271,l),
(781,714,l),
(568,714,l),
(339,373,l),
(414,360,l),
(296,714,l),
(85,714,l),
(256,269,l),
(208,0,l)
);
}
);
width = 704;
},
{
anchors = (
{
name = bottom;
pos = (408,0);
},
{
name = top;
pos = (523,714);
},
{
name = topleft;
pos = (186,714);
}
);
layerId = "974B3D67-9F33-42CE-B7A8-3E18495C5B4F";
shapes = (
{
closed = 1;
nodes = (
(519,0,l),
(565,264,l),
(975,714,l),
(720,714,l),
(406,351,l),
(520,345,l),
(327,714,l),
(91,714,l),
(343,264,l),
(298,0,l)
);
}
);
width = 906;
}
);
unicode = 89;
},
{
glyphname = Z;
kernLeft = Z;
kernRight = Z;
lastChange = "2024-12-06 10:39:41 +0000";
layers = (
{
anchors = (
{
name = bottom;
pos = (182,0);
},
{
name = center;
pos = (245,357);
},
{
name = top;
pos = (313,714);
}
);
layerId = "3A742E95-6392-47DA-98D0-C770A5889573";
shapes = (
{
closed = 1;
nodes = (
(368,0,l),
(376,48,l),
(49,48,l),
(62,35,l),
(472,660,l),
(482,714,l),
(137,714,l),
(128,666,l),
(423,666,l),
(416,679,l),
(6,54,l),
(-3,0,l)
);
}
);
width = 455;
},
{
anchors = (
{
name = bottom;
pos = (273,0);
},
{
name = center;
pos = (336,357);
},
{
name = top;
pos = (402,714);
}
);
layerId = "DA512DF4-6FCD-4164-96D6-05DE8967F50A";
shapes = (
{
closed = 1;
nodes = (
(539,0,l),
(553,80,l),
(72,80,l),
(94,41,l),
(633,620,l),
(650,714,l),
(140,714,l),
(126,634,l),
(582,634,l),
(559,671,l),
(21,94,l),
(5,0,l)
);
}
);
width = 634;
},
{
anchors = (
{
name = bottom;
pos = (186,0);
},
{
name = center;
pos = (249,357);
},
{
name = top;
pos = (314,714);
}
);
layerId = "0A603DC7-0F9F-4E29-AC1C-80B527B5555F";
shapes = (
{
closed = 1;
nodes = (
(379,0,l),
(391,68,l),
(49,68,l),
(74,36,l),
(480,639,l),
(494,714,l),
(131,714,l),
(119,646,l),
(430,646,l),
(410,678,l),
(4,75,l),
(-9,0,l)
);
}
);
width = 460;
},
{
anchors = (
{
name = bottom;
pos = (270,0);
},
{
name = center;
pos = (333,357);
},
{
name = top;
pos = (407,714);
}
);
layerId = "38E57698-3E0D-47EE-AD12-065B63128021";
shapes = (
{
closed = 1;
nodes = (
(538,0,l),
(547,53,l),
(73,53,l),
(82,41,l),
(641,651,l),
(652,714,l),
(157,714,l),
(148,661,l),
(585,661,l),
(579,673,l),
(20,63,l),
(10,0,l)
);
}
);
width = 637;
},
{
anchors = (
{
name = bottom;
pos = (346,0);
},
{
name = center;
pos = (408,357);
},
{
name = top;
pos = (476,714);
}
);
layerId = "7B4F6316-DEA5-4C61-853A-FCC6E55FB2E9";
shapes = (
{
closed = 1;
nodes = (
(690,0,l),
(699,57,l),
(53,57,l),
(72,39,l),
(791,643,l),
(803,714,l),
(139,714,l),
(129,657,l),
(747,657,l),
(727,675,l),
(10,71,l),
(-2,0,l)
);
}
);
width = 777;
},
{
anchors = (
{
name = bottom;
pos = (354,0);
},
{
name = center;
pos = (414,357);
},
{
name = top;
pos = (483,714);
}
);
layerId = "FF0E7F91-EBB7-4227-9826-320229507C52";
shapes = (
{
closed = 1;
nodes = (
(703,0,l),
(716,80,l),
(59,80,l),
(92,39,l),
(800,622,l),
(815,714,l),
(140,714,l),
(125,634,l),
(754,634,l),
(720,675,l),
(14,92,l),
(-2,0,l)
);
}
);
width = 791;
},
{
anchors = (
{
name = bottom;
pos = (210,0);
},
{
name = center;
pos = (270,357);
},
{
name = top;
pos = (326,714);
}
);
layerId = "5974A488-68BA-4ECA-A629-BBB8F5E8E8D7";
shapes = (
{
closed = 1;
nodes = (
(433,0,l),
(459,153,l),
(53,153,l),
(140,43,l),
(521,546,l),
(550,714,l),
(112,714,l),
(85,561,l),
(467,561,l),
(380,671,l),
(1,168,l),
(-29,0,l)
);
}
);
width = 494;
},
{
anchors = (
{
name = bottom;
pos = (285,0);
},
{
name = center;
pos = (332,357);
},
{
name = top;
pos = (401,714);
}
);
layerId = "406F15BE-EF31-460D-8EE8-85AD72A74E98";
shapes = (
{
closed = 1;
nodes = (
(557,0,l),
(586,162,l),
(61,162,l),
(121,41,l),
(642,535,l),
(672,714,l),
(116,714,l),
(89,552,l),
(587,552,l),
(525,673,l),
(6,179,l),
(-25,0,l)
);
}
);
width = 622;
},
{
anchors = (
{
name = bottom;
pos = (389,0);
},
{
name = center;
pos = (440,357);
},
{
name = top;
pos = (514,714);
}
);
layerId = "974B3D67-9F33-42CE-B7A8-3E18495C5B4F";
shapes = (
{
closed = 1;
nodes = (
(758,0,l),
(787,167,l),
(82,167,l),
(173,41,l),
(835,537,l),
(867,714,l),
(144,714,l),
(114,547,l),
(783,547,l),
(692,673,l),
(29,177,l),
(-2,0,l)
);
}
);
width = 845;
}
);
unicode = 90;
},
{
glyphname = a;
kernLeft = a;
kernRight = a;
lastChange = "2024-12-06 10:39:41 +0000";
layers = (
{
anchors = (
{
name = bottom;
pos = (184,0);
},
{
name = ogonek;
pos = (341,0);
},
{
name = top;
pos = (279,514);
}
);
guides = (
{
angle = 80;
pos = (341,0);
},
{
angle = 80;
pos = (284,0);
},
{
angle = 180;
pos = (93,385);
},
{
angle = 15.141;
pos = (191,234);
}
);
layerId = "3A742E95-6392-47DA-98D0-C770A5889573";
shapes = (
{
closed = 1;
nodes = (
(198,-12,o),
(259,17,o),
(301,97,c),
(284,0,l),
(341,0,l),
(404,358,ls),
(420,451,o),
(375,526,o),
(270,526,cs),
(166,526,o),
(104,463,o),
(89,385,c),
(146,385,l),
(157,434,o),
(196,479,o),
(266,479,cs),
(321,479,o),
(351,447,o),
(351,395,cs),
(351,393,ls),
(351,347,o),
(328,317,o),
(292,307,cs),
(159,271,ls),
(85,251,o),
(17,201,o),
(17,106,cs),
(17,35,o),
(64,-12,o),
(141,-12,cs)
);
},
{
closed = 1;
nodes = (
(109,36,o),
(77,59,o),
(77,111,cs),
(77,175,o),
(122,215,o),
(191,234,cs),
(276,257,ls),
(294,262,o),
(316,268,o),
(333,277,c),
(323,222,ls),
(300,94,o),
(217,36,o),
(154,36,cs)
);
}
);
width = 451;
},
{
anchors = (
{
name = bottom;
pos = (275,0);
},
{
name = ogonek;
pos = (434,0);
},
{
name = top;
pos = (322,514);
}
);
layerId = "DA512DF4-6FCD-4164-96D6-05DE8967F50A";
shapes = (
{
closed = 1;
nodes = (
(245,-13,o),
(308,7,o),
(360,86,c),
(345,0,l),
(434,0,l),
(493,336,ls),
(515,461,o),
(438,527,o),
(309,527,cs),
(202,527,o),
(112,474,o),
(92,378,c),
(183,378,l),
(199,429,o),
(239,455,o),
(304,455,cs),
(381,455,o),
(412,423,o),
(412,384,cs),
(412,382,ls),
(412,347,o),
(397,315,o),
(343,308,cs),
(216,291,ls),
(117,278,o),
(25,232,o),
(25,124,cs),
(25,42,o),
(88,-13,o),
(184,-13,cs)
);
},
{
closed = 1;
nodes = (
(149,54,o),
(117,86,o),
(117,134,cs),
(117,192,o),
(166,220,o),
(227,229,cs),
(340,246,ls),
(358,249,o),
(370,250,o),
(391,258,c),
(386,232,ls),
(366,127,o),
(293,54,o),
(211,54,cs)
);
}
);
width = 547;
},
{
anchors = (
{
name = bottom;
pos = (186,0);
},
{
name = ogonek;
pos = (353,0);
},
{
name = top;
pos = (281,514);
}
);
guides = (
{
angle = 180;
pos = (95,379);
},
{
angle = 16.7712;
pos = (195,227);
}
);
layerId = "0A603DC7-0F9F-4E29-AC1C-80B527B5555F";
shapes = (
{
closed = 1;
nodes = (
(189,-12,o),
(247,15,o),
(288,90,c),
(273,0,l),
(353,0,l),
(415,354,ls),
(432,453,o),
(382,526,o),
(272,526,cs),
(166,526,o),
(98,467,o),
(82,379,c),
(163,379,l),
(171,426,o),
(205,464,o),
(264,464,cs),
(312,464,o),
(338,436,o),
(338,391,cs),
(338,390,ls),
(338,348,o),
(319,321,o),
(277,309,cs),
(159,275,ls),
(79,252,o),
(8,204,o),
(8,107,cs),
(8,35,o),
(56,-12,o),
(132,-12,cs)
);
},
{
closed = 1;
nodes = (
(121,53,o),
(91,73,o),
(91,119,cs),
(91,176,o),
(132,208,o),
(195,227,cs),
(268,249,ls),
(284,254,o),
(307,261,o),
(320,268,c),
(311,221,ls),
(292,108,o),
(219,53,o),
(161,53,cs)
);
}
);
width = 456;
},
{
anchors = (
{
name = bottom;
pos = (217,0);
},
{
name = ogonek;
pos = (413,0);
},
{
name = top;
pos = (320,514);
}
);
guides = (
{
angle = 80;
pos = (405,0);
},
{
angle = 80;
pos = (352,0);
},
{
pos = (259,467);
}
);
layerId = "38E57698-3E0D-47EE-AD12-065B63128021";
shapes = (
{
closed = 1;
nodes = (
(240,-12,o),
(315,6,o),
(369,96,c),
(352,0,l),
(413,0,l),
(474,348,ls),
(494,456,o),
(432,526,o),
(309,526,cs),
(195,526,o),
(113,470,o),
(91,381,c),
(153,381,l),
(171,440,o),
(227,476,o),
(303,476,cs),
(388,476,o),
(418,435,o),
(418,385,cs),
(418,383,ls),
(418,333,o),
(394,310,o),
(341,304,cs),
(207,289,ls),
(110,278,o),
(29,222,o),
(29,123,cs),
(29,37,o),
(87,-12,o),
(180,-12,cs)
);
},
{
closed = 1;
nodes = (
(132,38,o),
(90,67,o),
(90,128,cs),
(90,191,o),
(143,235,o),
(222,244,cs),
(338,257,ls),
(358,259,o),
(383,263,o),
(400,270,c),
(391,220,ls),
(373,115,o),
(286,38,o),
(194,38,cs)
);
}
);
width = 532;
},
{
anchors = (
{
name = bottom;
pos = (283,0);
},
{
name = ogonek;
pos = (557,0);
},
{
name = top;
pos = (386,514);
}
);
background = {
shapes = (
{
closed = 1;
nodes = (
(355,-13,o),
(450,41,o),
(518,149,c),
(492,0,l),
(557,0,l),
(618,345,ls),
(634,439,o),
(566,528,o),
(381,528,cs),
(217,528,o),
(114,459,o),
(96,375,c),
(163,375,l),
(180,428,o),
(254,475,o),
(374,475,cs),
(530,475,o),
(563,406,o),
(556,365,cs),
(554,353,ls),
(548,322,o),
(524,317,o),
(487,313,cs),
(196,278,ls),
(119,269,o),
(22,236,o),
(22,126,cs),
(22,42,o),
(92,-13,o),
(223,-13,cs)
);
},
{
closed = 1;
nodes = (
(154,43,o),
(91,66,o),
(91,131,cs),
(91,188,o),
(139,218,o),
(212,227,cs),
(450,258,ls),
(488,263,o),
(513,267,o),
(541,275,c),
(536,250,ls),
(516,152,o),
(398,43,o),
(242,43,cs)
);
}
);
};
guides = (
{
angle = 80;
pos = (546,0);
},
{
angle = 80;
pos = (482,0);
}
);
layerId = "7B4F6316-DEA5-4C61-853A-FCC6E55FB2E9";
shapes = (
{
closed = 1;
nodes = (
(355,-13,o),
(452,40,o),
(518,149,c),
(492,0,l),
(557,0,l),
(616,337,ls),
(634,441,o),
(566,528,o),
(381,528,cs),
(217,528,o),
(114,459,o),
(96,375,c),
(163,375,l),
(180,428,o),
(254,475,o),
(374,475,cs),
(530,475,o),
(556,411,o),
(556,371,cs),
(556,370,ls),
(556,327,o),
(529,318,o),
(487,313,cs),
(196,278,ls),
(119,269,o),
(22,236,o),
(22,126,cs),
(22,42,o),
(92,-13,o),
(223,-13,cs)
);
},
{
closed = 1;
nodes = (
(154,43,o),
(91,66,o),
(91,131,cs),
(91,188,o),
(139,218,o),
(212,227,cs),
(450,258,ls),
(488,263,o),
(513,267,o),
(541,275,c),
(536,250,ls),
(516,152,o),
(398,43,o),
(242,43,cs)
);
}
);
width = 660;
},
{
anchors = (
{
name = bottom;
pos = (292,0);
},
{
name = ogonek;
pos = (572,0);
},
{
name = top;
pos = (392,514);
}
);
layerId = "FF0E7F91-EBB7-4227-9826-320229507C52";
shapes = (
{
closed = 1;
nodes = (
(344,-13,o),
(439,33,o),
(504,135,c),
(480,0,l),
(572,0,l),
(630,332,ls),
(652,449,o),
(569,528,o),
(386,528,cs),
(220,528,o),
(113,462,o),
(90,372,c),
(186,372,l),
(201,420,o),
(270,457,o),
(378,457,cs),
(518,457,o),
(544,406,o),
(544,369,cs),
(544,368,ls),
(544,329,o),
(518,320,o),
(476,315,cs),
(206,284,ls),
(118,273,o),
(18,239,o),
(18,126,cs),
(18,43,o),
(88,-13,o),
(218,-13,cs)
);
},
{
closed = 1;
nodes = (
(172,60,o),
(117,80,o),
(117,137,cs),
(117,188,o),
(160,213,o),
(222,221,cs),
(439,249,ls),
(474,253,o),
(501,258,o),
(527,265,c),
(523,245,ls),
(505,155,o),
(391,60,o),
(251,60,cs)
);
}
);
width = 670;
},
{
anchors = (
{
name = bottom;
pos = (219,0);
},
{
name = ogonek;
pos = (430,0);
},
{
name = top;
pos = (314,514);
}
);
layerId = "5974A488-68BA-4ECA-A629-BBB8F5E8E8D7";
shapes = (
{
closed = 1;
nodes = (
(178,-13,o),
(220,4,o),
(261,60,c),
(251,0,l),
(430,0,l),
(490,339,ls),
(511,461,o),
(437,527,o),
(308,527,cs),
(195,527,o),
(96,485,o),
(68,365,c),
(252,365,l),
(257,390,o),
(270,399,o),
(285,399,cs),
(297,399,o),
(308,390,o),
(308,374,cs),
(308,373,ls,{
name = "🔥";
}),
(308,349,o),
(296,330,o),
(239,311,cs),
(188,295,ls),
(79,260,o),
(-7,218,o),
(-7,109,cs),
(-7,33,o),
(48,-13,o),
(122,-13,cs)
);
},
{
closed = 1;
nodes = (
(199,120,o),
(190,134,o),
(190,151,cs),
(190,178,o),
(208,195,o),
(237,206,cs),
(259,215,ls),
(266,218,o),
(282,224,o),
(291,229,c),
(289,214,ls),
(281,168,o),
(253,120,o),
(217,120,cs)
);
}
);
width = 507;
},
{
anchors = (
{
name = bottom;
pos = (288,0);
},
{
name = ogonek;
pos = (482,0);
},
{
name = top;
pos = (342,514);
}
);
layerId = "406F15BE-EF31-460D-8EE8-85AD72A74E98";
shapes = (
{
closed = 1;
nodes = (
(205,-14,o),
(267,0,o),
(319,68,c),
(307,0,l),
(482,0,l),
(537,306,ls),
(562,447,o),
(494,528,o),
(330,528,cs),
(200,528,o),
(94,480,o),
(73,371,c),
(254,371,l),
(264,400,o),
(286,407,o),
(314,407,cs),
(342,407,o),
(360,392,o),
(360,365,cs),
(360,363,ls),
(360,332,o),
(329,320,o),
(301,315,cs),
(204,298,ls),
(97,278,o),
(8,230,o),
(8,119,cs),
(8,41,o),
(63,-14,o),
(147,-14,cs)
);
},
{
closed = 1;
nodes = (
(212,117,o),
(192,126,o),
(192,153,cs),
(192,183,o),
(223,205,o),
(260,214,cs),
(299,224,ls),
(317,228,o),
(331,232,o),
(340,237,c),
(337,222,ls),
(327,159,o),
(284,117,o),
(231,117,cs)
);
}
);
width = 573;
},
{
anchors = (
{
name = bottom;
pos = (327,0);
},
{
name = ogonek;
pos = (636,0);
},
{
name = top;
pos = (418,514);
}
);
layerId = "974B3D67-9F33-42CE-B7A8-3E18495C5B4F";
shapes = (
{
closed = 1;
nodes = (
(298,-14,o),
(384,5,o),
(448,75,c),
(435,0,l),
(636,0,l),
(691,312,ls),
(720,482,o),
(581,528,o),
(404,528,cs),
(232,528,o),
(110,473,o),
(67,360,c),
(278,360,l),
(291,385,o),
(338,398,o),
(395,398,cs),
(467,398,o),
(492,384,o),
(492,359,cs),
(492,358,ls),
(492,337,o),
(471,327,o),
(436,323,cs),
(247,305,ls),
(114,293,o),
(4,253,o),
(4,128,cs),
(4,50,o),
(73,-14,o),
(197,-14,cs)
);
},
{
closed = 1;
nodes = (
(247,122,o),
(224,136,o),
(224,160,cs),
(224,188,o),
(246,197,o),
(265,200,cs),
(394,215,ls),
(420,218,o),
(451,223,o),
(474,231,c),
(473,225,ls),
(464,165,o),
(362,122,o),
(288,122,cs)
);
}
);
width = 718;
}
);
metricRight = n;
unicode = 97;
},
{
glyphname = ae;
kernLeft = a;
kernRight = e;
lastChange = "2024-12-06 10:39:41 +0000";
layers = (
{
anchors = (
{
name = bottom;
pos = (328,0);
},
{
name = top;
pos = (418,514);
}
);
background = {
shapes = (
{
closed = 1;
nodes = (
(198,-12,o),
(259,17,o),
(301,97,c),
(284,0,l),
(341,0,l),
(404,358,ls),
(420,451,o),
(375,526,o),
(270,526,cs),
(166,526,o),
(104,463,o),
(89,385,c),
(146,385,l),
(157,434,o),
(196,479,o),
(266,479,cs),
(321,479,o),
(351,447,o),
(351,395,cs),
(351,393,ls),
(351,347,o),
(328,317,o),
(292,307,cs),
(159,271,ls),
(85,251,o),
(17,201,o),
(17,106,cs),
(17,35,o),
(64,-12,o),
(141,-12,cs)
);
},
{
closed = 1;
nodes = (
(109,36,o),
(77,59,o),
(77,111,cs),
(77,175,o),
(122,215,o),
(191,234,cs),
(276,257,ls),
(294,262,o),
(316,268,o),
(333,277,c),
(323,222,ls),
(300,94,o),
(217,36,o),
(154,36,cs)
);
}
);
};
layerId = "3A742E95-6392-47DA-98D0-C770A5889573";
shapes = (
{
closed = 1;
nodes = (
(204,-12,o),
(284,16,o),
(337,123,c),
(347,46,o),
(396,-12,o),
(491,-12,cs),
(573,-12,o),
(642,39,o),
(674,128,c),
(614,128,l),
(588,71,o),
(550,35,o),
(492,35,cs),
(380,35,o),
(384,172,o),
(391,244,c),
(701,244,l),
(731,381,o),
(714,526,o),
(563,526,cs),
(493,526,o),
(441,494,o),
(402,435,c),
(387,495,o),
(335,526,o),
(270,526,cs),
(166,526,o),
(104,463,o),
(89,385,c),
(146,385,l),
(157,434,o),
(196,479,o),
(266,479,cs),
(321,479,o),
(351,447,o),
(351,395,cs),
(351,393,ls),
(351,347,o),
(328,317,o),
(292,307,cs),
(159,270,ls),
(85,249,o),
(17,199,o),
(17,106,cs),
(17,35,o),
(64,-12,o),
(141,-12,cs)
);
},
{
closed = 1;
nodes = (
(109,36,o),
(77,59,o),
(77,111,cs),
(77,171,o),
(122,214,o),
(191,233,cs),
(276,257,ls),
(294,262,o),
(314,266,o),
(333,277,c),
(323,222,ls),
(300,94,o),
(217,36,o),
(154,36,cs)
);
},
{
closed = 1;
nodes = (
(417,383,o),
(462,479,o),
(560,479,cs),
(666,479,o),
(665,368,o),
(653,291,c),
(398,291,l)
);
}
);
width = 746;
},
{
anchors = (
{
name = bottom;
pos = (410,0);
},
{
name = top;
pos = (500,514);
}
);
background = {
shapes = (
{
closed = 1;
nodes = (
(287,-13,o),
(364,32,o),
(411,124,c),
(442,34,o),
(511,-13,o),
(613,-13,cs),
(732,-13,o),
(813,46,o),
(846,137,c),
(755,137,l),
(728,94,o),
(684,62,o),
(617,62,cs),
(522,62,o),
(480,131,o),
(480,220,cs),
(480,235,l),
(863,235,l),
(905,440,o),
(798,527,o),
(668,527,cs),
(595,527,o),
(529,498,o),
(480,442,c),
(456,501,o),
(398,527,o),
(309,527,cs),
(202,527,o),
(112,474,o),
(92,378,c),
(183,378,l),
(198,429,o),
(239,455,o),
(304,455,cs),
(381,455,o),
(412,423,o),
(412,384,cs),
(412,382,ls),
(412,347,o),
(396,315,o),
(343,308,cs),
(216,291,ls),
(117,278,o),
(25,232,o),
(25,124,cs),
(25,42,o),
(88,-13,o),
(184,-13,cs)
);
},
{
closed = 1;
nodes = (
(149,54,o),
(117,86,o),
(117,134,cs),
(117,192,o),
(166,220,o),
(227,229,cs),
(340,246,ls),
(358,249,o),
(370,250,o),
(391,258,c),
(386,232,ls),
(366,127,o),
(293,54,o),
(210,54,cs)
);
},
{
closed = 1;
nodes = (
(514,390,o),
(577,452,o),
(664,452,cs),
(750,452,o),
(791,400,o),
(788,301,c),
(490,301,l)
);
}
);
};
layerId = "DA512DF4-6FCD-4164-96D6-05DE8967F50A";
shapes = (
{
closed = 1;
nodes = (
(287,-13,o),
(364,32,o),
(411,124,c),
(442,34,o),
(511,-13,o),
(613,-13,cs),
(732,-13,o),
(813,46,o),
(846,137,c),
(755,137,l),
(728,94,o),
(684,62,o),
(617,62,cs),
(536,62,o),
(478,113,o),
(480,235,c),
(863,235,l),
(905,440,o),
(798,527,o),
(668,527,cs),
(595,527,o),
(529,498,o),
(480,442,c),
(456,501,o),
(398,527,o),
(309,527,cs),
(202,527,o),
(112,474,o),
(92,378,c),
(183,378,l),
(198,429,o),
(239,455,o),
(304,455,cs),
(381,455,o),
(412,423,o),
(412,384,cs),
(412,382,ls),
(412,347,o),
(396,315,o),
(343,308,cs),
(216,291,ls),
(117,278,o),
(25,232,o),
(25,124,cs),
(25,42,o),
(88,-13,o),
(184,-13,cs)
);
},
{
closed = 1;
nodes = (
(149,54,o),
(117,86,o),
(117,134,cs),
(117,192,o),
(166,220,o),
(227,229,cs),
(340,246,ls),
(358,249,o),
(370,250,o),
(391,258,c),
(386,232,ls),
(366,127,o),
(293,54,o),
(210,54,cs)
);
},
{
closed = 1;
nodes = (
(514,390,o),
(577,452,o),
(664,452,cs),
(750,452,o),
(791,400,o),
(788,301,c),
(490,301,l)
);
}
);
width = 909;
},
{
anchors = (
{
name = bottom;
pos = (329,0);
},
{
name = top;
pos = (419,514);
}
);
layerId = "0A603DC7-0F9F-4E29-AC1C-80B527B5555F";
shapes = (
{
closed = 1;
nodes = (
(195,-12,o),
(274,12,o),
(328,114,c),
(342,41,o),
(394,-12,o),
(486,-12,cs),
(580,-12,o),
(648,42,o),
(681,135,c),
(597,135,l),
(575,83,o),
(541,49,o),
(489,49,cs),
(389,49,o),
(396,177,o),
(402,240,c),
(705,240,l),
(736,381,o),
(716,526,o),
(559,526,cs),
(492,526,o),
(442,498,o),
(404,445,c),
(385,499,o),
(334,526,o),
(270,526,cs),
(166,526,o),
(98,467,o),
(82,379,c),
(163,379,l),
(171,426,o),
(205,464,o),
(264,464,cs),
(312,464,o),
(338,436,o),
(338,391,cs),
(338,390,ls),
(338,348,o),
(319,321,o),
(277,309,cs),
(159,275,ls),
(79,252,o),
(8,203,o),
(8,107,cs),
(8,35,o),
(56,-12,o),
(132,-12,cs)
);
},
{
closed = 1;
nodes = (
(121,53,o),
(91,73,o),
(91,119,cs),
(91,172,o),
(133,210,o),
(195,228,cs),
(268,249,ls),
(285,254,o),
(303,258,o),
(320,268,c),
(311,221,ls),
(292,108,o),
(219,53,o),
(161,53,cs)
);
},
{
closed = 1;
nodes = (
(430,379,o),
(471,465,o),
(554,465,cs),
(647,465,o),
(644,363,o),
(634,295,c),
(411,295,l)
);
}
);
width = 747;
},
{
anchors = (
{
name = bottom;
pos = (408,0);
},
{
name = top;
pos = (498,514);
}
);
background = {
shapes = (
{
closed = 1;
nodes = (
(238,-12,o),
(339,3,o),
(410,135,c),
(440,45,o),
(509,-12,o),
(609,-12,cs),
(708,-12,o),
(793,35,o),
(832,128,c),
(770,128,l),
(744,79,o),
(686,39,o),
(612,39,cs),
(508,39,o),
(460,116,o),
(460,224,cs),
(461,245,l),
(857,245,l),
(885,449,o),
(789,526,o),
(668,526,cs),
(585,526,o),
(517,492,o),
(470,423,c),
(451,493,o),
(395,526,o),
(308,526,cs),
(195,526,o),
(113,470,o),
(91,381,c),
(153,381,l),
(171,440,o),
(227,476,o),
(303,476,cs),
(388,476,o),
(418,435,o),
(418,385,cs),
(418,383,ls),
(418,333,o),
(394,310,o),
(342,304,cs),
(207,289,ls),
(110,277,o),
(29,224,o),
(29,123,cs),
(29,37,o),
(87,-12,o),
(179,-12,cs)
);
},
{
closed = 1;
nodes = (
(132,38,o),
(90,68,o),
(90,128,cs),
(90,191,o),
(143,235,o),
(222,244,cs),
(338,257,ls),
(358,259,o),
(383,264,o),
(401,275,c),
(391,220,ls),
(371,115,o),
(287,38,o),
(194,38,cs)
);
},
{
closed = 1;
nodes = (
(491,396,o),
(569,475,o),
(663,475,cs),
(747,475,o),
(811,424,o),
(801,292,c),
(468,292,l)
);
}
);
};
layerId = "38E57698-3E0D-47EE-AD12-065B63128021";
shapes = (
{
closed = 1;
nodes = (
(238,-12,o),
(339,3,o),
(410,135,c),
(440,45,o),
(509,-12,o),
(609,-12,cs),
(708,-12,o),
(793,35,o),
(832,128,c),
(770,128,l),
(744,79,o),
(686,39,o),
(612,39,cs),
(544,39,o),
(456,73,o),
(460,245,c),
(857,245,l),
(885,449,o),
(789,526,o),
(668,526,cs),
(585,526,o),
(517,492,o),
(470,423,c),
(451,493,o),
(395,526,o),
(308,526,cs),
(195,526,o),
(113,470,o),
(91,381,c),
(153,381,l),
(171,440,o),
(227,476,o),
(303,476,cs),
(388,476,o),
(418,435,o),
(418,385,cs),
(418,383,ls),
(418,333,o),
(394,310,o),
(342,304,cs),
(207,289,ls),
(110,277,o),
(29,224,o),
(29,123,cs),
(29,37,o),
(87,-12,o),
(179,-12,cs)
);
},
{
closed = 1;
nodes = (
(132,38,o),
(90,68,o),
(90,128,cs),
(90,191,o),
(143,235,o),
(222,244,cs),
(338,257,ls),
(358,259,o),
(383,264,o),
(401,275,c),
(391,220,ls),
(371,115,o),
(287,38,o),
(194,38,cs)
);
},
{
closed = 1;
nodes = (
(491,396,o),
(569,475,o),
(663,475,cs),
(747,475,o),
(811,424,o),
(801,292,c),
(468,292,l)
);
}
);
width = 905;
},
{
anchors = (
{
name = bottom;
pos = (551,0);
},
{
name = top;
pos = (641,514);
}
);
background = {
shapes = (
{
closed = 1;
nodes = (
(355,-13,o),
(472,42,o),
(548,158,c),
(587,53,o),
(664,-14,o),
(827,-14,cs),
(972,-14,o),
(1068,50,o),
(1119,141,c),
(1047,141,l),
(1001,79,o),
(931,40,o),
(830,40,cs),
(694,40,o),
(606,116,o),
(606,234,cs),
(606,240,l),
(1148,240,l),
(1177,418,o),
(1063,528,o),
(880,528,cs),
(775,528,o),
(671,488,o),
(615,413,c),
(605,479,o),
(523,528,o),
(381,528,cs),
(217,528,o),
(114,459,o),
(96,375,c),
(162,375,l),
(180,428,o),
(254,475,o),
(374,475,cs),
(529,475,o),
(556,411,o),
(556,371,cs),
(556,370,ls),
(556,327,o),
(529,318,o),
(487,313,cs),
(196,278,ls),
(119,269,o),
(22,236,o),
(22,126,cs),
(22,42,o),
(92,-13,o),
(223,-13,cs)
);
},
{
closed = 1;
nodes = (
(152,43,o),
(91,66,o),
(91,131,cs),
(91,188,o),
(139,218,o),
(212,227,cs),
(450,258,ls),
(488,263,o),
(513,267,o),
(541,275,c),
(536,250,ls),
(516,152,o),
(398,43,o),
(242,43,cs)
);
},
{
closed = 1;
nodes = (
(640,401,o),
(744,474,o),
(876,474,cs),
(1002,474,o),
(1091,408,o),
(1089,292,c),
(613,292,l)
);
}
);
};
layerId = "7B4F6316-DEA5-4C61-853A-FCC6E55FB2E9";
shapes = (
{
closed = 1;
nodes = (
(355,-13,o),
(472,42,o),
(548,158,c),
(587,56,o),
(664,-14,o),
(827,-14,cs),
(972,-14,o),
(1068,50,o),
(1119,141,c),
(1047,141,l),
(1001,79,o),
(931,40,o),
(830,40,cs),
(735,40,o),
(606,82,o),
(606,240,c),
(1148,240,l),
(1177,418,o),
(1063,528,o),
(880,528,cs),
(775,528,o),
(671,488,o),
(615,413,c),
(605,479,o),
(523,528,o),
(381,528,cs),
(217,528,o),
(114,459,o),
(96,375,c),
(162,375,l),
(180,428,o),
(254,475,o),
(374,475,cs),
(529,475,o),
(556,411,o),
(556,371,cs),
(556,370,ls),
(556,327,o),
(529,318,o),
(487,313,cs),
(196,278,ls),
(119,269,o),
(22,236,o),
(22,126,cs),
(22,42,o),
(92,-13,o),
(223,-13,cs)
);
},
{
closed = 1;
nodes = (
(152,43,o),
(91,66,o),
(91,131,cs),
(91,188,o),
(139,218,o),
(212,227,cs),
(450,258,ls),
(488,263,o),
(513,267,o),
(541,275,c),
(536,250,ls),
(516,152,o),
(398,43,o),
(242,43,cs)
);
},
{
closed = 1;
nodes = (
(640,401,o),
(744,474,o),
(876,474,cs),
(1002,474,o),
(1091,408,o),
(1089,292,c),
(613,292,l)
);
}
);
width = 1191;
},
{
anchors = (
{
name = bottom;
pos = (552,0);
},
{
name = top;
pos = (642,514);
}
);
layerId = "FF0E7F91-EBB7-4227-9826-320229507C52";
shapes = (
{
closed = 1;
nodes = (
(346,-13,o),
(466,34,o),
(547,151,c),
(587,53,o),
(664,-14,o),
(827,-14,cs),
(983,-14,o),
(1078,51,o),
(1128,144,c),
(1027,144,l),
(984,89,o),
(921,56,o),
(831,56,cs),
(704,56,o),
(624,128,o),
(624,235,c),
(1155,235,l),
(1185,420,o),
(1065,528,o),
(879,528,cs),
(777,528,o),
(676,492,o),
(620,420,c),
(604,482,o),
(526,528,o),
(386,528,cs),
(220,528,o),
(113,462,o),
(90,372,c),
(185,372,l),
(201,420,o),
(270,457,o),
(378,457,cs),
(519,457,o),
(544,406,o),
(544,369,cs),
(544,368,ls),
(544,329,o),
(518,320,o),
(476,315,cs),
(206,284,ls),
(118,273,o),
(18,239,o),
(18,126,cs),
(18,43,o),
(88,-13,o),
(218,-13,cs)
);
},
{
closed = 1;
nodes = (
(170,60,o),
(117,80,o),
(117,137,cs),
(117,188,o),
(160,214,o),
(222,222,cs),
(439,250,ls),
(474,254,o),
(501,259,o),
(527,266,c),
(523,245,ls),
(506,155,o),
(391,60,o),
(251,60,cs)
);
},
{
closed = 1;
nodes = (
(659,393,o),
(754,458,o),
(875,458,cs),
(988,458,o),
(1070,399,o),
(1070,296,c),
(632,296,l)
);
}
);
width = 1194;
},
{
anchors = (
{
name = bottom;
pos = (340,0);
},
{
name = top;
pos = (430,514);
}
);
layerId = "5974A488-68BA-4ECA-A629-BBB8F5E8E8D7";
shapes = (
{
closed = 1;
nodes = (
(185,-13,o),
(255,-3,o),
(316,74,c),
(349,17,o),
(410,-13,o),
(490,-13,cs),
(637,-13,o),
(700,56,o),
(738,163,c),
(553,163,l),
(544,133,o),
(529,110,o),
(504,110,cs),
(467,110,o),
(475,182,o),
(479,220,c),
(750,220,l),
(782,379,o),
(753,527,o),
(568,527,cs),
(516,527,o),
(472,516,o),
(437,486,c),
(402,516,o),
(359,527,o),
(297,527,cs),
(195,527,o),
(94,484,o),
(68,365,c),
(252,365,l),
(257,390,o),
(270,399,o),
(285,399,cs),
(297,399,o),
(308,390,o),
(308,374,cs),
(308,373,ls,{
name = "🔥";
}),
(308,349,o),
(296,330,o),
(239,311,cs),
(188,295,ls),
(79,260,o),
(-7,218,o),
(-7,109,cs),
(-7,33,o),
(48,-13,o),
(122,-13,cs)
);
},
{
closed = 1;
nodes = (
(199,120,o),
(190,134,o),
(190,151,cs),
(190,179,o),
(208,195,o),
(237,206,cs),
(259,215,ls),
(270,220,o),
(281,224,o),
(291,231,c),
(289,214,ls),
(282,168,o),
(253,120,o),
(217,120,cs)
);
},
{
closed = 1;
nodes = (
(506,361,o),
(525,405,o),
(556,405,cs),
(593,405,o),
(581,339,o),
(578,310,c),
(493,310,l)
);
}
);
width = 771;
},
{
anchors = (
{
name = bottom;
pos = (405,0);
},
{
name = top;
pos = (495,514);
}
);
layerId = "406F15BE-EF31-460D-8EE8-85AD72A74E98";
shapes = (
{
closed = 1;
nodes = (
(242,-14,o),
(312,15,o),
(380,101,c),
(411,37,o),
(487,-14,o),
(590,-14,cs),
(730,-14,o),
(831,57,o),
(857,149,c),
(673,149,l),
(653,121,o),
(626,112,o),
(599,112,cs),
(548,112,o),
(524,155,o),
(522,213,c),
(864,213,l),
(906,411,o),
(794,528,o),
(639,528,cs),
(574,528,o),
(524,512,o),
(483,479,c),
(448,513,o),
(397,528,o),
(330,528,cs),
(200,528,o),
(94,480,o),
(73,371,c),
(254,371,l),
(264,400,o),
(286,407,o),
(314,407,cs),
(342,407,o),
(360,392,o),
(360,365,cs),
(360,363,ls),
(360,332,o),
(329,320,o),
(301,315,cs),
(204,298,ls),
(99,278,o),
(8,230,o),
(8,119,cs),
(8,41,o),
(62,-14,o),
(155,-14,cs)
);
},
{
closed = 1;
nodes = (
(212,117,o),
(192,126,o),
(192,153,cs),
(192,183,o),
(222,205,o),
(260,214,cs),
(299,224,ls),
(316,229,o),
(329,233,o),
(340,239,c),
(337,222,ls),
(328,160,o),
(284,117,o),
(231,117,cs)
);
},
{
closed = 1;
nodes = (
(548,372,o),
(580,402,o),
(625,402,cs),
(656,402,o),
(699,380,o),
(700,314,c),
(532,314,l)
);
}
);
width = 901;
},
{
anchors = (
{
name = bottom;
pos = (563,0);
},
{
name = top;
pos = (653,514);
}
);
layerId = "974B3D67-9F33-42CE-B7A8-3E18495C5B4F";
shapes = (
{
closed = 1;
nodes = (
(306,-14,o),
(440,2,o),
(545,123,c),
(585,51,o),
(665,-14,o),
(829,-14,cs),
(1030,-14,o),
(1122,58,o),
(1167,155,c),
(945,155,l),
(919,128,o),
(877,122,o),
(835,122,cs),
(756,122,o),
(715,162,o),
(703,214,c),
(1183,214,l),
(1221,428,o),
(1075,528,o),
(877,528,cs),
(787,528,o),
(702,509,o),
(641,451,c),
(600,497,o),
(537,528,o),
(404,528,cs),
(232,528,o),
(110,473,o),
(67,360,c),
(278,360,l),
(291,385,o),
(338,398,o),
(395,398,cs),
(467,398,o),
(492,384,o),
(492,359,cs),
(492,358,ls),
(492,337,o),
(472,327,o),
(436,323,cs),
(247,305,ls),
(114,293,o),
(4,253,o),
(4,128,cs),
(4,50,o),
(73,-14,o),
(197,-14,cs)
);
},
{
closed = 1;
nodes = (
(247,122,o),
(224,136,o),
(224,160,cs),
(224,188,o),
(246,197,o),
(265,200,cs),
(394,215,ls),
(420,218,o),
(451,223,o),
(474,231,c),
(473,225,ls),
(464,165,o),
(362,122,o),
(288,122,cs)
);
},
{
closed = 1;
nodes = (
(744,361,o),
(795,392,o),
(871,392,cs),
(933,392,o),
(984,360,o),
(991,315,c),
(718,315,l)
);
}
);
width = 1215;
}
);
metricLeft = a;
metricRight = e;
unicode = 230;
},
{
glyphname = b;
kernLeft = l;
kernRight = o;
lastChange = "2024-12-06 10:39:41 +0000";
layers = (
{
guides = (
{
angle = 260;
pos = (25,0);
},
{
angle = 260;
pos = (81,0);
}
);
layerId = "3A742E95-6392-47DA-98D0-C770A5889573";
shapes = (
{
closed = 1;
nodes = (
(390,-12,o),
(446,197,o),
(446,328,cs),
(446,457,o),
(393,526,o),
(306,526,cs),
(243,526,o),
(192,495,o),
(158,436,c),
(207,714,l),
(151,714,l),
(25,0,l),
(81,0,l),
(95,79,l),
(113,24,o),
(157,-12,o),
(220,-12,cs)
);
},
{
closed = 1;
nodes = (
(148,35,o),
(112,79,o),
(112,169,cs),
(112,267,o),
(154,479,o),
(291,479,cs),
(353,479,o),
(387,426,o),
(387,327,cs),
(387,226,o),
(345,35,o),
(214,35,cs)
);
}
);
width = 483;
},
{
layerId = "DA512DF4-6FCD-4164-96D6-05DE8967F50A";
shapes = (
{
closed = 1;
nodes = (
(464,-13,o),
(569,131,o),
(569,301,cs),
(569,442,o),
(475,527,o),
(369,527,cs),
(297,527,o),
(238,499,o),
(195,438,c),
(244,714,l),
(153,714,l),
(27,0,l),
(118,0,l),
(134,91,l),
(165,19,o),
(224,-13,o),
(299,-13,cs)
);
},
{
closed = 1;
nodes = (
(208,62,o),
(156,134,o),
(156,223,cs),
(156,348,o),
(232,452,o),
(345,452,cs),
(431,452,o),
(476,383,o),
(476,293,cs),
(476,165,o),
(407,62,o),
(294,62,cs)
);
}
);
width = 609;
},
{
layerId = "0A603DC7-0F9F-4E29-AC1C-80B527B5555F";
shapes = (
{
closed = 1;
nodes = (
(403,-12,o),
(457,202,o),
(457,331,cs),
(457,461,o),
(404,526,o),
(319,526,cs),
(262,526,o),
(212,498,o),
(178,442,c),
(226,714,l),
(145,714,l),
(19,0,l),
(100,0,l),
(113,75,l),
(131,21,o),
(175,-12,o),
(236,-12,cs)
);
},
{
closed = 1;
nodes = (
(161,52,o),
(129,92,o),
(129,173,cs),
(129,261,o),
(167,462,o),
(289,462,cs),
(343,462,o),
(373,415,o),
(373,327,cs),
(373,236,o),
(335,52,o),
(218,52,cs)
);
}
);
width = 490;
},
{
background = {
shapes = (
{
closed = 1;
nodes = (
(455,-13,o),
(561,131,o),
(561,301,cs),
(561,442,o),
(470,527,o),
(356,527,cs),
(296,527,o),
(231,500,o),
(185,431,c),
(235,714,l),
(145,714,l),
(19,0,l),
(109,0,l),
(126,97,l),
(157,18,o),
(215,-13,o),
(290,-13,cs)
);
},
{
closed = 1;
nodes = (
(199,61,o),
(147,133,o),
(147,223,cs),
(147,348,o),
(222,453,o),
(337,453,cs),
(423,453,o),
(469,384,o),
(469,293,cs),
(469,165,o),
(400,61,o),
(286,61,cs)
);
}
);
};
guides = (
{
angle = 80;
pos = (93,0);
},
{
angle = 80;
pos = (33,0);
}
);
layerId = "38E57698-3E0D-47EE-AD12-065B63128021";
shapes = (
{
closed = 1;
nodes = (
(458,-12,o),
(548,138,o),
(548,292,cs),
(548,431,o),
(467,526,o),
(348,526,cs),
(279,526,o),
(215,496,o),
(170,426,c),
(220,714,l),
(159,714,l),
(34,0,l),
(95,0,l),
(116,120,l),
(138,36,o),
(212,-12,o),
(295,-12,cs)
);
},
{
closed = 1;
nodes = (
(196,39,o),
(139,116,o),
(139,231,cs),
(139,353,o),
(221,475,o),
(337,475,cs),
(426,475,o),
(487,400,o),
(487,290,cs),
(487,147,o),
(403,39,o),
(289,39,cs)
);
}
);
width = 594;
},
{
guides = (
{
angle = 260;
pos = (21,0);
},
{
angle = 260;
pos = (85,0);
}
);
layerId = "7B4F6316-DEA5-4C61-853A-FCC6E55FB2E9";
shapes = (
{
closed = 1;
nodes = (
(563,-14,o),
(696,118,o),
(696,289,cs),
(696,432,o),
(576,528,o),
(415,528,cs),
(306,528,o),
(208,482,o),
(158,403,c),
(212,714,l),
(147,714,l),
(21,0,l),
(87,0,l),
(110,134,l),
(143,55,o),
(239,-14,o),
(362,-14,cs)
);
},
{
closed = 1;
nodes = (
(219,39,o),
(130,115,o),
(130,235,cs),
(130,373,o),
(240,475,o),
(400,475,cs),
(531,475,o),
(626,401,o),
(626,285,cs),
(626,136,o),
(510,39,o),
(356,39,cs)
);
}
);
width = 735;
},
{
layerId = "FF0E7F91-EBB7-4227-9826-320229507C52";
shapes = (
{
closed = 1;
nodes = (
(575,-14,o),
(707,112,o),
(707,287,cs),
(707,432,o),
(588,528,o),
(426,528,cs),
(323,528,o),
(233,487,o),
(185,415,c),
(237,714,l),
(143,714,l),
(17,0,l),
(111,0,l),
(133,121,l),
(165,51,o),
(254,-14,o),
(376,-14,cs)
);
},
{
closed = 1;
nodes = (
(236,60,o),
(154,128,o),
(154,237,cs),
(154,364,o),
(255,454,o),
(402,454,cs),
(523,454,o),
(607,389,o),
(607,282,cs),
(607,147,o),
(504,60,o),
(361,60,cs)
);
}
);
width = 742;
},
{
layerId = "5974A488-68BA-4ECA-A629-BBB8F5E8E8D7";
shapes = (
{
closed = 1;
nodes = (
(453,-13,o),
(499,225,o),
(499,344,cs),
(499,478,o),
(445,527,o),
(372,527,cs),
(338,527,o),
(295,513,o),
(259,468,c),
(302,714,l),
(113,714,l),
(-13,0,l),
(176,0,l),
(187,60,l),
(206,10,o),
(250,-13,o),
(301,-13,cs)
);
},
{
closed = 1;
nodes = (
(210,131,o),
(200,147,o),
(200,190,cs),
(200,236,o),
(219,383,o),
(277,383,cs),
(296,383,o),
(306,368,o),
(306,327,cs),
(306,278,o),
(285,131,o),
(229,131,cs)
);
}
);
width = 507;
},
{
layerId = "406F15BE-EF31-460D-8EE8-85AD72A74E98";
shapes = (
{
closed = 1;
nodes = (
(523,-14,o),
(596,146,o),
(596,295,cs),
(596,461,o),
(519,528,o),
(424,528,cs),
(366,528,o),
(312,508,o),
(276,460,c),
(320,714,l),
(131,714,l),
(5,0,l),
(194,0,l),
(203,53,l),
(229,11,o),
(289,-14,o),
(351,-14,cs)
);
},
{
closed = 1;
nodes = (
(255,125,o),
(235,165,o),
(235,230,cs),
(235,326,o),
(277,389,o),
(339,389,cs),
(387,389,o),
(407,348,o),
(407,284,cs),
(407,188,o),
(364,125,o),
(304,125,cs)
);
}
);
width = 621;
},
{
layerId = "974B3D67-9F33-42CE-B7A8-3E18495C5B4F";
shapes = (
{
closed = 1;
nodes = (
(625,-14,o),
(757,90,o),
(757,280,cs),
(757,431,o),
(637,528,o),
(476,528,cs),
(398,528,o),
(333,502,o),
(295,467,c),
(337,714,l),
(124,714,l),
(-1,0,l),
(212,0,l),
(225,68,l),
(261,33,o),
(318,-14,o),
(438,-14,cs)
);
},
{
closed = 1;
nodes = (
(304,133,o),
(257,177,o),
(257,246,cs),
(257,327,o),
(320,381,o),
(411,381,cs),
(493,381,o),
(540,337,o),
(540,268,cs),
(540,191,o),
(479,133,o),
(384,133,cs)
);
}
);
width = 783;
}
);
metricLeft = l;
metricRight = o;
unicode = 98;
},
{
glyphname = c;
kernLeft = o;
kernRight = c;
lastChange = "2024-12-06 10:39:41 +0000";
layers = (
{
anchors = (
{
name = bottom;
pos = (188,0);
},
{
name = top;
pos = (278,514);
}
);
background = {
shapes = (
{
closed = 1;
nodes = (
(378,-12,o),
(431,198,o),
(431,324,cs),
(431,456,o),
(376,526,o),
(271,526,cs),
(93,526,o),
(38,315,o),
(38,189,cs),
(38,59,o),
(96,-12,o),
(199,-12,cs)
);
},
{
closed = 1;
nodes = (
(125,35,o),
(96,96,o),
(96,186,cs),
(96,275,o),
(131,479,o),
(268,479,cs),
(343,479,o),
(372,418,o),
(372,328,cs),
(372,238,o),
(337,35,o),
(200,35,cs)
);
}
);
};
layerId = "3A742E95-6392-47DA-98D0-C770A5889573";
shapes = (
{
closed = 1;
nodes = (
(289,-12,o),
(354,53,o),
(380,150,c),
(323,150,l),
(297,79,o),
(261,35,o),
(200,35,cs),
(125,35,o),
(96,95,o),
(96,189,cs),
(96,288,o),
(131,479,o),
(268,479,cs),
(343,479,o),
(362,413,o),
(362,362,c),
(419,362,l),
(422,454,o),
(376,526,o),
(271,526,cs),
(93,526,o),
(38,315,o),
(38,189,cs),
(38,59,o),
(96,-12,o),
(199,-12,cs)
);
}
);
width = 442;
},
{
anchors = (
{
name = bottom;
pos = (244,0);
},
{
name = top;
pos = (328,514);
}
);
layerId = "DA512DF4-6FCD-4164-96D6-05DE8967F50A";
shapes = (
{
closed = 1;
nodes = (
(382,-13,o),
(464,54,o),
(494,153,c),
(402,153,l),
(379,103,o),
(336,62,o),
(265,62,cs),
(174,62,o),
(132,131,o),
(132,214,cs),
(132,350,o),
(203,452,o),
(315,452,cs),
(395,452,o),
(430,411,o),
(437,356,c),
(525,356,l),
(523,456,o),
(437,527,o),
(316,527,cs),
(153,527,o),
(41,387,o),
(41,215,cs),
(41,84,o),
(128,-13,o),
(263,-13,cs)
);
}
);
width = 554;
},
{
anchors = (
{
name = bottom;
pos = (192,0);
},
{
name = top;
pos = (282,514);
}
);
guides = (
{
pos = (325,356);
},
{
pos = (326,155);
}
);
layerId = "0A603DC7-0F9F-4E29-AC1C-80B527B5555F";
shapes = (
{
closed = 1;
nodes = (
(302,-12,o),
(369,55,o),
(396,155,c),
(315,155,l),
(292,93,o),
(260,52,o),
(205,52,cs),
(141,52,o),
(116,103,o),
(116,184,cs),
(116,274,o),
(148,462,o),
(270,462,cs),
(336,462,o),
(352,404,o),
(352,356,c),
(433,356,l),
(435,452,o),
(386,526,o),
(275,526,cs),
(93,526,o),
(34,322,o),
(34,189,cs),
(34,59,o),
(94,-12,o),
(201,-12,cs)
);
}
);
width = 454;
},
{
anchors = (
{
name = bottom;
pos = (239,0);
},
{
name = top;
pos = (323,514);
}
);
background = {
shapes = (
{
closed = 1;
nodes = (
(394,-12,o),
(474,49,o),
(497,149,c),
(435,149,l),
(412,73,o),
(361,39,o),
(284,39,cs),
(159,39,o),
(107,146,o),
(107,258,cs),
(107,369,o),
(159,475,o),
(284,475,cs),
(359,475,o),
(413,436,o),
(435,360,c),
(497,360,l),
(482,461,o),
(394,526,o),
(283,526,cs),
(138,526,o),
(46,409,o),
(46,257,cs),
(46,104,o),
(138,-12,o),
(283,-12,cs)
);
}
);
};
guides = (
{
angle = 80;
pos = (231,-12);
},
{
angle = 180;
pos = (437,349);
},
{
pos = (437,142);
}
);
layerId = "38E57698-3E0D-47EE-AD12-065B63128021";
shapes = (
{
closed = 1;
nodes = (
(360,-12,o),
(442,43,o),
(478,149,c),
(417,149,l),
(392,90,o),
(345,39,o),
(264,39,cs),
(169,39,o),
(107,116,o),
(107,224,cs),
(107,360,o),
(195,475,o),
(311,475,cs),
(403,475,o),
(442,412,o),
(453,360,c),
(512,360,l),
(505,439,o),
(446,526,o),
(313,526,cs),
(150,526,o),
(46,388,o),
(46,220,cs),
(46,82,o),
(127,-12,o),
(263,-12,cs)
);
}
);
width = 543;
},
{
anchors = (
{
name = bottom;
pos = (313,0);
},
{
name = top;
pos = (394,514);
}
);
layerId = "7B4F6316-DEA5-4C61-853A-FCC6E55FB2E9";
shapes = (
{
closed = 1;
nodes = (
(469,-14,o),
(587,57,o),
(632,158,c),
(561,158,l),
(518,94,o),
(446,40,o),
(335,40,cs),
(199,40,o),
(109,116,o),
(109,235,cs),
(109,374,o),
(219,474,o),
(379,474,cs),
(510,474,o),
(573,416,o),
(594,356,c),
(662,356,l),
(643,451,o),
(540,528,o),
(383,528,cs),
(177,528,o),
(40,394,o),
(40,230,cs),
(40,83,o),
(155,-14,o),
(331,-14,cs)
);
}
);
width = 689;
},
{
anchors = (
{
name = bottom;
pos = (317,0);
},
{
name = top;
pos = (398,514);
}
);
background = {
shapes = (
{
closed = 1;
nodes = (
(533,-14,o),
(642,59,o),
(668,163,c),
(568,163,l),
(537,106,o),
(479,60,o),
(367,60,cs),
(219,60,o),
(142,144,o),
(142,258,cs),
(142,371,o),
(219,454,o),
(367,454,cs),
(479,454,o),
(543,405,o),
(568,351,c),
(668,351,l),
(648,453,o),
(533,528,o),
(367,528,cs),
(170,528,o),
(43,423,o),
(43,258,cs),
(43,92,o),
(170,-14,o),
(367,-14,cs)
);
}
);
};
layerId = "FF0E7F91-EBB7-4227-9826-320229507C52";
shapes = (
{
closed = 1;
nodes = (
(487,-14,o),
(603,59,o),
(647,163,c),
(546,163,l),
(507,106,o),
(443,60,o),
(341,60,cs),
(215,60,o),
(134,129,o),
(134,237,cs),
(134,365,o),
(235,454,o),
(381,454,cs),
(498,454,o),
(557,405,o),
(576,351,c),
(674,351,l),
(658,450,o),
(551,528,o),
(388,528,cs),
(179,528,o),
(35,400,o),
(35,231,cs),
(35,83,o),
(153,-14,o),
(334,-14,cs)
);
}
);
width = 699;
},
{
anchors = (
{
name = bottom;
pos = (207,0);
},
{
name = top;
pos = (293,514);
}
);
layerId = "5974A488-68BA-4ECA-A629-BBB8F5E8E8D7";
shapes = (
{
closed = 1;
nodes = (
(355,-13,o),
(435,67,o),
(462,186,c),
(276,186,l),
(267,153,o),
(249,123,o),
(223,123,cs),
(206,123,o),
(197,136,o),
(197,163,cs),
(197,211,o),
(215,391,o),
(273,391,cs),
(300,391,o),
(306,367,o),
(304,330,c),
(488,330,l),
(486,442,o),
(426,527,o),
(288,527,cs),
(88,527,o),
(10,353,o),
(10,191,cs),
(10,61,o),
(83,-13,o),
(207,-13,cs)
);
}
);
width = 489;
},
{
anchors = (
{
name = bottom;
pos = (237,0);
},
{
name = top;
pos = (325,514);
}
);
layerId = "406F15BE-EF31-460D-8EE8-85AD72A74E98";
shapes = (
{
closed = 1;
nodes = (
(390,-14,o),
(490,51,o),
(528,175,c),
(342,175,l),
(325,135,o),
(303,121,o),
(273,121,cs),
(230,121,o),
(210,167,o),
(210,227,cs),
(210,336,o),
(252,393,o),
(307,393,cs),
(338,393,o),
(360,374,o),
(365,336,c),
(552,336,l),
(546,449,o),
(461,528,o),
(322,528,cs),
(136,528,o),
(24,389,o),
(24,219,cs),
(24,82,o),
(120,-14,o),
(266,-14,cs)
);
}
);
width = 567;
},
{
anchors = (
{
name = bottom;
pos = (342,0);
},
{
name = top;
pos = (422,514);
}
);
layerId = "974B3D67-9F33-42CE-B7A8-3E18495C5B4F";
shapes = (
{
closed = 1;
nodes = (
(573,-14,o),
(674,66,o),
(714,187,c),
(494,187,l),
(472,158,o),
(442,133,o),
(371,133,cs),
(290,133,o),
(242,176,o),
(242,246,cs),
(242,326,o),
(307,381,o),
(397,381,cs),
(459,381,o),
(497,360,o),
(512,326,c),
(732,326,l),
(724,448,o),
(603,528,o),
(412,528,cs),
(200,528,o),
(25,424,o),
(25,234,cs),
(25,84,o),
(153,-14,o),
(356,-14,cs)
);
}
);
width = 750;
}
);
metricLeft = o;
metricRight = o;
unicode = 99;
},
{
glyphname = d;
kernLeft = o;
kernRight = l;
lastChange = "2024-12-06 10:39:41 +0000";
layers = (
{
anchors = (
{
name = bottom;
pos = (165,0);
},
{
name = center;
pos = (397,619);
},
{
name = top;
pos = (306,714);
},
{
name = topright;
pos = (567,714);
}
);
background = {
shapes = (
{
closed = 1;
nodes = (
(234,-12,o),
(290,25,o),
(327,88,c),
(311,0,l),
(367,0,l),
(493,714,l),
(437,714,l),
(385,425,l),
(370,489,o),
(326,526,o),
(265,526,cs),
(165,526,o),
(79,445,o),
(47,261,cs),
(14,77,o),
(73,-12,o),
(173,-12,cs)
);
},
{
closed = 1;
nodes = (
(111,35,o),
(79,108,o),
(105,257,cs),
(131,406,o),
(193,479,o),
(271,479,cs),
(353,479,o),
(388,410,o),
(362,261,cs),
(335,112,o),
(271,35,o),
(189,35,cs)
);
}
);
};
guides = (
{
angle = 80;
pos = (367,0);
},
{
angle = 80;
pos = (311,0);
}
);
layerId = "3A742E95-6392-47DA-98D0-C770A5889573";
shapes = (
{
closed = 1;
nodes = (
(240,-12,o),
(291,19,o),
(325,78,c),
(311,0,l),
(367,0,l),
(493,714,l),
(437,714,l),
(388,436,l),
(374,488,o),
(329,526,o),
(263,526,cs),
(93,526,o),
(37,317,o),
(37,186,cs),
(37,57,o),
(90,-12,o),
(177,-12,cs)
);
},
{
closed = 1;
nodes = (
(130,35,o),
(96,88,o),
(96,187,cs),
(96,288,o),
(138,479,o),
(269,479,cs),
(335,479,o),
(371,435,o),
(371,345,cs),
(371,247,o),
(329,35,o),
(192,35,cs)
);
}
);
width = 482;
},
{
anchors = (
{
name = bottom;
pos = (229,0);
},
{
name = center;
pos = (510,614);
},
{
name = top;
pos = (352,714);
},
{
name = topright;
pos = (732,714);
}
);
layerId = "DA512DF4-6FCD-4164-96D6-05DE8967F50A";
shapes = (
{
closed = 1;
nodes = (
(305,-13,o),
(370,13,o),
(415,79,c),
(401,0,l),
(493,0,l),
(618,714,l),
(526,714,l),
(475,423,l),
(446,494,o),
(386,527,o),
(311,527,cs),
(146,527,o),
(41,384,o),
(41,213,cs),
(41,72,o),
(132,-13,o),
(245,-13,cs)
);
},
{
closed = 1;
nodes = (
(180,62,o),
(135,132,o),
(135,221,cs),
(135,349,o),
(203,452,o),
(316,452,cs),
(402,452,o),
(454,380,o),
(454,291,cs),
(454,166,o),
(378,62,o),
(265,62,cs)
);
}
);
width = 610;
},
{
anchors = (
{
name = bottom;
pos = (175,0);
},
{
name = center;
pos = (399,616);
},
{
name = top;
pos = (306,673);
},
{
name = topright;
pos = (578,714);
}
);
layerId = "0A603DC7-0F9F-4E29-AC1C-80B527B5555F";
shapes = (
{
closed = 1;
nodes = (
(228,-12,o),
(278,16,o),
(312,72,c),
(299,0,l),
(380,0,l),
(506,714,l),
(425,714,l),
(377,439,l),
(362,491,o),
(317,526,o),
(254,526,cs),
(87,526,o),
(33,312,o),
(33,183,cs),
(33,53,o),
(87,-12,o),
(171,-12,cs)
);
},
{
closed = 1;
nodes = (
(147,52,o),
(118,99,o),
(118,187,cs),
(118,278,o),
(155,462,o),
(272,462,cs),
(330,462,o),
(361,422,o),
(361,341,cs),
(361,253,o),
(323,52,o),
(201,52,cs)
);
}
);
width = 489;
},
{
anchors = (
{
name = bottom;
pos = (210,0);
},
{
name = center;
pos = (487,619);
},
{
name = top;
pos = (336,714);
},
{
name = topright;
pos = (713,714);
}
);
guides = (
{
angle = 80;
pos = (400,0);
},
{
angle = 80;
pos = (460,0);
}
);
layerId = "38E57698-3E0D-47EE-AD12-065B63128021";
shapes = (
{
closed = 1;
nodes = (
(315,-12,o),
(378,18,o),
(423,88,c),
(408,0,l),
(469,0,l),
(595,714,l),
(534,714,l),
(477,394,l),
(456,478,o),
(382,526,o),
(299,526,cs),
(136,526,o),
(46,376,o),
(46,222,cs),
(46,83,o),
(127,-12,o),
(246,-12,cs)
);
},
{
closed = 1;
nodes = (
(167,39,o),
(107,114,o),
(107,224,cs),
(107,367,o),
(191,475,o),
(305,475,cs),
(398,475,o),
(455,398,o),
(455,284,cs),
(455,161,o),
(372,39,o),
(257,39,cs)
);
}
);
width = 592;
},
{
anchors = (
{
name = bottom;
pos = (223,0);
},
{
name = center;
pos = (573,604);
},
{
name = top;
pos = (223,714);
},
{
name = topright;
pos = (869,714);
}
);
guides = (
{
angle = 80.0958;
pos = (612,0);
},
{
angle = 80.0958;
pos = (548,0);
}
);
layerId = "7B4F6316-DEA5-4C61-853A-FCC6E55FB2E9";
shapes = (
{
closed = 1;
nodes = (
(429,-14,o),
(528,32,o),
(578,111,c),
(559,0,l),
(624,0,l),
(749,714,l),
(683,714,l),
(625,380,l),
(592,459,o),
(506,528,o),
(362,528,cs),
(172,528,o),
(40,396,o),
(40,228,cs),
(40,82,o),
(159,-14,o),
(320,-14,cs)
);
},
{
closed = 1;
nodes = (
(204,39,o),
(109,113,o),
(109,230,cs),
(109,378,o),
(225,475,o),
(379,475,cs),
(516,475,o),
(606,399,o),
(606,279,cs),
(606,141,o),
(496,39,o),
(335,39,cs)
);
}
);
width = 735;
},
{
anchors = (
{
name = bottom;
pos = (222,0);
},
{
name = center;
pos = (574,606);
},
{
name = top;
pos = (222,714);
},
{
name = topright;
pos = (883,714);
}
);
layerId = "FF0E7F91-EBB7-4227-9826-320229507C52";
shapes = (
{
closed = 1;
nodes = (
(418,-14,o),
(510,28,o),
(558,99,c),
(541,0,l),
(635,0,l),
(760,714,l),
(666,714,l),
(610,393,l),
(576,463,o),
(495,528,o),
(356,528,cs),
(167,528,o),
(35,402,o),
(35,230,cs),
(35,82,o),
(154,-14,o),
(315,-14,cs)
);
},
{
closed = 1;
nodes = (
(218,60,o),
(135,125,o),
(135,233,cs),
(135,367,o),
(238,454,o),
(380,454,cs),
(506,454,o),
(587,387,o),
(587,277,cs),
(587,150,o),
(486,60,o),
(340,60,cs)
);
}
);
width = 742;
},
{
anchors = (
{
name = bottom;
pos = (210,0);
},
{
name = center;
pos = (399,605);
},
{
name = top;
pos = (296,498);
},
{
name = topright;
pos = (616,714);
}
);
layerId = "5974A488-68BA-4ECA-A629-BBB8F5E8E8D7";
shapes = (
{
closed = 1;
nodes = (
(169,-13,o),
(212,1,o),
(248,46,c),
(240,0,l),
(429,0,l),
(555,714,l),
(366,714,l),
(320,454,l),
(300,504,o),
(256,527,o),
(206,527,cs),
(54,527,o),
(8,289,o),
(8,170,cs),
(8,36,o),
(62,-13,o),
(135,-13,cs)
);
},
{
closed = 1;
nodes = (
(211,131,o),
(201,146,o),
(201,187,cs),
(201,236,o),
(221,383,o),
(278,383,cs),
(297,383,o),
(307,367,o),
(307,324,cs),
(307,278,o),
(288,131,o),
(230,131,cs)
);
}
);
width = 506;
},
{
anchors = (
{
name = bottom;
pos = (176,0);
},
{
name = center;
pos = (488,604);
},
{
name = top;
pos = (302,714);
},
{
name = topright;
pos = (769,714);
}
);
layerId = "406F15BE-EF31-460D-8EE8-85AD72A74E98";
shapes = (
{
closed = 1;
nodes = (
(254,-14,o),
(308,6,o),
(344,54,c),
(334,0,l),
(524,0,l),
(650,714,l),
(460,714,l),
(416,461,l),
(390,503,o),
(331,528,o),
(268,528,cs),
(97,528,o),
(25,368,o),
(25,219,cs),
(25,53,o),
(101,-14,o),
(195,-14,cs)
);
},
{
closed = 1;
nodes = (
(233,125,o),
(213,166,o),
(213,231,cs),
(213,326,o),
(255,389,o),
(316,389,cs),
(364,389,o),
(384,349,o),
(384,285,cs),
(384,188,o),
(343,125,o),
(282,125,cs)
);
}
);
width = 619;
},
{
anchors = (
{
name = bottom;
pos = (232,0);
},
{
name = center;
pos = (590,614);
},
{
name = top;
pos = (232,714);
},
{
name = topright;
pos = (959,714);
}
);
layerId = "974B3D67-9F33-42CE-B7A8-3E18495C5B4F";
shapes = (
{
closed = 1;
nodes = (
(387,-14,o),
(451,11,o),
(491,47,c),
(481,0,l),
(694,0,l),
(821,714,l),
(607,714,l),
(559,446,l),
(523,482,o),
(465,528,o),
(347,528,cs),
(159,528,o),
(27,424,o),
(27,234,cs),
(27,83,o),
(147,-14,o),
(308,-14,cs)
);
},
{
closed = 1;
nodes = (
(291,133,o),
(244,177,o),
(244,246,cs),
(244,323,o),
(305,381,o),
(400,381,cs),
(479,381,o),
(527,337,o),
(527,268,cs),
(527,187,o),
(464,133,o),
(373,133,cs)
);
}
);
width = 785;
}
);
metricLeft = o;
metricRight = l;
unicode = 100;
},
{
glyphname = eth;
kernLeft = o;
kernRight = l;
lastChange = "2024-12-06 10:39:41 +0000";
layers = (
{
layerId = "3A742E95-6392-47DA-98D0-C770A5889573";
shapes = (
{
closed = 1;
nodes = (
(391,-12,o),
(443,291,o),
(443,443,cs),
(443,526,o),
(423,613,o),
(355,712,c),
(294,715,l),
(365,623,o),
(399,542,o),
(396,422,c),
(383,498,o),
(319,526,o),
(263,526,cs),
(95,526,o),
(37,317,o),
(37,186,cs),
(37,57,o),
(92,-12,o),
(193,-12,cs)
);
},
{
closed = 1;
nodes = (
(131,35,o),
(96,88,o),
(96,187,cs),
(96,288,o),
(137,479,o),
(269,479,cs),
(335,479,o),
(371,435,o),
(371,346,cs),
(371,246,o),
(328,35,o),
(195,35,cs)
);
},
{
closed = 1;
nodes = (
(498,649,l),
(491,689,l),
(231,607,l),
(236,567,l)
);
}
);
width = 485;
},
{
layerId = "DA512DF4-6FCD-4164-96D6-05DE8967F50A";
shapes = (
{
closed = 1;
nodes = (
(435,-13,o),
(553,147,o),
(553,364,cs),
(553,517,o),
(507,614,o),
(408,714,c),
(313,714,l),
(406,619,o),
(467,530,o),
(473,419,c),
(445,496,o),
(378,526,o),
(311,526,cs),
(151,526,o),
(41,392,o),
(41,220,cs),
(41,82,o),
(129,-13,o),
(259,-13,cs)
);
},
{
closed = 1;
nodes = (
(177,62,o),
(135,131,o),
(135,223,cs),
(135,356,o),
(206,451,o),
(316,451,cs),
(406,451,o),
(452,385,o),
(452,293,cs),
(452,165,o),
(381,62,o),
(268,62,cs)
);
},
{
closed = 1;
nodes = (
(576,649,l),
(559,704,l),
(264,613,l),
(282,558,l)
);
}
);
width = 588;
},
{
layerId = "0A603DC7-0F9F-4E29-AC1C-80B527B5555F";
shapes = (
{
closed = 1;
nodes = (
(405,-12,o),
(458,281,o),
(458,437,cs),
(458,526,o),
(435,615,o),
(365,712,c),
(282,715,l),
(351,627,o),
(388,550,o),
(388,434,c),
(372,501,o),
(312,526,o),
(262,526,cs),
(91,526,o),
(34,318,o),
(34,189,cs),
(34,58,o),
(93,-12,o),
(200,-12,cs)
);
},
{
closed = 1;
nodes = (
(147,51,o),
(117,97,o),
(117,183,cs),
(117,274,o),
(154,462,o),
(273,462,cs),
(329,462,o),
(360,423,o),
(360,345,cs),
(360,256,o),
(321,51,o),
(203,51,cs)
);
},
{
closed = 1;
nodes = (
(507,648,l),
(498,693,l),
(226,608,l),
(234,563,l)
);
}
);
width = 495;
},
{
guides = (
{
angle = 107.1985;
pos = (556,638);
}
);
layerId = "38E57698-3E0D-47EE-AD12-065B63128021";
shapes = (
{
closed = 1;
nodes = (
(457,-12,o),
(547,186,o),
(547,369,cs),
(547,507,o),
(516,608,o),
(416,714,c),
(344,714,l),
(451,600,o),
(485,521,o),
(493,405,c),
(456,499,o),
(384,526,o),
(314,526,cs),
(150,526,o),
(45,386,o),
(45,220,cs),
(45,84,o),
(128,-12,o),
(261,-12,cs)
);
},
{
closed = 1;
nodes = (
(166,39,o),
(106,116,o),
(106,226,cs),
(106,361,o),
(195,475,o),
(311,475,cs),
(409,475,o),
(472,401,o),
(472,293,cs),
(472,150,o),
(378,39,o),
(265,39,cs)
);
},
{
closed = 1;
nodes = (
(567,651,l),
(554,695,l),
(274,607,l),
(288,563,l)
);
}
);
width = 587;
},
{
background = {
shapes = (
{
closed = 1;
nodes = (
(428,-14,o),
(527,32,o),
(577,111,c),
(558,0,l),
(623,0,l),
(748,714,l),
(682,714,l),
(624,380,l),
(591,459,o),
(496,528,o),
(372,528,cs),
(171,528,o),
(39,396,o),
(39,225,cs),
(39,82,o),
(158,-14,o),
(319,-14,cs)
);
},
{
closed = 1;
nodes = (
(203,39,o),
(108,113,o),
(108,230,cs),
(108,378,o),
(224,475,o),
(378,475,cs),
(515,475,o),
(605,399,o),
(605,279,cs),
(605,141,o),
(495,39,o),
(334,39,cs)
);
}
);
};
layerId = "7B4F6316-DEA5-4C61-853A-FCC6E55FB2E9";
shapes = (
{
closed = 1;
nodes = (
(548,-14,o),
(681,134,o),
(681,324,cs),
(681,471,o),
(615,601,o),
(477,713,c),
(395,715,l),
(515,610,o),
(578,537,o),
(610,411,c),
(559,489,o),
(468,528,o),
(371,528,cs),
(171,528,o),
(39,396,o),
(39,225,cs),
(39,82,o),
(158,-14,o),
(319,-14,cs)
);
},
{
closed = 1;
nodes = (
(202,39,o),
(108,113,o),
(108,230,cs),
(108,378,o),
(224,475,o),
(378,475,cs),
(515,475,o),
(605,399,o),
(605,279,cs),
(605,141,o),
(495,39,o),
(334,39,cs)
);
},
{
closed = 1;
nodes = (
(653,653,l),
(639,698,l),
(337,604,l),
(350,559,l)
);
}
);
width = 726;
},
{
layerId = "FF0E7F91-EBB7-4227-9826-320229507C52";
shapes = (
{
closed = 1;
nodes = (
(557,-14,o),
(694,133,o),
(694,328,cs),
(694,476,o),
(628,604,o),
(494,713,c),
(379,715,l),
(496,616,o),
(568,544,o),
(600,417,c),
(550,491,o),
(462,528,o),
(366,528,cs),
(166,528,o),
(35,400,o),
(35,227,cs),
(35,82,o),
(154,-14,o),
(320,-14,cs)
);
},
{
closed = 1;
nodes = (
(217,57,o),
(133,125,o),
(133,233,cs),
(133,367,o),
(239,457,o),
(380,457,cs),
(507,457,o),
(587,387,o),
(587,277,cs),
(587,150,o),
(486,57,o),
(341,57,cs)
);
},
{
closed = 1;
nodes = (
(664,650,l),
(649,701,l),
(333,606,l),
(348,555,l)
);
}
);
width = 734;
},
{
layerId = "5974A488-68BA-4ECA-A629-BBB8F5E8E8D7";
shapes = (
{
closed = 1;
nodes = (
(455,-13,o),
(513,240,o),
(513,412,cs),
(513,527,o),
(477,626,o),
(399,714,c),
(220,714,l),
(279,642,o),
(330,584,o),
(344,487,c),
(318,512,o),
(276,524,o),
(247,524,cs),
(65,524,o),
(12,322,o),
(12,204,cs),
(12,61,o),
(87,-13,o),
(221,-13,cs)
);
},
{
closed = 1;
nodes = (
(210,122,o),
(200,137,o),
(200,165,cs),
(200,211,o),
(221,389,o),
(280,389,cs),
(296,389,o),
(306,372,o),
(306,343,cs),
(306,298,o),
(284,122,o),
(226,122,cs)
);
},
{
closed = 1;
nodes = (
(538,646,l),
(520,708,l),
(195,610,l),
(214,546,l)
);
}
);
width = 527;
},
{
layerId = "406F15BE-EF31-460D-8EE8-85AD72A74E98";
shapes = (
{
closed = 1;
nodes = (
(496,-13,o),
(564,202,o),
(564,364,cs),
(564,508,o),
(530,612,o),
(440,714,c),
(263,714,l),
(312,667,o),
(389,560,o),
(403,481,c),
(377,507,o),
(339,526,o),
(286,526,cs),
(118,526,o),
(25,392,o),
(25,218,cs),
(25,70,o),
(117,-13,o),
(255,-13,cs)
);
},
{
closed = 1;
nodes = (
(227,126,o),
(213,162,o),
(213,234,cs),
(213,336,o),
(254,393,o),
(302,393,cs),
(343,393,o),
(360,355,o),
(360,293,cs),
(360,181,o),
(325,126,o),
(271,126,cs)
);
},
{
closed = 1;
nodes = (
(580,646,l),
(560,714,l),
(250,618,l),
(270,549,l)
);
}
);
width = 589;
},
{
layerId = "974B3D67-9F33-42CE-B7A8-3E18495C5B4F";
shapes = (
{
closed = 1;
nodes = (
(605,-14,o),
(751,125,o),
(751,348,cs),
(751,499,o),
(690,617,o),
(568,714,c),
(326,714,l),
(424,642,o),
(533,570,o),
(568,442,c),
(519,500,o),
(449,528,o),
(356,528,cs),
(154,528,o),
(27,419,o),
(27,235,cs),
(27,83,o),
(147,-14,o),
(332,-14,cs)
);
},
{
closed = 1;
nodes = (
(291,133,o),
(244,177,o),
(244,246,cs),
(244,323,o),
(305,381,o),
(400,381,cs),
(480,381,o),
(527,337,o),
(527,268,cs),
(527,187,o),
(464,133,o),
(373,133,cs)
);
},
{
closed = 1;
nodes = (
(720,635,l),
(696,713,l),
(326,615,l),
(349,538,l)
);
}
);
width = 777;
}
);
metricLeft = o;
unicode = 240;
},
{
glyphname = e;
kernLeft = o;
kernRight = e;
lastChange = "2025-01-15 14:16:13 +0000";
layers = (
{
anchors = (
{
name = bottom;
pos = (189,0);
},
{
name = ogonek;
pos = (264,0);
},
{
name = top;
pos = (278,514);
}
);
guides = (
{
angle = 180;
pos = (520,291);
},
{
angle = 180;
pos = (520,244);
}
);
layerId = "3A742E95-6392-47DA-98D0-C770A5889573";
shapes = (
{
closed = 1;
nodes = (
(281,-12,o),
(350,39,o),
(382,128,c),
(322,128,l),
(296,71,o),
(258,35,o),
(200,35,cs),
(125,35,o),
(96,95,o),
(96,189,cs),
(96,289,o),
(131,479,o),
(268,479,cs),
(374,479,o),
(373,368,o),
(361,291,c),
(73,291,l),
(73,244,l),
(409,244,l),
(439,381,o),
(422,526,o),
(271,526,cs),
(93,526,o),
(38,315,o),
(38,189,cs),
(38,59,o),
(96,-12,o),
(199,-12,cs)
);
}
);
width = 454;
},
{
anchors = (
{
name = bottom;
pos = (245,0);
},
{
name = ogonek;
pos = (336,0);
},
{
name = top;
pos = (327,514);
}
);
layerId = "DA512DF4-6FCD-4164-96D6-05DE8967F50A";
shapes = (
{
closed = 1;
nodes = (
(383,-13,o),
(464,46,o),
(497,137,c),
(405,137,l),
(378,94,o),
(335,62,o),
(267,62,cs),
(172,62,o),
(131,131,o),
(131,220,cs),
(131,350,o),
(203,452,o),
(315,452,cs),
(401,452,o),
(442,400,o),
(439,301,c),
(98,301,l),
(98,235,l),
(514,235,l),
(556,440,o),
(448,527,o),
(319,527,cs),
(155,527,o),
(41,387,o),
(41,217,cs),
(41,84,o),
(129,-13,o),
(263,-13,cs)
);
}
);
width = 560;
},
{
anchors = (
{
name = bottom;
pos = (194,0);
},
{
name = ogonek;
pos = (273,0);
},
{
name = top;
pos = (282,514);
}
);
guides = (
{
pos = (372,135);
},
{
pos = (421,237);
},
{
pos = (339,298);
}
);
layerId = "0A603DC7-0F9F-4E29-AC1C-80B527B5555F";
shapes = (
{
closed = 1;
nodes = (
(296,-12,o),
(364,42,o),
(397,135,c),
(314,135,l),
(291,83,o),
(257,52,o),
(205,52,cs),
(140,52,o),
(117,102,o),
(117,184,cs),
(117,275,o),
(147,462,o),
(270,462,cs),
(363,462,o),
(360,363,o),
(350,298,c),
(88,298,l),
(85,237,l),
(421,237,l),
(452,381,o),
(433,526,o),
(275,526,cs),
(93,526,o),
(34,322,o),
(34,189,cs),
(34,59,o),
(95,-12,o),
(202,-12,cs)
);
}
);
width = 463;
},
{
anchors = (
{
name = bottom;
pos = (242,0);
},
{
name = ogonek;
pos = (336,0);
},
{
name = top;
pos = (322,514);
}
);
guides = (
{
pos = (290,466);
},
{
pos = (507,240);
},
{
pos = (451,286);
},
{
pos = (290,38);
},
{
pos = (460,125);
}
);
layerId = "38E57698-3E0D-47EE-AD12-065B63128021";
shapes = (
{
closed = 1;
nodes = (
(355,-12,o),
(440,35,o),
(478,128,c),
(416,128,l),
(390,79,o),
(333,39,o),
(260,39,cs),
(160,39,o),
(107,116,o),
(107,224,cs),
(107,360,o),
(195,475,o),
(310,475,cs),
(394,475,o),
(458,424,o),
(448,292,c),
(88,292,l),
(88,245,l),
(504,245,l),
(533,449,o),
(435,526,o),
(311,526,cs),
(149,526,o),
(46,388,o),
(46,220,cs),
(46,81,o),
(128,-12,o),
(258,-12,cs)
);
}
);
width = 552;
},
{
anchors = (
{
name = bottom;
pos = (315,0);
},
{
name = ogonek;
pos = (435,0);
},
{
name = top;
pos = (393,514);
}
);
guides = (
{
pos = (342,235);
},
{
pos = (342,286);
}
);
layerId = "7B4F6316-DEA5-4C61-853A-FCC6E55FB2E9";
shapes = (
{
closed = 1;
nodes = (
(474,-14,o),
(569,50,o),
(621,141,c),
(549,141,l),
(502,79,o),
(433,40,o),
(332,40,cs),
(196,40,o),
(108,116,o),
(108,234,cs),
(108,375,o),
(218,474,o),
(378,474,cs),
(504,474,o),
(594,408,o),
(591,292,c),
(75,292,l),
(75,240,l),
(650,240,l),
(679,418,o),
(565,528,o),
(382,528,cs),
(176,528,o),
(39,395,o),
(39,228,cs),
(39,83,o),
(155,-14,o),
(329,-14,cs)
);
}
);
width = 693;
},
{
anchors = (
{
name = bottom;
pos = (315,0);
},
{
name = ogonek;
pos = (444,0);
},
{
name = top;
pos = (394,514);
}
);
layerId = "FF0E7F91-EBB7-4227-9826-320229507C52";
shapes = (
{
closed = 1;
nodes = (
(488,-14,o),
(582,51,o),
(633,142,c),
(532,142,l),
(488,89,o),
(425,59,o),
(337,59,cs),
(208,59,o),
(132,128,o),
(132,236,cs),
(132,366,o),
(230,455,o),
(380,455,cs),
(494,455,o),
(575,399,o),
(575,301,c),
(91,301,l),
(91,232,l),
(660,232,l),
(690,420,o),
(570,528,o),
(383,528,cs),
(177,528,o),
(35,401,o),
(35,230,cs),
(35,83,o),
(153,-14,o),
(332,-14,cs)
);
}
);
width = 699;
},
{
anchors = (
{
name = bottom;
pos = (212,0);
},
{
name = ogonek;
pos = (306,0);
},
{
name = top;
pos = (293,514);
}
);
layerId = "5974A488-68BA-4ECA-A629-BBB8F5E8E8D7";
shapes = (
{
closed = 1;
nodes = (
(358,-13,o),
(420,56,o),
(459,163,c),
(273,163,l),
(265,133,o),
(249,109,o),
(225,109,cs),
(203,109,o),
(196,134,o),
(196,164,cs),
(196,217,o),
(211,406,o),
(277,406,cs),
(313,406,o),
(302,339,o),
(298,310,c),
(151,310,l),
(135,220,l),
(471,220,l),
(503,379,o),
(474,527,o),
(288,527,cs),
(88,527,o),
(10,353,o),
(10,190,cs),
(10,61,o),
(86,-13,o),
(211,-13,cs)
);
}
);
width = 492;
},
{
anchors = (
{
name = bottom;
pos = (237,0);
},
{
name = ogonek;
pos = (357,0);
},
{
name = top;
pos = (319,514);
}
);
layerId = "406F15BE-EF31-460D-8EE8-85AD72A74E98";
shapes = (
{
closed = 1;
nodes = (
(407,-14,o),
(507,57,o),
(533,149,c),
(349,149,l),
(330,121,o),
(303,112,o),
(275,112,cs),
(224,112,o),
(198,156,o),
(198,223,cs),
(198,340,o),
(235,402,o),
(302,402,cs),
(335,402,o),
(375,380,o),
(377,314,c),
(152,314,l),
(152,213,l),
(540,213,l),
(582,411,o),
(471,528,o),
(315,528,cs),
(133,528,o),
(24,388,o),
(24,215,cs),
(24,83,o),
(116,-14,o),
(266,-14,cs)
);
}
);
width = 577;
},
{
anchors = (
{
name = bottom;
pos = (324,0);
},
{
name = ogonek;
pos = (487,0);
},
{
name = top;
pos = (406,514);
}
);
layerId = "974B3D67-9F33-42CE-B7A8-3E18495C5B4F";
shapes = (
{
closed = 1;
nodes = (
(558,-14,o),
(650,58,o),
(694,155,c),
(473,155,l),
(447,128,o),
(405,122,o),
(363,122,cs),
(271,122,o),
(228,175,o),
(228,245,cs),
(228,326,o),
(289,392,o),
(398,392,cs),
(461,392,o),
(512,360,o),
(518,314,c),
(166,314,l),
(166,214,l),
(711,214,l),
(748,428,o),
(604,528,o),
(396,528,cs),
(195,528,o),
(26,424,o),
(26,234,cs),
(26,84,o),
(155,-14,o),
(357,-14,cs)
);
}
);
width = 743;
}
);
metricLeft = o;
metricRight = o;
unicode = 101;
},
{
glyphname = f;
kernLeft = f;
kernRight = f;
lastChange = "2024-12-10 10:01:36 +0000";
layers = (
{
layerId = "3A742E95-6392-47DA-98D0-C770A5889573";
shapes = (
{
closed = 1;
nodes = (
(108,0,l),
(190,467,l),
(287,467,l),
(295,514,l),
(198,514,l),
(212,591,ls),
(222,647,o),
(253,667,o),
(293,667,cs),
(322,667,l),
(331,714,l),
(280,714,ls),
(225,714,o),
(172,682,o),
(158,604,cs),
(142,514,l),
(67,514,l),
(59,467,l),
(134,467,l),
(52,0,l)
);
}
);
width = 269;
},
{
layerId = "DA512DF4-6FCD-4164-96D6-05DE8967F50A";
shapes = (
{
closed = 1;
nodes = (
(165,0,l),
(243,442,l),
(378,442,l),
(391,514,l),
(256,514,l),
(264,564,ls),
(272,610,o),
(302,641,o),
(345,641,cs),
(413,641,l),
(426,714,l),
(339,714,ls),
(247,714,o),
(191,668,o),
(174,568,cs),
(165,514,l),
(66,514,l),
(53,442,l),
(152,442,l),
(74,0,l)
);
}
);
width = 370;
},
{
background = {
shapes = (
{
closed = 1;
nodes = (
(208,0,l),
(208,449,l),
(304,449,l),
(304,514,l),
(208,514,l),
(208,576,ls),
(208,623,o),
(232,649,o),
(272,649,cs),
(304,649,l),
(304,714,l),
(250,714,ls),
(175,714,o),
(127,668,o),
(127,581,cs),
(127,514,l),
(54,514,l),
(54,449,l),
(127,449,l),
(127,0,l)
);
}
);
};
layerId = "0A603DC7-0F9F-4E29-AC1C-80B527B5555F";
shapes = (
{
closed = 1;
nodes = (
(131,0,l),
(210,449,l),
(305,449,l),
(316,514,l),
(221,514,l),
(233,578,ls),
(242,629,o),
(272,649,o),
(311,649,cs),
(340,649,l),
(352,714,l),
(289,714,ls),
(224,714,o),
(169,675,o),
(154,594,cs),
(140,514,l),
(67,514,l),
(56,449,l),
(128,449,l),
(50,0,l)
);
}
);
width = 291;
},
{
guides = (
{
angle = 260;
pos = (144,0);
},
{
angle = 260;
pos = (83,0);
},
{
angle = 260;
pos = (357,465);
},
{
angle = 260;
pos = (61,465);
},
{
pos = (292,465);
}
);
layerId = "38E57698-3E0D-47EE-AD12-065B63128021";
shapes = (
{
closed = 1;
nodes = (
(144,0,l),
(226,465,l),
(357,465,l),
(366,514,l),
(235,514,l),
(247,583,ls),
(255,632,o),
(287,665,o),
(332,665,cs),
(392,665,l),
(401,714,l),
(324,714,ls),
(252,714,o),
(200,668,o),
(188,598,cs),
(174,514,l),
(70,514,l),
(61,465,l),
(165,465,l),
(83,0,l)
);
}
);
width = 343;
},
{
guides = (
{
pos = (325,461);
},
{
angle = 80;
pos = (421,461);
},
{
angle = 80;
pos = (157,0);
},
{
angle = 80;
pos = (92,0);
},
{
angle = 80;
pos = (50,461);
}
);
layerId = "7B4F6316-DEA5-4C61-853A-FCC6E55FB2E9";
shapes = (
{
closed = 1;
nodes = (
(157,0,l),
(238,461,l),
(421,461,l),
(430,514,l),
(248,514,l),
(255,556,ls),
(266,621,o),
(307,661,o),
(362,661,cs),
(456,661,l),
(466,714,l),
(354,714,ls),
(266,714,o),
(207,654,o),
(193,573,cs),
(183,514,l),
(59,514,l),
(50,461,l),
(173,461,l),
(92,0,l)
);
}
);
width = 403;
},
{
guides = (
{
angle = 260;
pos = (89,0);
},
{
angle = 260;
pos = (183,0);
},
{
angle = 260;
pos = (45,445);
},
{
angle = 260;
pos = (438,445);
}
);
layerId = "FF0E7F91-EBB7-4227-9826-320229507C52";
shapes = (
{
closed = 1;
nodes = (
(183,0,l),
(261,443,l),
(438,443,l),
(450,514,l),
(274,514,l),
(280,550,ls),
(290,610,o),
(327,643,o),
(380,643,cs),
(473,643,l),
(485,714,l),
(359,714,ls),
(266,714,o),
(203,651,o),
(188,562,cs),
(180,514,l),
(57,514,l),
(45,443,l),
(167,443,l),
(89,0,l)
);
}
);
width = 421;
},
{
layerId = "5974A488-68BA-4ECA-A629-BBB8F5E8E8D7";
shapes = (
{
closed = 1;
nodes = (
(221,0,l),
(288,379,l),
(370,379,l),
(393,514,l),
(311,514,l),
(312,521,ls),
(317,551,o),
(343,578,o),
(378,578,cs),
(405,578,l),
(429,714,l),
(314,714,ls),
(206,714,o),
(145,644,o),
(128,549,cs),
(121,514,l),
(54,514,l),
(31,379,l),
(98,379,l),
(31,0,l)
);
}
);
width = 360;
},
{
layerId = "406F15BE-EF31-460D-8EE8-85AD72A74E98";
shapes = (
{
closed = 1;
nodes = (
(254,0,l),
(320,374,l),
(439,374,l),
(463,514,l),
(345,514,l),
(347,522,ls),
(353,563,o),
(381,577,o),
(421,577,cs),
(475,577,l),
(499,714,l),
(370,714,ls),
(249,714,o),
(180,641,o),
(163,551,cs),
(156,514,l),
(65,514,l),
(41,374,l),
(132,374,l),
(65,0,l)
);
}
);
width = 442;
},
{
layerId = "974B3D67-9F33-42CE-B7A8-3E18495C5B4F";
shapes = (
{
closed = 1;
nodes = (
(292,0,l),
(359,380,l),
(514,380,l),
(538,514,l),
(383,514,l),
(384,518,ls),
(389,556,o),
(416,577,o),
(458,577,cs),
(549,577,l),
(573,714,l),
(381,714,ls),
(269,714,o),
(195,656,o),
(174,534,cs),
(170,514,l),
(58,514,l),
(34,380,l),
(146,380,l),
(79,0,l)
);
}
);
width = 512;
}
);
unicode = 102;
},
